<?xml version="1.0" encoding="UTF-8"?><svg id="Layer_1" xmlns="http://www.w3.org/2000/svg" viewBox="0 0 30 34"><defs><style>.cls-1{fill:#313131;}</style></defs><path class="cls-1" d="M2.12,30.81c0,.85,.34,1.66,.93,2.25,.6,.6,1.41,.93,2.25,.93H24.44c.85,0,1.66-.34,2.25-.93,.6-.6,.93-1.41,.93-2.25V8.5H2.12V30.81ZM20.19,13.81c0-.28,.11-.55,.31-.75,.2-.2,.47-.31,.75-.31s.55,.11,.75,.31c.2,.2,.31,.47,.31,.75v14.88c0,.28-.11,.55-.31,.75-.2,.2-.47,.31-.75,.31s-.55-.11-.75-.31c-.2-.2-.31-.47-.31-.75V13.81Zm-6.38,0c0-.28,.11-.55,.31-.75,.2-.2,.47-.31,.75-.31s.55,.11,.75,.31,.31,.47,.31,.75v14.88c0,.28-.11,.55-.31,.75-.2,.2-.47,.31-.75,.31s-.55-.11-.75-.31c-.2-.2-.31-.47-.31-.75V13.81Zm-6.38,0c0-.28,.11-.55,.31-.75,.2-.2,.47-.31,.75-.31s.55,.11,.75,.31c.2,.2,.31,.47,.31,.75v14.88c0,.28-.11,.55-.31,.75-.2,.2-.47,.31-.75,.31s-.55-.11-.75-.31c-.2-.2-.31-.47-.31-.75V13.81ZM28.69,2.13h-7.97l-.62-1.24c-.13-.27-.34-.49-.59-.64C19.25,.08,18.96,0,18.67,0h-7.59c-.3,0-.59,.08-.84,.24-.25,.16-.45,.38-.58,.65l-.62,1.24H1.06c-.28,0-.55,.11-.75,.31-.2,.2-.31,.47-.31,.75v2.12c0,.28,.11,.55,.31,.75,.2,.2,.47,.31,.75,.31H28.69c.28,0,.55-.11,.75-.31,.2-.2,.31-.47,.31-.75V3.19c0-.28-.11-.55-.31-.75-.2-.2-.47-.31-.75-.31Z"/></svg>