<?xml version="1.0" encoding="utf-8"?>
<!-- Generator: Adobe Illustrator 26.3.1, SVG Export Plug-In . SVG Version: 6.00 Build 0)  -->
<svg version="1.1" id="Layer_1" xmlns="http://www.w3.org/2000/svg" xmlns:xlink="http://www.w3.org/1999/xlink" x="0px" y="0px"
	 viewBox="0 0 948.2 795.8" style="enable-background:new 0 0 948.2 795.8;" xml:space="preserve">
<style type="text/css">
	.st0{fill:#313131;}
	.st1{fill:#1b1b81;}
</style>
<g>
	<path class="st0" d="M45.9,173.4c-12,0-21.4-2.5-28-7.6S6.6,154,4,145.5s-3.9-18.1-3.9-28.6v-60c0-11.5,1.3-21.5,3.9-30
		C6.6,18.3,11.2,11.7,17.9,7c6.6-4.7,16-7,28-7C56.5,0,65,2,71.2,5.9s10.7,9.5,13.4,16.8s4.1,16,4.1,26.2v13.4H66.3v-12
		c0-6.3-0.3-11.9-0.9-16.7s-2.3-8.6-5.1-11.2c-2.8-2.7-7.5-4-14.1-4s-11.6,1.4-14.7,4.3s-5.1,6.9-6,12.2s-1.4,11.4-1.4,18.4v67.4
		c0,8.5,0.7,15.3,2.1,20.3s3.7,8.5,6.9,10.6s7.6,3.1,13,3.1c6.4,0,11-1.4,13.9-4.3c2.8-2.9,4.5-6.8,5.2-11.9s1.1-10.9,1.1-17.6
		v-12.6h22.5v12.6c0,10.4-1.3,19.5-3.8,27.4s-6.9,14.1-13,18.5C65.8,171.2,57.1,173.4,45.9,173.4L45.9,173.4z"/>
	<path class="st0" d="M111.4,171.5V1.5h23.7V75h43.7V1.5h23.7v170.1h-23.7V92h-43.7v79.6L111.4,171.5L111.4,171.5z"/>
	<path class="st0" d="M219.9,171.5L256,1.5h22.9l36.3,170.1h-22.5l-7.8-42.8h-34.6l-8.2,42.8h-22.2V171.5z M253.5,111.7h28.3
		l-14.3-76.6L253.5,111.7L253.5,111.7z"/>
	<path class="st0" d="M332.5,171.5V1.5h16.2L397,114.4V1.5h19.7v170.1h-15.1l-49-116.2v116.1H332.5L332.5,171.5z"/>
	<path class="st0" d="M485.9,173.4c-12,0-21.4-2.5-28-7.6S446.6,154,444,145.5s-3.9-18.1-3.9-28.6v-60c0-11.5,1.3-21.5,3.9-30
		s7.2-15.1,13.9-19.8s16-7,28-7c10.6,0,19.1,2,25.3,5.9s10.7,9.5,13.4,16.8s4.1,16,4.1,26.2v13.4h-22.5v-12c0-6.3-0.3-11.9-0.9-16.7
		s-2.4-8.6-5.1-11.2c-2.8-2.7-7.5-4-14.1-4s-11.6,1.4-14.7,4.3s-5.1,6.9-6,12.2S464,46.4,464,53.4v67.4c0,8.5,0.7,15.3,2.1,20.3
		s3.7,8.5,6.9,10.6s7.6,3.1,13,3.1c6.4,0,11-1.4,13.9-4.3c2.8-2.9,4.5-6.8,5.2-11.9s1-10.9,1-17.6v-12.6h22.5V121
		c0,10.4-1.3,19.5-3.8,27.4s-6.9,14.1-13,18.5C505.8,171.2,497.1,173.4,485.9,173.4L485.9,173.4z"/>
	<path class="st0" d="M551.4,171.5V1.5h65.9v17.6h-42.2v56.3h34.2v16.8h-34.2v62.3h42.6v17H551.4L551.4,171.5z"/>
	<path class="st0" d="M686.2,171.5V1.5h23.3v170.1h-23.3V171.5z"/>
	<path class="st0" d="M755.7,171.5V19.1h-28.8V1.5h80.4v17.6h-27.9v152.4H755.7L755.7,171.5z"/>
	<path class="st0" d="M826.9,57.1l-4-8.4c4.3-0.3,7.3-2.3,8.9-6.1s2.4-9.6,2.4-17.4h-11.1V1.5h24.6v20.4c0,10.9-1.5,19.4-4.6,25.5
		S834.5,56.7,826.9,57.1L826.9,57.1z"/>
	<path class="st0" d="M907.5,173.4c-9.8,0-18-2.1-24.5-6.3s-11.4-10-14.8-17.4c-3.4-7.4-5.3-16-5.9-25.8l21-5.7
		c0.4,6,1.4,11.8,2.8,17.4c1.5,5.6,3.9,10.2,7.2,13.8s8,5.4,14.1,5.4s10.8-1.7,14-5.1s4.7-8.4,4.7-14.8c0-7.7-1.8-13.9-5.2-18.6
		s-7.9-9.4-13.2-14.2l-28.5-25.2c-5.6-4.9-9.7-10.2-12.4-16.1c-2.7-5.8-4-13-4-21.5c0-12.5,3.6-22.1,10.7-29S890.3,0,902.6,0
		c6.7,0,12.6,0.9,17.7,2.6c5.1,1.8,9.4,4.4,12.8,8.1c3.4,3.6,6.2,8.2,8.2,13.8s3.4,12,4.1,19.4l-20.2,5.5
		c-0.4-5.6-1.3-10.7-2.5-15.4s-3.5-8.5-6.6-11.3c-3.2-2.9-7.7-4.3-13.5-4.3s-10.5,1.6-13.8,4.7s-4.9,7.8-4.9,14
		c0,5.2,0.9,9.5,2.6,12.8s4.6,6.8,8.5,10.3l28.8,25.2c6.4,5.6,12.1,12.3,17,20c4.9,7.8,7.3,17,7.3,27.6c0,8.4-1.8,15.6-5.2,21.7
		s-8.3,10.7-14.4,14S915.4,173.4,907.5,173.4L907.5,173.4z"/>
</g>
<g>
	<path class="st1" d="M0.2,472.2l49.7-233.8h31.5l49.9,233.8h-30.9l-10.7-58.9H42.1l-11.3,58.9H0.2L0.2,472.2z M46.4,390h39
		L65.8,284.6L46.4,390z"/>
	<path class="st1" d="M154.9,472.2V238.4h32.6v210.4h59.8v23.4L154.9,472.2L154.9,472.2z"/>
	<path class="st1" d="M269.5,472.2V238.4h47c15.6,0,28.5,2.1,38.7,6.2c10.2,4.1,17.8,10.8,22.7,19.9c4.9,9.1,7.4,21.1,7.4,35.9
		c0,9-1,17.3-2.9,24.7c-1.9,7.4-5,13.7-9.2,18.8c-4.2,5.1-9.8,8.8-16.7,11.1l33.2,117.2h-31.5l-30.6-109.7h-25.4v109.7H269.5
		L269.5,472.2z M302.2,339.2h12.4c9.2,0,16.7-1.1,22.5-3.5c5.8-2.3,10-6.2,12.7-11.8c2.7-5.6,4-13.4,4-23.4
		c0-13.7-2.5-23.5-7.5-29.6s-14.9-9.1-29.7-9.1h-14.4V339.2z"/>
	<path class="st1" d="M419.4,472.2V238.4H510v24.2h-58V340h47v23.1h-47v85.7h58.6v23.4L419.4,472.2L419.4,472.2z"/>
	<path class="st1" d="M524.2,472.2l49.7-233.8h31.5l49.9,233.8h-30.9l-10.7-58.9H566l-11.3,58.9H524.2L524.2,472.2z M570.3,390h39
		l-19.6-105.4L570.3,390L570.3,390z"/>
	<path class="st1" d="M678.9,472.2V238.4h50.8c17.3,0,31,2.6,41.1,7.9c10.1,5.3,17.3,13.2,21.7,23.8c4.3,10.6,6.5,23.8,6.5,39.5v86
		c0,16.5-2.2,30.5-6.5,41.9s-11.4,20-21.1,25.8c-9.7,5.9-22.8,8.8-39.1,8.8L678.9,472.2L678.9,472.2z M711.5,448.9H730
		c11.9,0,20.4-2.3,25.4-6.9s8-11.4,9.1-20.2c1-8.9,1.6-19.5,1.6-32v-75.9c0-12.1-0.8-21.9-2.3-29.4s-4.9-13-10.1-16.5
		c-5.2-3.5-13.4-5.2-24.5-5.2h-17.6L711.5,448.9L711.5,448.9z"/>
	<path class="st1" d="M866.8,472.2v-82.6l-50.5-151.3h30.3l35.8,112.9l35.2-112.9h30.6L898,389.7v82.6L866.8,472.2L866.8,472.2z"/>
</g>
<g>
	<path class="st1" d="M0,792.6V535h51.8c17.2,0,31.4,2.3,42.6,6.8c11.2,4.6,19.6,11.9,25,21.9c5.4,10.1,8.1,23.3,8.1,39.6
		c0,10-1.1,19-3.2,27.2s-5.5,15-10.2,20.7s-10.8,9.7-18.4,12.2l36.6,129.1H97.6L63.9,671.8h-28v120.8H0L0,792.6z M35.9,646h13.7
		c10.2,0,18.4-1.3,24.8-3.8s11-6.9,14-13c3-6.2,4.4-14.7,4.4-25.8c0-15-2.8-25.9-8.3-32.6c-5.5-6.7-16.4-10-32.8-10H35.9V646
		L35.9,646z"/>
	<path class="st1" d="M151,792.6L205.7,535h34.7l55,257.6h-34l-11.8-64.9h-52.5l-12.4,64.9H151L151,792.6z M201.9,702h42.9
		l-21.6-116.1L201.9,702L201.9,702z"/>
	<path class="st1" d="M323.4,792.6V535h35.3v257.6H323.4z"/>
	<path class="st1" d="M400.3,792.6V535h24.5L498,706.1V535h29.9v257.6H505l-74.1-175.8v175.8H400.3L400.3,792.6z"/>
	<path class="st1" d="M570.1,792.6V535h35.3v257.6H570.1z"/>
	<path class="st1" d="M647.1,792.6V535h24.5l73.1,171.1V535h29.9v257.6h-22.9l-74.1-175.8v175.8H647.1L647.1,792.6z"/>
	<path class="st1" d="M876.3,795.8c-16.1,0-29-3.4-38.6-10.3s-16.6-16.9-21-30c-4.3-13.1-6.5-28.9-6.5-47.4v-86.2
		c0-18.9,2-34.9,5.9-48.2s10.9-23.4,21-30.4s24.1-10.5,42.1-10.5c16.1,0,29.1,2.7,39,8.1s17,13.7,21.5,24.8s6.7,25.2,6.7,42.1v9.5
		h-33.7v-8c0-11.2-0.8-20.4-2.2-27.5c-1.5-7.1-4.5-12.4-9.1-15.9s-11.7-5.2-21.5-5.2c-10.6,0-18.3,2.4-23,7.3
		c-4.8,4.9-7.7,11.5-8.9,19.9s-1.8,17.9-1.8,28.5v95.4c0,12.3,0.9,22.6,2.7,30.8c1.8,8.3,5.2,14.4,10.3,18.4s12.3,6,21.6,6
		s16.5-2.2,21.6-6.7s8.6-11,10.5-19.7s2.9-19.5,2.9-32.4v-17.8H883V665h65.2v127.5h-22.6l-3.5-29.6c-3.4,9.5-8.7,17.4-15.9,23.5
		S889,795.8,876.3,795.8L876.3,795.8z"/>
</g>
</svg>
