<?xml version="1.0" encoding="UTF-8"?><svg id="Layer_1" xmlns="http://www.w3.org/2000/svg" viewBox="0 0 948.21 795.79"><defs><style>.cls-1{fill:#006;}</style></defs><g><path d="M45.88,173.41c-12.04,0-21.38-2.52-28.03-7.56-6.65-5.04-11.27-11.83-13.86-20.36C1.4,136.96,.11,127.44,.11,116.94V56.9C.11,45.42,1.4,35.41,4,26.87c2.59-8.54,7.21-15.15,13.86-19.84C24.5,2.35,33.84,0,45.88,0c10.63,0,19.07,1.96,25.3,5.88,6.23,3.92,10.71,9.52,13.44,16.8,2.73,7.28,4.09,16.03,4.09,26.24v13.44h-22.46v-11.97c0-6.3-.31-11.86-.94-16.69-.63-4.83-2.35-8.57-5.14-11.23-2.8-2.66-7.49-3.99-14.07-3.99s-11.62,1.44-14.7,4.3c-3.08,2.87-5.07,6.93-5.98,12.18-.91,5.25-1.36,11.37-1.36,18.37V120.72c0,8.54,.7,15.29,2.1,20.26,1.4,4.97,3.71,8.5,6.93,10.6,3.22,2.1,7.56,3.15,13.02,3.15,6.44,0,11.05-1.43,13.86-4.3,2.8-2.87,4.55-6.82,5.25-11.86,.7-5.04,1.05-10.92,1.05-17.64v-12.6h22.46v12.6c0,10.36-1.26,19.49-3.78,27.4-2.52,7.91-6.86,14.07-13.02,18.47-6.16,4.41-14.84,6.61-26.03,6.61Z"/><path d="M111.38,171.52V1.47h23.72V74.95h43.67V1.47h23.72V171.52h-23.72V91.96h-43.67v79.57h-23.72Z"/><path d="M219.92,171.52L256.03,1.47h22.88l36.32,170.05h-22.46l-7.77-42.83h-34.64l-8.19,42.83h-22.25Zm33.59-59.83h28.34l-14.28-76.63-14.07,76.63Z"/><path d="M332.45,171.52V1.47h16.17l48.29,112.95V1.47h19.73V171.52h-15.12l-48.92-116.1v116.1h-20.15Z"/><path d="M485.92,173.41c-12.04,0-21.38-2.52-28.03-7.56-6.65-5.04-11.27-11.83-13.86-20.36-2.59-8.54-3.88-18.06-3.88-28.55V56.9c0-11.47,1.29-21.48,3.88-30.02,2.59-8.54,7.21-15.15,13.86-19.84,6.65-4.69,15.99-7.03,28.03-7.03,10.64,0,19.07,1.96,25.3,5.88,6.23,3.92,10.71,9.52,13.44,16.8,2.73,7.28,4.09,16.03,4.09,26.24v13.44h-22.46v-11.97c0-6.3-.31-11.86-.94-16.69-.63-4.83-2.35-8.57-5.14-11.23-2.8-2.66-7.49-3.99-14.07-3.99s-11.62,1.44-14.7,4.3c-3.08,2.87-5.07,6.93-5.98,12.18-.91,5.25-1.36,11.37-1.36,18.37V120.72c0,8.54,.7,15.29,2.1,20.26,1.4,4.97,3.71,8.5,6.93,10.6,3.22,2.1,7.56,3.15,13.02,3.15,6.44,0,11.05-1.43,13.86-4.3,2.8-2.87,4.55-6.82,5.25-11.86,.7-5.04,1.05-10.92,1.05-17.64v-12.6h22.46v12.6c0,10.36-1.26,19.49-3.78,27.4-2.52,7.91-6.86,14.07-13.02,18.47-6.16,4.41-14.84,6.61-26.03,6.61Z"/><path d="M551.42,171.52V1.47h65.92V19.1h-42.2v56.27h34.22v16.8h-34.22v62.35h42.62v17.01h-66.34Z"/><path d="M686.2,171.52V1.47h23.3V171.52h-23.3Z"/><path d="M755.69,171.52V19.1h-28.76V1.47h80.41V19.1h-27.92V171.52h-23.72Z"/><path d="M826.86,57.1l-3.99-8.4c4.34-.28,7.31-2.31,8.92-6.09,1.61-3.78,2.41-9.59,2.41-17.43h-11.13V1.47h24.56V21.83c0,10.92-1.54,19.42-4.62,25.51-3.08,6.09-8.47,9.34-16.17,9.76Z"/><path d="M907.48,173.41c-9.8,0-17.95-2.1-24.46-6.3-6.51-4.2-11.44-10.01-14.8-17.43-3.36-7.42-5.32-16.02-5.88-25.82l20.99-5.67c.42,6.02,1.36,11.83,2.83,17.43,1.47,5.6,3.88,10.18,7.24,13.75s8.05,5.35,14.07,5.35,10.81-1.71,13.96-5.14c3.15-3.43,4.72-8.36,4.72-14.8,0-7.7-1.75-13.89-5.25-18.58-3.5-4.69-7.91-9.41-13.23-14.17l-28.55-25.19c-5.6-4.9-9.73-10.25-12.39-16.06-2.66-5.81-3.99-12.98-3.99-21.52,0-12.46,3.57-22.11,10.71-28.97,7.14-6.86,16.86-10.29,29.18-10.29,6.72,0,12.63,.88,17.74,2.62,5.11,1.75,9.37,4.44,12.81,8.08,3.43,3.64,6.16,8.22,8.19,13.75,2.03,5.53,3.39,12,4.09,19.42l-20.16,5.46c-.42-5.6-1.26-10.74-2.52-15.43-1.26-4.69-3.46-8.47-6.61-11.34-3.15-2.87-7.66-4.3-13.54-4.3s-10.46,1.57-13.75,4.72c-3.29,3.15-4.93,7.8-4.93,13.96,0,5.18,.87,9.45,2.62,12.81,1.75,3.36,4.58,6.79,8.5,10.29l28.76,25.19c6.44,5.6,12.1,12.28,17.01,20.05,4.9,7.77,7.35,16.97,7.35,27.61,0,8.4-1.75,15.64-5.25,21.73-3.5,6.09-8.29,10.74-14.38,13.96-6.09,3.22-13.12,4.83-21.1,4.83Z"/></g><g><path class="cls-1" d="M.23,472.23L49.88,238.41h31.46l49.94,233.82h-30.89l-10.68-58.89H42.09l-11.26,58.89H.23Zm46.19-82.27h38.97l-19.63-105.36-19.34,105.36Z"/><path class="cls-1" d="M154.95,472.23V238.41h32.62v210.44h59.75v23.38h-92.37Z"/><path class="cls-1" d="M269.55,472.23V238.41h47.05c15.59,0,28.48,2.07,38.68,6.21,10.2,4.14,17.75,10.78,22.66,19.92,4.91,9.14,7.36,21.12,7.36,35.94,0,9.05-.97,17.28-2.89,24.68-1.93,7.41-5.01,13.67-9.24,18.76-4.24,5.1-9.81,8.8-16.74,11.11l33.2,117.2h-31.47l-30.6-109.69h-25.4v109.69h-32.62Zm32.62-133.08h12.41c9.24,0,16.74-1.15,22.52-3.46,5.77-2.31,10-6.25,12.7-11.84,2.69-5.58,4.04-13.37,4.04-23.38,0-13.66-2.5-23.53-7.51-29.59-5.01-6.06-14.92-9.09-29.73-9.09h-14.43v77.36Z"/><path class="cls-1" d="M419.37,472.23V238.41h90.64v24.25h-58.02v77.36h47.05v23.09h-47.05v85.74h58.6v23.38h-91.22Z"/><path class="cls-1" d="M524.16,472.23l49.65-233.82h31.46l49.94,233.82h-30.89l-10.68-58.89h-47.63l-11.26,58.89h-30.6Zm46.19-82.27h38.97l-19.63-105.36-19.34,105.36Z"/><path class="cls-1" d="M678.88,472.23V238.41h50.81c17.32,0,31.03,2.65,41.14,7.94,10.1,5.3,17.32,13.23,21.65,23.81,4.33,10.59,6.49,23.77,6.49,39.55v86.02c0,16.55-2.16,30.5-6.49,41.86-4.33,11.36-11.36,19.97-21.07,25.84-9.72,5.87-22.76,8.8-39.11,8.8h-53.4Zm32.62-23.38h18.47c11.93,0,20.4-2.31,25.4-6.93,5-4.62,8.03-11.35,9.09-20.21,1.05-8.85,1.59-19.53,1.59-32.04v-75.92c0-12.12-.77-21.94-2.31-29.44-1.54-7.51-4.91-12.99-10.1-16.45-5.2-3.46-13.38-5.2-24.54-5.2h-17.61v186.19Z"/><path class="cls-1" d="M866.8,472.23v-82.56l-50.52-151.26h30.31l35.8,112.87,35.22-112.87h30.6l-50.23,151.26v82.56h-31.18Z"/></g><g><path class="cls-1" d="M0,792.61v-257.56H51.83c17.17,0,31.37,2.28,42.61,6.84,11.23,4.56,19.56,11.87,24.96,21.94,5.41,10.07,8.11,23.27,8.11,39.59,0,9.97-1.06,19.03-3.18,27.19-2.12,8.16-5.51,15.05-10.18,20.67-4.67,5.62-10.81,9.7-18.44,12.24l36.57,129.1h-34.66l-33.71-120.83h-27.98v120.83H0Zm35.93-146.59h13.67c10.18,0,18.44-1.27,24.8-3.82,6.36-2.54,11.02-6.89,13.99-13.04,2.97-6.15,4.45-14.73,4.45-25.76,0-15.05-2.76-25.92-8.27-32.59-5.51-6.68-16.43-10.02-32.75-10.02h-15.9v85.22Z"/><path class="cls-1" d="M151.04,792.61l54.69-257.56h34.66l55.01,257.56h-34.02l-11.77-64.87h-52.47l-12.4,64.87h-33.71Zm50.88-90.62h42.93l-21.62-116.06-21.3,116.06Z"/><path class="cls-1" d="M323.38,792.61v-257.56h35.3v257.56h-35.3Z"/><path class="cls-1" d="M400.33,792.61v-257.56h24.48l73.14,171.07v-171.07h29.89v257.56h-22.89l-74.09-175.84v175.84h-30.53Z"/><path class="cls-1" d="M570.13,792.61v-257.56h35.3v257.56h-35.3Z"/><path class="cls-1" d="M647.08,792.61v-257.56h24.48l73.14,171.07v-171.07h29.89v257.56h-22.89l-74.09-175.84v175.84h-30.53Z"/><path class="cls-1" d="M876.34,795.79c-16.11,0-28.99-3.44-38.64-10.33-9.65-6.89-16.64-16.9-20.99-30.05-4.35-13.14-6.52-28.94-6.52-47.38v-86.17c0-18.87,1.96-34.92,5.88-48.17,3.92-13.25,10.92-23.37,20.99-30.37,10.07-7,24.11-10.49,42.13-10.49,16.11,0,29.09,2.7,38.95,8.11,9.86,5.41,17.01,13.67,21.46,24.8,4.45,11.13,6.68,25.17,6.68,42.13v9.54h-33.71v-7.95c0-11.23-.75-20.4-2.23-27.51-1.49-7.1-4.51-12.4-9.06-15.9-4.56-3.5-11.72-5.25-21.46-5.25-10.6,0-18.28,2.44-23.05,7.31-4.77,4.88-7.74,11.5-8.9,19.87-1.17,8.38-1.75,17.86-1.75,28.46v95.39c0,12.3,.9,22.58,2.7,30.84,1.8,8.27,5.25,14.42,10.33,18.44,5.09,4.03,12.29,6.04,21.62,6.04s16.54-2.23,21.62-6.68c5.09-4.45,8.59-11.02,10.49-19.71,1.91-8.69,2.86-19.5,2.86-32.43v-17.81h-32.75v-25.44h65.19v127.51h-22.58l-3.5-29.57c-3.39,9.54-8.69,17.38-15.9,23.53-7.21,6.15-17.17,9.22-29.89,9.22Z"/></g></svg>