<?xml version="1.0" encoding="utf-8"?>
<!-- Generator: Adobe Illustrator 26.3.1, SVG Export Plug-In . SVG Version: 6.00 Build 0)  -->
<svg version="1.1" id="Layer_1" xmlns="http://www.w3.org/2000/svg" xmlns:xlink="http://www.w3.org/1999/xlink" x="0px" y="0px"
	 viewBox="0 0 946.1 212.6" style="enable-background:new 0 0 946.1 212.6;" xml:space="preserve">
<style type="text/css">
	.st0{fill:#313131;}
</style>
<path class="st0" d="M35.3,210.3V23.4H0V1.8h98.6v21.6H64.4v186.9L35.3,210.3L35.3,210.3z"/>
<path class="st0" d="M118.7,210.3V1.8h29.1v90.1h53.6V1.8h29.1v208.5h-29.1v-97.6h-53.6v97.6C147.8,210.3,118.7,210.3,118.7,210.3z"
	/>
<path class="st0" d="M263.1,210.3V1.8h80.8v21.6h-51.8v69h42V113h-42v76.5h52.3v20.9L263.1,210.3L263.1,210.3z"/>
<path class="st0" d="M367.9,210.3V1.8h42c13.9,0,25.4,1.9,34.5,5.5c9.1,3.7,15.8,9.6,20.2,17.8s6.6,18.8,6.6,32
	c0,8.1-0.9,15.4-2.6,22s-4.5,12.2-8.2,16.7c-3.8,4.6-8.8,7.8-14.9,9.9L475,210.3h-28.1l-27.3-97.8H397v97.8H367.9L367.9,210.3z
	 M397,91.7h11c8.2,0,14.9-1,20.1-3.1S437,83,439.4,78s3.6-11.9,3.6-20.8c0-12.2-2.2-21-6.7-26.4s-13.3-8.1-26.5-8.1H397V91.7z"/>
<path class="st0" d="M501.5,210.3V1.8h80.8v21.6h-51.8v69h42V113h-42v76.5h52.3v20.9L501.5,210.3L501.5,210.3z"/>
<path class="st0" d="M610.1,70l-4.9-10.3c5.3-0.3,9-2.8,10.9-7.5c2-4.6,3-11.8,3-21.4h-13.6v-29h30.1v25c0,13.4-1.9,23.8-5.7,31.3
	C626.2,65.5,619.6,69.5,610.1,70L610.1,70z"/>
<path class="st0" d="M709,212.6c-12,0-22-2.6-30-7.7s-14-12.3-18.2-21.4c-4.1-9.1-6.5-19.6-7.2-31.7l25.7-6.9
	c0.5,7.4,1.7,14.5,3.5,21.4s4.8,12.5,8.9,16.9c4.1,4.4,9.9,6.6,17.2,6.6s13.3-2.1,17.1-6.3c3.9-4.2,5.8-10.2,5.8-18.1
	c0-9.4-2.2-17-6.4-22.8s-9.7-11.5-16.2-17.4l-35-30.9c-6.9-6-11.9-12.6-15.2-19.7s-4.9-15.9-4.9-26.4c0-15.3,4.4-27.1,13.1-35.5
	S687.9,0,703,0c8.2,0,15.5,1.1,21.8,3.2s11.5,5.4,15.7,9.9s7.5,10.1,10,16.9s4.2,14.7,5,23.8l-24.7,6.7c-0.5-6.9-1.5-13.2-3.1-18.9
	c-1.5-5.8-4.2-10.4-8.1-13.9s-9.4-5.3-16.6-5.3s-12.8,1.9-16.9,5.8c-4,3.9-6,9.6-6,17.1c0,6.3,1.1,11.6,3.2,15.7
	c2.1,4.1,5.6,8.3,10.4,12.6l35.3,30.9c7.9,6.9,14.8,15.1,20.8,24.6s9,20.8,9,33.9c0,10.3-2.2,19.2-6.4,26.6
	c-4.3,7.5-10.2,13.2-17.6,17.1C727.4,210.6,718.8,212.6,709,212.6L709,212.6z"/>
<path class="st0" d="M829.2,210.3L873.5,1.8h28.1l44.5,208.5h-27.5l-9.5-52.5h-42.5l-10,52.5H829.2L829.2,210.3z M870.4,137h34.8
	l-17.5-94L870.4,137L870.4,137z"/>
</svg>
