<svg id="Layer_1" data-name="Layer 1" xmlns="http://www.w3.org/2000/svg" viewBox="0 0 2929.79 334.03"><defs><style>.cls-1{fill:#2bc7be;}</style></defs><path class="cls-1" d="M152.4,0H166L319.42,323.59H237l-15.66-32.36H97.6L82.47,323.59H0Zm-84,309L156.06,120h7.3L250,309h42.28L159.19,28.18,27.14,309Zm-6.78-62.1H90.3l-1.57,2.61H60Zm4.7-10.45H95L93.42,239H65.24ZM71.51,226H99.69l-1.57,2.61H69.94Zm4.69-10.44h28.18l-1.56,2.61H75.16Zm5.22-10.44h28.19L108,207.72H79.85Zm4.7-10.43H114.3l-1.56,2.6H85.07Zm4.7-10.44H119l-1.57,2.61H89.77ZM96,173.8h28.18l-1.57,2.61H94.47Zm4.69-10.44h28.18L127.35,166H99.69ZM215,277.14,203,251h-88.2l-11.49,26.1ZM106,152.92h28.19l-1.57,2.61H104.38Zm4.7-10.44h28.18l-1.56,2.61H109.61ZM115.87,132h28.18l-1.57,2.61H114.3Zm0,135.7h84.55l1,2.61H114.83Zm4.7-146.13h28.18l-1.57,2.6H119.52Zm0,135.7h75.67l1.57,2.6H119.52Zm74.11-21.4L159.19,157.1h-1.05l-36,78.81Zm-68.9-124.74h66.29l1.56,2.61H124.22Zm4.7-10.44h56.89l1,2.61h-59Zm4.7-10.44h47l1.57,2.61H134.14Zm5.22-10.44h37l1.05,2.61H138.83Zm4.7-10.44h27.13L173.8,72H144.05ZM150.32,59h17.22l1,2.6H148.75ZM155,48.54h7.31l1.57,2.61H154Zm4.18-8.88,1,2.09h-2.09Zm11,82h27.14l1,2.6H171.71Zm4.7,10.43H202l1.57,2.61H176.41Zm4.69,10.44h27.67l1,2.61H181.11Zm4.7,10.44H211.9l1.57,2.61H185.8Zm4.7,10.44h28.18l1,2.61H190.5Zm4.69,10.44h28.19l1.56,2.61H195.2Zm4.7,10.44H227l1,2.61H199.9Zm4.7,10.44h28.71l1.56,2.6H204.59ZM237,205.11l1.05,2.61H209.29l-1.56-2.61Zm4.7,10.44,1.57,2.61H213.47l-1.57-2.61ZM246.87,226l1,2.61H218.16L216.6,226Zm4.7,10.43,1.56,2.62H222.86l-1.57-2.62Zm5.22,10.45,1,2.61H227l-1.57-2.61Z"/><path class="cls-1" d="M399.77,231.73c0,18.26,14.61,32.88,32.36,32.88,19.31,0,31.31-11,31.31-27.14,0-23.48-30.79-30.27-56.36-39.14-52.72-18.79-81.95-43.32-81.95-97.08C325.13,45.92,372.63,0,431.61,0,501,0,533.9,44.36,538.08,102.3h-72c0-17.75-11-32.37-32.35-32.37-16.71,0-32.89,9.92-32.89,30.28,0,23.48,28.71,27.66,55.33,35.49,55.84,16.7,81.94,48,81.94,97.07,0,55.33-47,101.26-106,101.26-68.37,0-107-45.93-107-102.3Zm32.36,87.68c48.54,0,88.2-39.14,88.2-86.64,0-52.71-31.31-72-79.33-85.59-30.79-8.88-57.41-16.18-57.41-47,0-27.14,20.36-44.89,48.54-44.89,32.36,0,43.32,19.31,48,32.36h39.15c-3.13-30.79-26.1-73.07-87.16-73.07-48.54,0-89.25,39.14-89.25,86.64,0,38.63,14.61,63.15,72,83.51,29.74,11,65.76,18.79,65.76,52.71,0,27.66-24,41.76-48.54,41.76-26.62-.53-43.32-15.66-48-32.89H343.4C344.44,285.48,382.55,319.41,432.13,319.41Zm-84-223.9h30.27v2.61H348.1Zm0,10.44h30.27l.52,2.6H348.1Zm2.09-21.4h30.27l-1,3.13H349.14Zm-1.05,32.36h31.32l1,2.61H349.66Zm2.61,10.44h35l-.52-.53,3.13,3.14H352.27Zm1.05-53.24h31.84l-1.57,2.61h-30.8Zm5.22-11h36l-3.65,3.13H356.45Zm-1,75.15h42.28l4.17,2.62H358.54Zm7.83-85.59h45.93L405,55.32H362.71Zm.52,96h60l9.92,2.62H367.93Zm9.4-106.47h57.41v2.61H371.59Zm2.61,116.92h81.94l7.83,3.12h-84ZM390.38,31.31h41.75v2.61H386.2Zm91.33,138.83,3.13,2.61h-83l-4.18-2.61ZM421.17,20.87h11v2.62H408.64ZM495.8,180.58l2.61,3.13h-71.5l-7.83-3.13Zm-63.67,107h59.5L489,290.18H432.13Zm0,10.44h47l-3.65,2.62H432.13Zm0,11h26.62l-9.92,2.61h-16.7Zm72.54-117.43,1.05,2.61H455.09l-5.74-2.61ZM464,276.62h37l-1.56,2.08-.53,1H457.7ZM509.37,202l1,2.61H472.32L469.18,202ZM476,266.18h30.79l-1.56,2.61H473.36Zm2.61-53.24H513l1,2.61H480.14Zm4.18,42.28h28.7l-1,3.13H481.19Zm1-31.84h30.79V226H484.32Zm1.56,21.4h28.71l-.52,2.61H484.84Zm.52-10.44h29.23l-.52,2.61H485.88Z"/><path class="cls-1" d="M647.14,231.73c0,18.26,14.61,32.88,32.36,32.88,19.31,0,31.31-11,31.31-27.14,0-23.48-30.79-30.27-56.36-39.14-52.72-18.79-82-43.32-82-97.08C572.5,45.92,620,0,679,0c69.41,0,102.29,44.36,106.46,102.3h-72c0-17.75-11-32.37-32.36-32.37-16.7,0-32.88,9.92-32.88,30.28,0,23.48,28.71,27.66,55.33,35.49,55.84,16.7,81.93,48,81.93,97.07,0,55.33-47,101.26-105.94,101.26-68.37,0-107-45.93-107-102.3Zm32.36,87.68c48.54,0,88.2-39.14,88.2-86.64,0-52.71-31.32-72-79.33-85.59C657.57,138.3,631,131,631,100.21c0-27.14,20.35-44.89,48.54-44.89,32.35,0,43.32,19.31,48,32.36h39.14c-3.12-30.79-26.09-73.07-87.15-73.07-48.54,0-89.25,39.14-89.25,86.64,0,38.63,14.61,63.15,72,83.51C692,195.72,728,203.55,728,237.47c0,27.66-24,41.76-48.54,41.76-26.62-.53-43.32-15.66-48-32.89H590.77C591.81,285.48,629.91,319.41,679.5,319.41Zm-84-223.9h30.27v2.61H595.47Zm0,10.44h30.27l.52,2.6H595.47Zm2.09-21.4h30.27l-1.05,3.13H596.51Zm-1,32.36h31.32l1,2.61H597Zm2.61,10.44h35l-.52-.53L636.7,130H599.64Zm1-53.24H632l-1.56,2.61h-30.8Zm5.22-11h36l-3.66,3.13H603.82Zm-1,75.15h42.28l4.17,2.62H605.91Zm7.83-85.59H658.1l-5.74,2.61H610.08Zm.52,96h60l9.92,2.62H615.3Zm9.4-106.47H679.5v2.61H619Zm2.6,116.92h81.95l7.83,3.12h-84Zm13-127.88H679.5v2.61H633.57Zm91.34,138.83,3.13,2.61h-83l-4.17-2.61ZM668.53,20.87h11v2.62H656Zm74.64,159.71,2.61,3.13h-71.5l-7.83-3.13Zm-63.67,107H739l-2.62,2.61H679.5Zm0,10.44h47l-3.65,2.62H679.5Zm0,11h26.61l-9.91,2.61H679.5ZM752,191.54l1.05,2.61H702.46l-5.74-2.61Zm-40.71,85.08h37.06l-1.57,2.08-.52,1H705.07ZM756.74,202l1,2.61h-38.1L716.55,202Zm-33.4,64.2h30.79l-1.56,2.61H720.73ZM726,212.94h34.44l1.05,2.61H727.51Zm4.17,42.28h28.71l-1.05,3.13H728.56Zm1-31.84H762V226H731.69Zm1.56,21.4h28.71l-.53,2.61h-28.7Zm.52-10.44h29.23L762,237H733.25Z"/><path class="cls-1" d="M821.44,10.43h76.72V323.59H821.44ZM878.85,309V25.05h-38.1V309ZM846,29.75h27.66v2.61H846Zm0,10.43h27.66V42.8H846Zm0,10.44h27.66v2.62H846Zm0,10.45h27.66v2.6H846Zm0,10.43h27.66v2.61H846Zm0,10.44h27.66v2.61H846Zm0,10.44h27.66V95H846Zm0,10.43h27.66v2.62H846Zm0,10.44h27.66v2.62H846Zm0,10.44h27.66v2.61H846Zm0,10.44h27.66v2.61H846Zm0,10.44h27.66v2.61H846ZM846,155h27.66v2.6H846Zm0,10.43h27.66v2.61H846Zm0,10.44h27.66v2.62H846Z"/><path class="cls-1" d="M1100.65,0c57.93,0,98.12,21.4,131,54.8l-53.24,49.06c-21.39-19.31-48-31.31-77.76-31.31-55.85,0-91.86,41.75-91.86,94.46,0,57.93,41.23,94.47,93.43,94.47,54.8,0,81.41-30.27,83.5-60.55h-89.24V134.65h172.23V164.4c0,92.38-54.28,169.63-168.06,169.63C1001.48,334,931,260.43,931,167S1001.48,0,1100.65,0Zm0,319.41c100.73,0,148.75-65.24,148.75-151.88V149.27H1115.79v37h90.81c-.52,42.8-32.36,89.77-105.95,89.77-67.33,0-111.69-48-111.69-109.08s44.36-109.08,111.69-109.08c27.66,0,54.8,9.92,76.72,25.05l30.27-29.23c-27.14-25.57-62.1-39.14-107-39.14-87.16,0-150.31,67.33-150.31,152.4S1013.49,319.41,1100.65,319.41ZM956.08,155.53h28.18l-.52,2.61H955.56ZM955.56,166h28.18v2.61H955.56Zm0,10.44h28.18l.52,2.61H956.08Zm1.56-31.32h28.71l-1.05,2.61H956.6Zm-.52,41.76h28.18l1.05,2.6H957.12Zm2.09-52.2h29.22l-1,2.61H958.16Zm-.53,62.63h28.71l1,2.61h-28.7Zm2.62,10.44H990l1,2.61H961.3Zm3.13,10.44h30.27l1.56,2.61H964.43Zm3.65,10.44h32.36l2.09,2.61H969.12ZM972.78,239h34.45l2.61,2.61H974.35ZM979,249.48h37.58l2.61,2.6H980.61Zm7.83,10.43h41.76l3.13,2.61H988.44Zm60,10.44,5.22,2.61H998.35l-2.61-2.61Zm36.54,10.44a158.47,158.47,0,0,0,17.22,1,133.36,133.36,0,0,0,16.7-1h81.94l-3.13,2.61H1010.88l-3.13-2.61Zm102.81,10.44-3.65,2.61H1026l-3.65-2.61Zm-19.31,10.44-6.78,2.61H1047.42l-6.79-2.61Zm-42.27,10.44c-4.18,1-11,1.56-24,1.56a182.48,182.48,0,0,1-24.53-1.56Zm-2.09-156.58h120.56v2.61H1122.57Zm0,10.44h120.56v2.61H1122.57Zm0,10.44h120.56V179H1122.57Zm33.93,93.94h54.27l-2.61,2.61h-56.88Zm19.83-10.44h42.27l-2.08,2.61h-44.37Zm11.48-10.43h36.54l-2.09,2.6H1185.2Zm8.87-10.44H1229l-1.57,2.61h-33.4Zm5.74-10.44h31.32l-1.57,2.61h-31.83Zm4.18-10.44h29.75l-1,2.61h-29.74Zm3.65-10.44H1239l-1,2.61h-28.19Zm2.09-10.44h28.18l-.52,2.61h-28.7Zm1.05-10.43h28.18v2.6h-28.71Z"/><path class="cls-1" d="M1303.12,10.43H1384l121.6,185.81V10.43h76.21V323.59H1502l-122.13-185.8v185.8h-76.72ZM1360.53,309V88.2h7.83L1514,309h48.53V25.05h-37.57V243.21h-9.4L1372,25.05h-49.58V309ZM1336,30.79h32.88L1371,33.4h-33.41Zm7.31,10.44h32.36l2.09,2.61h-32.89Zm6.78,10.44h32.36l2.09,2.61h-32.88Zm7.31,10.44h31.84l2.08,2.61H1359Zm6.78,10.44H1396l2.09,2.6h-32.36ZM1371.49,83h31.32l2.08,2.61h-31.83Zm6.79,10.44h31.83L1412.2,96h-32.36Zm6.78,10.44h31.84l2.09,2.61h-32.37Zm7.31,10.44h31.31l2.09,2.61h-31.84Zm6.78,10.44h31.32l2.09,2.61h-31.84Zm6.79,10.44h31.31l2.09,2.61H1407.5Zm6.78,10.44h31.84l2.09,2.6h-32.36Zm6.79,10.43h31.84l2.08,2.61h-32.36Zm6.78,10.44h31.84l2.09,2.61h-32.36Zm7.31,10.44h31.32l2.08,2.61h-31.84Zm6.79,10.43h31.31l2.09,2.62H1442Zm6.78,10.45h31.31l2.09,2.61h-31.84Zm6.78,10.44h31.84l2.09,2.6h-32.36Zm38.63,10.43,2.09,2.61H1462.3l-1.56-2.61Zm6.78,10.44,2.09,2.61h-31.84l-1.56-2.61Zm6.79,10.44,2.08,2.61H1476.4l-1.57-2.61ZM1514,250l2.08,2.62h-32.88l-1.56-2.62Zm7.3,10.44,2.61,2.62H1490l-1.57-2.62Zm7.83,10.45,2.61,2.61h-35l-1.56-2.61Zm7.83,10.44,2.09,2.6h-35.49l-1.57-2.6Zm7.83,10.43,2.61,2.61h-36.54l-1.56-2.61Zm7.3,9.39,2.61,2.61h-38.1l-1.56-2.61Z"/><path class="cls-1" d="M1616.24,10.43h71.5l79.85,169.11L1848,10.43h70.46V323.59h-76.2V184.24L1773.86,334h-12.53L1693,183.19v140.4h-76.72ZM1673.65,309V118.47h8.87l85.07,183.72,86.64-183.72h7.31V309h37.58V25.05H1861l-86.12,183.2h-14.61l-85.6-183.2h-39.14V309ZM1643.38,30.79H1671l1,2.61h-27.14Zm5.22,10.44h27.14l1,2.61h-26.62Zm5.22,10.44H1681l1,2.61h-26.62ZM1659,62.11h26.61l1,2.61h-26.1Zm5.22,10.44h26.61l1.05,2.6h-26.1ZM1670,83h25.57l1,2.61h-25.06Zm5.21,10.44h25.06l1,2.61h-24.53Zm5.22,10.44H1705l1,2.61h-24Zm5.22,10.44h24l1.57,2.61h-24Zm5.22,10.44h24l1,2.61h-23.48Zm5.22,10.44h23.49l1.57,2.61h-23.49Zm4.7,10.44h24l1,2.6h-23.48Zm4.7,10.43h24l1,2.61h-23.49Zm4.69,10.44h24l1,2.61h-23.48Zm5.22,10.44h24l1,2.61H1717Zm4.7,10.43h24l1,2.62h-23.48Zm4.7,10.45h24.53l1,2.61h-24Zm5.22,10.44h23.48l1.57,2.6h-23.49Zm4.69,10.43h24l1.57,2.61h-24Zm4.7,10.44h24.53l1.57,2.61H1741Zm29.75,10.44,1.57,2.61h-25l-1.57-2.61Zm5.22,10.43,1.57,2.62h-25.58l-1.56-2.62Zm4.7,10.44,1.56,1.57-1,1.57h-24l-1.57-3.14Zm-2.61,10.45-1.57,2.61h-14.61l-1.57-2.61Zm-4.7,10.44-1.56,2.6H1765l-1.57-2.6Zm-2.09,9.39-2.09,2.6-2.08-2.6Zm97.08-259.92h27.14V33.4h-27.14Zm0,10.44h27.14v2.61h-27.14Zm0,10.44h27.14v2.61h-27.14Zm0,10.44h27.14v2.61h-27.14Zm0,10.44h27.14v2.6h-27.14Zm0,10.43h27.14v2.61h-27.14Zm0,10.44h27.14V96h-27.14Zm0,10.44h27.14v2.61h-27.14Zm0,10.44h27.14v2.61h-27.14Zm0,10.44h27.14v2.61h-27.14Zm0,10.44h27.14v2.61h-27.14Zm0,10.44h27.14v2.6h-27.14Zm0,10.43h27.14v2.61h-27.14Zm0,10.44h27.14v2.61h-27.14Zm0,10.44h27.14v2.61h-27.14Zm0,10.43h27.14V190h-27.14Zm0,10.45h27.14v2.61h-27.14Zm0,10.44h27.14v2.6h-27.14Zm0,10.43h27.14v2.61h-27.14Zm0,10.44h27.14v2.61h-27.14Zm0,10.44h27.14v2.61h-27.14Zm0,10.43h27.14v2.62h-27.14Zm0,10.44h27.14v2.62h-27.14Zm0,10.45h27.14v2.61h-27.14Zm0,10.44h27.14v2.6h-27.14Zm0,10.43h27.14v2.61h-27.14Zm0,10.44h27.14v2.09h-27.14Z"/><path class="cls-1" d="M1952.84,10.43H2160V78.29H2029.56v56.36h120.57v66.81H2029.56v56.36h136.22v65.77H1952.84ZM2146.47,309V272.44H2010.25V186.85h120.56V149.27H2010.25V63.67h130.48V25.05H1972.15V309Zm-164.93-8.87h159.71v2.61H1978.94Zm-2.08-267.74h156.05V35H1982.07ZM1989.9,42.8h145.61v2.61h-143Zm2.61,246.86h148.74v2.61H1989.9Zm7.82-236.42h135.18v2.6H2003Zm3.14,226h137.78v2.6H2000.33Zm6.78-123.18H2125.6v2.61H2010.25Zm0,10.44H2125.6v2.61H2010.25Zm0,10.44H2125.6v2.61H2010.25Z"/><path class="cls-1" d="M2187.15,10.43h80.9l121.61,185.81V10.43h76.2V323.59H2386l-122.13-185.8v185.8h-76.73ZM2244.57,309V88.2h7.82L2398,309h48.54V25.05H2409V243.21h-9.39L2256.05,25.05h-49.58V309ZM2220,30.79h32.88L2255,33.4h-33.4Zm7.3,10.44h32.36l2.09,2.61h-32.88Zm6.79,10.44h32.36l2.09,2.61h-32.89Zm7.3,10.44h31.84l2.09,2.61H2243Zm6.79,10.44h31.84l2.09,2.6h-32.36ZM2255.53,83h31.31l2.09,2.61h-31.84Zm6.78,10.44h31.84l2.08,2.61h-32.35Zm6.79,10.44h31.83l2.09,2.61h-32.36Zm7.3,10.44h31.32l2.09,2.61H2278Zm6.79,10.44h31.31l2.09,2.61h-31.84Zm6.78,10.44h31.32l2.09,2.61h-31.84Zm6.79,10.44h31.84l2.08,2.6h-32.36Zm6.78,10.43h31.84l2.09,2.61h-32.36Zm6.79,10.44h31.84l2.08,2.61H2311.9Zm7.31,10.44H2349l2.09,2.61H2319.2Zm6.78,10.43h31.32l2.08,2.62H2326Zm6.79,10.45h31.31l2.09,2.61h-31.84Zm6.78,10.44h31.84l2.08,2.6h-32.36Zm38.62,10.43,2.09,2.61h-32.36l-1.57-2.61Zm6.79,10.44,2.09,2.61h-31.84l-1.57-2.61Zm6.78,10.44,2.09,2.61h-31.84l-1.56-2.61ZM2398,250l2.09,2.62h-32.88l-1.57-2.62Zm7.31,10.44,2.61,2.62H2374l-1.56-2.62Zm7.82,10.45,2.62,2.61h-35l-1.57-2.61Zm7.83,10.44,2.09,2.6h-35.49l-1.56-2.6Zm7.84,10.43,2.6,2.61h-36.53l-1.57-2.61Zm7.3,9.39,2.61,2.61h-38.1l-1.56-2.61Z"/><path class="cls-1" d="M2556.12,78.29h-70.46V10.43h218.16V78.29h-71v245.3h-76.72ZM2613.53,309V63.67h71V25.05H2505V63.67h70.46V309ZM2510.19,32.88h169.1v2.61h-169.1Zm0,10.44h169.1v2.6h-169.1Zm0,10.43h169.1v2.62h-169.1Z"/><path class="cls-1" d="M2791.48,231.73a32.65,32.65,0,0,0,32.37,32.88c19.31,0,31.31-11,31.31-27.14,0-23.48-30.8-30.27-56.37-39.14-52.71-18.79-81.94-43.32-81.94-97.08C2716.85,45.92,2764.35,0,2823.32,0c69.42,0,102.3,44.36,106.47,102.3h-72c0-17.75-11-32.37-32.36-32.37-16.7,0-32.88,9.92-32.88,30.28,0,23.48,28.7,27.66,55.32,35.49,55.85,16.7,81.94,48,81.94,97.07,0,55.33-47,101.26-105.94,101.26-68.38,0-107-45.93-107-102.3Zm32.37,87.68c48.53,0,88.2-39.14,88.2-86.64,0-52.71-31.32-72-79.33-85.59-30.8-8.88-57.42-16.18-57.42-47,0-27.14,20.36-44.89,48.55-44.89,32.35,0,43.32,19.31,48,32.36H2911c-3.13-30.79-26.09-73.07-87.15-73.07-48.55,0-89.26,39.14-89.26,86.64,0,38.63,14.62,63.15,72,83.51,29.75,11,65.76,18.79,65.76,52.71,0,27.66-24,41.76-48.53,41.76-26.63-.53-43.32-15.66-48-32.89h-40.71C2736.16,285.48,2774.26,319.41,2823.85,319.41Zm-84-223.9h30.28v2.61h-30.28Zm0,10.44h30.28l.52,2.6h-30.8Zm2.09-21.4h30.27l-1,3.13h-30.27Zm-1,32.36h31.31l1,2.61h-31.83Zm2.6,10.44h35l-.53-.53L2781,130H2744Zm1.05-53.24h31.84l-1.56,2.61H2744Zm5.22-11h36l-3.65,3.13h-33.93Zm-1,75.15H2791l4.18,2.62h-44.89Zm7.83-85.59h45.92l-5.74,2.61h-42.27Zm.52,96h60l9.91,2.62h-67.32Zm9.39-106.47h57.42v2.61H2763.3ZM2769,159.19H2851l7.83,3.12h-84Zm13.05-127.88h41.76v2.61h-45.94Zm91.33,138.83,3.14,2.61h-83l-4.17-2.61ZM2812.88,20.87h11v2.62h-23.49Zm74.64,159.71,2.61,3.13h-71.51l-7.83-3.13Zm-63.67,107h59.49l-2.61,2.61h-56.88Zm0,10.44h47l-3.65,2.62h-43.32Zm0,11h26.61l-9.92,2.61h-16.69Zm72.54-117.43,1,2.61h-50.62l-5.74-2.61Zm-40.71,85.08h37.06l-1.57,2.08-.52,1h-41.23ZM2901.09,202l1,2.61H2864L2860.9,202Zm-33.41,64.2h30.8l-1.57,2.61h-31.83Zm2.61-53.24h34.45l1.05,2.61h-33.93Zm4.18,42.28h28.7l-1,3.13h-29.22Zm1-31.84h30.8V226H2876Zm1.57,21.4h28.71l-.53,2.61h-28.7Zm.52-10.44h29.23l-.52,2.61H2877.6Z"/></svg>