<svg id="Layer_1" data-name="Layer 1" xmlns="http://www.w3.org/2000/svg" viewBox="0 0 1574.02 332.38"><defs><style>.cls-1{fill:#2bc7be;}</style></defs><path class="cls-1" d="M151.65,0h13.5L317.84,322H235.78l-15.58-32.2H97.12L82.06,322H0ZM68,307.45l87.25-188h7.28l86.21,188h42.06L158.4,28,27,307.45Zm-6.75-61.8H89.85l-1.56,2.6H59.72ZM66,235.26H94.52L93,237.86h-28Zm5.19-10.38h28l-1.55,2.59h-28Zm4.67-10.39h28.05l-1.56,2.6H74.78ZM81,204.1h28.05l-1.56,2.6h-28Zm4.68-10.38h28.05l-1.57,2.59H84.65Zm4.68-10.39h28l-1.56,2.6H89.33Zm5.19-10.39h28.05l-1.57,2.6H94Zm4.67-10.38h28.05l-1.56,2.59H99.19ZM214,275.77,202,249.8H114.25l-11.42,26ZM105.43,152.17h28l-1.56,2.6h-28Zm4.67-10.39h28l-1.55,2.6H109.06Zm5.19-10.39h28l-1.55,2.6h-28Zm0,135h84.14l1,2.6H114.25ZM120,121H148l-1.56,2.59H118.93Zm0,135h75.31l1.56,2.59h-77.9Zm73.76-21.3L158.4,156.32h-1l-35.83,78.42ZM125.16,110.62h66l1.55,2.6H123.61Zm4.67-10.39h56.61l1,2.6H128.8Zm4.68-10.38h46.74l1.56,2.59H133.47Zm5.19-10.39h36.87l1.05,2.6H138.14Zm4.68-10.39h27l1.56,2.6H143.33Zm5.19-10.38H166.7l1.05,2.59H148Zm4.67-10.39h7.27l1.56,2.6H153.2Zm4.16-8.83,1,2.07h-2.08ZM169.3,121h27l1,2.59H170.86ZM174,131.39h27l1.55,2.6h-27Zm4.67,10.39h27.53l1,2.6h-27Zm4.68,10.39h27.52l1.56,2.6H184.88ZM188,162.56h28l1.05,2.59H189.56Zm4.67,10.38h28.05l1.56,2.6H194.23Zm4.68,10.39h28.56l1,2.6h-28ZM202,193.72h28.57l1.56,2.59H203.58Zm33.76,10.38,1,2.6H208.25l-1.55-2.6Zm4.68,10.39,1.55,2.6h-29.6l-1.56-2.6Zm5.19,10.39,1,2.59h-29.6l-1.56-2.59Zm4.67,10.38,1.56,2.6H221.76l-1.56-2.6Zm5.2,10.39,1,2.6H225.91l-1.55-2.6Z"/><path class="cls-1" d="M397.79,230.59A32.49,32.49,0,0,0,430,263.31c19.21,0,31.16-10.91,31.16-27,0-23.37-30.65-30.12-56.1-39-52.45-18.7-81.53-43.11-81.53-96.6,0-55,47.26-100.75,106-100.75,69.07,0,101.79,44.14,105.94,101.79H463.75c0-17.66-10.9-32.2-32.2-32.2-16.62,0-32.71,9.87-32.71,30.12,0,23.37,28.56,27.53,55,35.32,55.57,16.62,81.54,47.78,81.54,96.59,0,55.06-46.74,100.76-105.42,100.76-68,0-106.47-45.7-106.47-101.79ZM430,317.84c48.29,0,87.77-38.95,87.77-86.22,0-52.45-31.17-71.66-78.95-85.17-30.64-8.83-57.13-16.1-57.13-46.74,0-27,20.26-44.66,48.31-44.66,32.19,0,43.1,19.22,47.77,32.2h39c-3.11-30.64-26-72.71-86.72-72.71-48.31,0-88.81,39-88.81,86.21,0,38.43,14.54,62.84,71.66,83.1,29.61,10.9,65.44,18.69,65.44,52.45,0,27.53-23.89,41.55-48.29,41.55-26.49-.52-43.11-15.58-47.79-32.72h-40.5C342.74,284.08,380.66,317.84,430,317.84ZM346.38,95H376.5v2.6H346.38Zm0,10.39H376.5L377,108H346.38Zm2.07-21.3h30.13l-1,3.12H347.42Zm-1,32.2h31.16l1,2.6H347.94ZM350,126.72h34.8l-.52-.52,3.11,3.12H350.53Zm1-53h31.68l-1.55,2.59H350.53Zm5.19-10.91h35.84L388.45,66H354.69Zm-1,74.78h42.06l4.16,2.6H356.77ZM363,52.45h45.7L403,55.05H360.92Zm.52,95.56h59.72l9.87,2.6h-67Zm9.35-105.95H430v2.6H369.75Zm2.59,116.34H457l7.79,3.11H381.18Zm13-127.24H430v2.59H384.29ZM479.33,169.3l3.12,2.6H399.87l-4.15-2.6ZM419.09,20.77H430v2.6H406.63Zm74.26,158.92,2.6,3.12H424.8L417,179.69ZM430,286.15h59.2l-2.6,2.6H430Zm0,10.39h46.74l-3.64,2.6H430Zm0,10.91h26.48l-9.87,2.6H430ZM502.19,190.6l1,2.6H452.85l-5.72-2.6Zm-40.52,84.65h36.88L497,277.33l-.52,1h-41ZM506.85,201l1,2.59H470L466.87,201Zm-33.23,63.87h30.64l-1.56,2.6H471Zm2.6-53h34.27l1,2.6H477.77ZM480.37,254h28.56l-1,3.11H478.81Zm1-31.68h30.64v2.6H481.93ZM483,243.57h28.57l-.52,2.6H482.45Zm.52-10.39h29.09l-.52,2.6H483.48Z"/><path class="cls-1" d="M643.94,230.59c0,18.17,14.55,32.72,32.2,32.72,19.22,0,31.16-10.91,31.16-27,0-23.37-30.64-30.12-56.09-39-52.45-18.7-81.53-43.11-81.53-96.6C569.68,45.7,616.94,0,675.62,0c69.08,0,101.8,44.14,106,101.79H709.9c0-17.66-10.91-32.2-32.2-32.2-16.62,0-32.72,9.87-32.72,30.12,0,23.37,28.57,27.53,55,35.32,55.57,16.62,81.54,47.78,81.54,96.59,0,55.06-46.74,100.76-105.43,100.76-68,0-106.46-45.7-106.46-101.79Zm32.2,87.25c48.3,0,87.77-38.95,87.77-86.22,0-52.45-31.16-71.66-78.94-85.17-30.64-8.83-57.13-16.1-57.13-46.74,0-27,20.26-44.66,48.3-44.66,32.2,0,43.11,19.22,47.78,32.2h39c-3.11-30.64-26-72.71-86.73-72.71-48.3,0-88.81,39-88.81,86.21,0,38.43,14.55,62.84,71.67,83.1,29.6,10.9,65.44,18.69,65.44,52.45,0,27.53-23.89,41.55-48.3,41.55-26.49-.52-43.1-15.58-47.78-32.72H587.85C588.89,284.08,626.81,317.84,676.14,317.84ZM592.52,95h30.13v2.6H592.52Zm0,10.39h30.13l.52,2.59H592.52Zm2.08-21.3h30.13l-1.05,3.12H593.57Zm-1,32.2h31.16l1,2.6H594.09Zm2.6,10.39H631l-.52-.52,3.11,3.12H596.68Zm1-53h31.68l-1.55,2.59H596.68Zm5.19-10.91h35.84L634.6,66H600.84Zm-1,74.78h42.06l4.16,2.6H602.91Zm7.79-85.17h45.7l-5.72,2.6H607.07Zm.52,95.56h59.72l9.87,2.6h-67ZM619,42.06h57.12v2.6H615.89Zm2.59,116.34h81.54l7.79,3.11H627.33Zm13-127.24h41.54v2.59h-45.7ZM725.48,169.3l3.12,2.6H646l-4.16-2.6ZM665.23,20.77h10.91v2.6H652.77ZM739.5,179.69l2.6,3.12H671l-7.79-3.12ZM676.14,286.15h59.2l-2.59,2.6H676.14Zm0,10.39h46.75l-3.64,2.6H676.14Zm0,10.91h26.49l-9.87,2.6H676.14ZM748.33,190.6l1,2.6H699l-5.71-2.6Zm-40.51,84.65H744.7l-1.57,2.08-.51,1h-41ZM753,201l1,2.59H716.13L713,201Zm-33.24,63.87h30.65l-1.56,2.6H717.17Zm2.6-53h34.28l1,2.6H723.92ZM726.52,254h28.56l-1,3.11H725Zm1-31.68H758.2v2.6H728.08Zm1.57,21.29h28.56l-.52,2.6H728.6Zm.51-10.39h29.09l-.52,2.6H729.63Z"/><path class="cls-1" d="M817.38,10.38h76.34V322H817.38Zm57.13,297.07V24.93H836.59V307.45ZM841.79,29.6h27.53v2.6H841.79Zm0,10.39h27.53v2.59H841.79Zm0,10.38h27.53V53H841.79Zm0,10.39h27.53v2.6H841.79Zm0,10.39h27.53v2.6H841.79Zm0,10.39h27.53v2.59H841.79Zm0,10.38h27.53v2.6H841.79Zm0,10.39h27.53v2.6H841.79Zm0,10.39h27.53v2.59H841.79Zm0,10.38h27.53v2.6H841.79Zm0,10.39h27.53v2.6H841.79Zm0,10.39h27.53v2.59H841.79Zm0,10.38h27.53v2.6H841.79Zm0,10.39h27.53v2.6H841.79Zm0,10.39h27.53v2.6H841.79Z"/><path class="cls-1" d="M1095.22,0c57.65,0,97.64,21.29,130.36,54.53l-53,48.82c-21.29-19.22-47.77-31.16-77.38-31.16-55.57,0-91.41,41.55-91.41,94,0,57.64,41,94,93,94,54.53,0,81-30.12,83.09-60.25h-88.8V134h171.38v29.6c0,91.93-54,168.79-167.23,168.79-98.68,0-168.79-73.23-168.79-166.19S996.54,0,1095.22,0Zm0,317.84c100.23,0,148-64.92,148-151.14V148.53h-133v36.88h90.37c-.52,42.58-32.2,89.32-105.43,89.32-67,0-111.14-47.78-111.14-108.54s44.15-108.55,111.14-108.55c27.53,0,54.53,9.87,76.35,24.93l30.12-29.08c-27-25.45-61.8-38.95-106.47-38.95-86.73,0-149.57,67-149.57,151.65S1008.49,317.84,1095.22,317.84ZM951.36,154.77h28l-.52,2.59h-28Zm-.51,10.38h28v2.6h-28Zm0,10.39h28l.52,2.6h-28Zm1.55-31.16H981l-1,2.6h-28Zm-.52,41.55h28l1,2.59H952.4ZM954,134H983l-1,2.6H953.44Zm-.52,62.32H982l1,2.6H954.48ZM956,206.7h29.08l1,2.6h-29.6Zm3.11,10.39h30.13l1.55,2.59H959.67Zm3.64,10.38H995l2.08,2.6H964.35ZM968,237.86h34.28l2.6,2.6H969.54Zm6.24,10.39h37.38l2.6,2.59H975.77ZM982,258.63h41.54l3.12,2.6H983.56ZM1041.73,269l5.19,2.6H993.43l-2.6-2.6Zm36.35,10.39a160,160,0,0,0,17.14,1,134.28,134.28,0,0,0,16.62-1h81.54l-3.12,2.59H1005.89l-3.11-2.59Zm102.31,10.38-3.63,2.6H1021l-3.64-2.6Zm-19.21,10.39-6.76,2.6H1042.25l-6.75-2.6Zm-42.06,10.39c-4.16,1-10.92,1.55-23.9,1.55a182.35,182.35,0,0,1-24.41-1.55ZM1117,154.77h120v2.59H1117Zm0,10.38h120v2.6H1117Zm0,10.39h120v2.6H1117ZM1150.79,269h54l-2.6,2.6H1145.6Zm19.74-10.39h42.07l-2.08,2.6h-44.15ZM1182,248.25h36.36l-2.08,2.59h-36.87Zm8.83-10.39H1223l-1.56,2.6h-33.24Zm5.71-10.39h31.16l-1.55,2.6h-31.68Zm4.16-10.38h29.6l-1,2.59h-29.6Zm3.63-10.39h28.57l-1,2.6h-28Zm2.08-10.39h28.05l-.52,2.6h-28.57Zm1-10.38h28v2.59h-28.57Z"/><path class="cls-1" d="M1296.69,10.38h80.5l121,184.89V10.38H1574V322h-79.46L1373,137.11V322h-76.34Zm57.13,297.07V87.77h7.79l144.9,219.68h48.29V24.93h-37.39V242h-9.35L1365.24,24.93H1315.9V307.45ZM1329.41,30.64h32.72l2.08,2.6H1331ZM1336.68,41h32.2l2.07,2.59h-32.71Zm6.75,10.38h32.2l2.08,2.6H1345Zm7.27,10.39h31.68l2.08,2.6h-32.2Zm6.75,10.39h31.68l2.08,2.59H1359Zm7.27,10.38h31.17l2.07,2.6h-31.68ZM1371.48,93h31.68l2.07,2.6H1373Zm6.75,10.39h31.67L1412,106h-32.19Zm7.27,10.39h31.16l2.08,2.59h-31.68Zm6.75,10.38h31.16l2.07,2.6h-31.67Zm6.75,10.39h31.16l2.08,2.6h-31.68Zm6.75,10.39h31.68l2.08,2.59h-32.2Zm6.75,10.38h31.69l2.07,2.6h-32.2Zm6.76,10.39h31.67l2.08,2.6h-32.19Zm7.27,10.39h31.16l2.08,2.59h-31.69Zm6.74,10.38h31.17l2.07,2.6h-31.67Zm6.76,10.39h31.16l2.08,2.6h-31.68Zm6.75,10.39h31.68l2.08,2.59h-32.2Zm38.43,10.38,2.08,2.6h-32.2l-1.56-2.6ZM1492,228l2.08,2.6h-31.68l-1.56-2.6Zm6.76,10.39,2.07,2.59h-31.68l-1.55-2.59Zm7.79,10.38,2.07,2.6h-32.71l-1.57-2.6Zm7.26,10.39,2.6,2.6h-33.76l-1.55-2.6Zm7.79,10.39,2.6,2.59h-34.79l-1.56-2.59Zm7.79,10.39,2.08,2.59h-35.31l-1.56-2.59Zm7.79,10.38,2.6,2.6h-36.35l-1.56-2.6Zm7.28,9.35,2.59,2.6H1509.1l-1.56-2.6Z"/></svg>