<?xml version="1.0" encoding="UTF-8"?><svg id="Layer_1" xmlns="http://www.w3.org/2000/svg" viewBox="0 0 2114.52 331.31"><defs><style>.cls-1{fill:#eadc64;}</style></defs><path class="cls-1" d="M0,10.35H129.94c63.67,0,100.94,47.11,100.94,99.39,0,57.98-43.49,99.39-100.94,99.39h-54.36v111.82H0V10.35ZM56.43,306.46v-111.81h74.55c47.11,0,80.76-36.75,80.76-86.45,0-44.52-29-83.34-80.76-83.34H19.15V306.46H56.43Zm0-246.93H124.76c29.51,0,46.08,22.78,46.08,49.18,0,28.47-16.57,49.69-46.08,49.69H56.43V59.53Zm.52-28.99h77.65c5.69,.52,12.95,1.55,18.12,2.59H56.95v-2.59Zm0,10.36h113.37l3.62,2.58H56.95v-2.58Zm0,10.35h126.83l2.59,2.59H56.95v-2.59Zm0,113.89H186.37l-2.59,2.59H56.95v-2.59Zm0,10.36h117.51l-4.66,2.58H56.95v-2.58Zm0,10.35h97.32c-4.14,1.04-9.32,2.07-13.46,2.59H56.95v-2.59Zm65.74-41.93c19.67,0,30.55-18.12,30.55-36.24,0-17.08-10.36-32.61-30.55-32.61h-47.11v68.85h47.11Zm31.58,10.87h39.34l-2.07,2.59h-41.42l4.14-2.59Zm-1.03-93.18h39.34l2.07,2.59h-37.79l-3.62-2.59Zm11.91,82.83h34.16l-1.55,2.58h-34.68l2.07-2.58Zm-1.04-72.48h34.17l1.03,2.58h-33.65l-1.55-2.58Zm7.25,62.12h31.58l-1.03,2.59h-32.1l1.55-2.59Zm-1.03-51.77h32.09l1.04,2.59h-31.58l-1.55-2.59Zm3.62,10.36h31.06v2.59h-30.03l-1.03-2.59Zm.52,31.06h31.06l-1.04,2.59h-30.54l.52-2.59Zm1.55-10.35h30.54l-.51,1.55v1.03h-30.55l.52-2.58Zm0-10.36h30.03v2.59h-30.03v-2.59Z"/><path class="cls-1" d="M263.99,10.35h129.94c66.77,0,110.26,40.38,110.26,98.88,0,54.35-27.44,84.9-73.51,96.28l83.86,115.44h-95.25l-79.21-115.96v115.96h-76.1V10.35Zm56.95,296.11v-111.29h34.17l76.09,111.29h51.25l-77.65-107.16v-4.65c52.8-6.21,80.24-32.61,80.24-82.31,0-53.32-39.34-87.49-91.11-87.49h-110.79V306.46h37.79Zm0-245.89h78.17c31.58,0,49.69,24.85,49.69,48.66,0,27.44-19.15,50.21-47.62,50.21h-80.24V60.57Zm.52-30.03h72.48l24.33,2.59h-96.8v-2.59Zm0,10.36h116.47l4.14,2.58h-120.62v-2.58Zm0,10.35h132l2.59,2.59h-134.6v-2.59Zm0,113.89h139.77l-2.59,2.59h-137.18v-2.59Zm0,10.36h126.31l-4.66,2.58h-121.65v-2.58Zm0,10.35h100.94l-13.46,2.59h-87.49v-2.59Zm79.72-40.9c17.08,0,28.47-17.6,28.47-35.71s-13.46-34.17-30.54-34.17h-59.02v69.88h61.09Zm-39.34,51.25h36.75v2.59h-35.2l-1.55-2.59Zm6.73,10.36h34.16l2.59,2.58h-35.2l-1.55-2.58Zm7.25,10.35h34.68l2.07,2.59h-35.2l-1.55-2.59Zm6.73,10.36h35.2l2.59,2.59h-36.23l-1.56-2.59Zm42.97,10.36l2.07,2.58h-36.23l-1.55-2.58h35.71Zm7.25,10.35l2.58,2.59h-37.27l-1.55-2.59h36.24Zm7.76,10.36l2.07,2.59h-37.27l-1.55-2.59h36.75Zm7.25,10.36l2.59,2.58h-37.79l-1.55-2.58h36.75Zm7.76,10.36l2.07,2.58h-37.79l-1.55-2.58h37.27Zm7.76-217.43l2.07,2.59h-36.23l-5.7-2.59h39.86Zm-.52,227.78l2.59,2.59h-38.31l-1.56-2.59h37.27Zm-31.06-134.6h37.79l-2.07,2.59h-39.86l4.14-2.59Zm38.82,144.95l1.55,2.59h-37.79l-1.55-2.59h37.79Zm-.51-227.78l1.03,2.58h-28.99l-3.62-2.58h31.58Zm-27.44,72.48h32.09l-1.55,2.58h-33.13l2.59-2.58Zm3.62-62.13h28.47l1.04,2.59h-27.96l-1.55-2.59Zm2.58,51.77h29l-1.04,2.59h-29.51l1.55-2.59Zm2.59-41.42h26.41v2.59h-24.85l-1.55-2.59Zm.52,31.06h26.92v2.59h-27.44l.52-2.59Zm1.55-20.7h25.89v2.59h-25.89v-2.59Zm.52,10.36h25.88v2.58h-25.88v-2.58Z"/><path class="cls-1" d="M696.22,0c97.84,0,167.21,72.99,167.21,165.66s-69.37,165.66-167.21,165.66-167.21-73-167.21-165.66S597.86,0,696.22,0Zm0,315.78c85.93,0,148.05-65.75,148.05-150.13S782.16,14.49,696.22,14.49s-148.05,66.78-148.05,151.16,61.6,150.13,148.05,150.13Zm-142.36-161.51h27.96l-.52,2.58h-27.96l.52-2.58Zm-.52,10.35h27.96v2.59h-27.96v-2.59Zm0,10.36h27.96l.52,2.59h-27.96l-.52-2.59Zm1.55-31.06h28.48l-1.04,2.59h-27.95l.51-2.59Zm-.51,41.42h27.95l1.04,2.58h-28.48l-.51-2.58Zm2.07-51.77h28.99l-1.04,2.59h-28.47l.52-2.59Zm-.52,62.12h28.47l1.04,2.59h-28.48l-1.03-2.59Zm3.1-72.48h29.51l-1.03,2.59h-28.99l.51-2.59Zm3.11-10.35h31.06l-1.55,2.58h-30.03l.52-2.58Zm4.14-10.36h32.61l-2.07,2.59h-31.58l1.04-2.59Zm5.17-10.36h35.2l-2.07,2.59h-34.68l1.55-2.59Zm6.73-10.35h38.31l-3.11,2.58h-37.27l2.07-2.58Zm7.25-10.36h43.48l-3.62,2.59h-41.93l2.07-2.59Zm110.78-13.98c66.26,0,109.75,47.63,109.75,108.2s-43.49,109.74-109.75,109.74-109.75-49.17-109.75-109.74,42.97-108.2,109.75-108.2Zm-100.94,3.62h54.35l-6.73,2.59h-50.21l2.59-2.59Zm11.91-10.35h178.59l2.59,2.58h-71.44l-20.7-1.55-19.15,1.55h-74.03l4.14-2.58Zm89.04,208.62c54.87,0,90.08-41.42,90.08-93.7s-35.2-93.7-90.08-93.7-90.08,41.42-90.08,93.7,34.68,93.7,90.08,93.7Zm-74.03-218.98h148.05l3.1,2.59h-155.3l4.14-2.59Zm21.22-10.36h105.61l6.73,2.59h-119.07l6.73-2.59Zm52.8-9.84l27.44,2.07h-52.8l25.37-2.07Zm100.94,40.9l-.52-.51,3.11,3.1h-50.21l-5.7-2.59h53.32Zm8.8,10.36l2.58,2.59h-41.42l-3.62-2.59h42.45Zm7.76,10.36l2.07,2.58h-36.76l-3.1-2.58h37.79Zm6.21,10.35l1.56,2.59h-33.65l-2.59-2.59h34.68Zm-26.92,10.36h32.1l1.03,2.59h-31.58l-1.55-2.59Zm5.69,10.36h30.55l1.03,2.58h-30.03l-1.55-2.58Zm4.66,10.35h29.51l1.03,2.59h-28.99l-1.55-2.59Zm3.1,10.36h28.99l1.04,2.59h-28.99l-1.04-2.59Zm1.04,62.12h28.47l-.52,2.59h-28.99l1.04-2.59Zm1.55-51.76h28.47l.52,2.59h-28.47l-.52-2.59Zm.52,41.42h28.47l-1.03,2.58h-27.96l.52-2.58Zm1.03-10.36h27.96v2.59h-28.48l.52-2.59Zm0-20.7h27.96v2.58h-27.96v-2.58Zm.52,10.35h27.96v2.59h-27.96v-2.59Z"/><path class="cls-1" d="M944.16,224.67c3.62,22.26,12.43,36.24,36.75,36.24s40.38-10.36,40.38-48.14V10.35h75.07V226.22c0,65.22-51.25,105.09-111.82,105.09-64.71,0-113.88-38.82-113.88-104.06l73.51-2.59Zm40.38,92.15c50.21,0,92.67-34.16,92.67-90.59V24.85h-36.75V212.77c0,35.71-16.05,62.63-59.54,62.63-24.85,0-40.9-8.8-50.73-35.71l-39.86,1.55c5.69,47.62,44.52,75.58,94.21,75.58Zm-88.52-69.37h31.06l1.03,2.58h-31.06l-1.03-2.58Zm3.1,10.35h33.13l2.07,2.59h-34.68l-.52-2.59Zm4.14,10.36h37.79l-.52-.52,4.14,3.11h-39.86l-1.55-2.59Zm6.73,10.36h49.7l21.22,1.55,21.74-1.55h52.28l-2.07,2.58h-141.32l-1.56-2.58Zm135.63,10.35l-3.11,2.59h-120.1l-3.1-2.59h126.31Zm-14.5,10.36l-4.65,2.59h-86.97l-5.17-2.59h96.8Zm-28.47,10.36l-18.12,2.59-21.74-2.59h39.86Zm21.22-41.42h37.79l-1.56,2.59h-39.34l3.1-2.59Zm9.84-10.36h32.61l-1.03,2.59h-34.17l2.59-2.59Zm5.17-10.35h30.55l-1.04,2.58h-30.54l1.03-2.58Zm3.62-10.36h29l-1.04,2.59h-28.47l.51-2.59Zm2.07-10.36h27.44v2.59h-27.95l.51-2.59Zm1.04-10.35h26.4v2.58h-26.92l.52-2.58Zm0-82.83h26.4v2.59h-26.4v-2.59Zm0,10.36h26.4v2.59h-26.4v-2.59Zm0,10.36h26.4v2.58h-26.4v-2.58Zm0,10.35h26.4v2.59h-26.4v-2.59Zm0,10.36h26.4v2.59h-26.4v-2.59Zm0,10.36h26.4v2.58h-26.4v-2.58Zm0,10.35h26.4v2.59h-26.4v-2.59Zm0,10.36h26.4v2.59h-26.4v-2.59Z"/><path class="cls-1" d="M1130.49,10.35h205.52V77.65h-129.42v55.91h119.59v66.26h-119.59v55.91h135.12v65.23h-211.21V10.35Zm192.06,296.11v-36.23h-135.12v-84.9h119.59v-37.27h-119.59V63.15h129.42V24.85h-167.21V306.46h172.91Zm-163.58-8.8h158.4v2.59h-160.99l2.59-2.59Zm-2.07-265.57h154.78v2.59h-152.2l-2.58-2.59Zm10.35,10.36h144.43v2.59h-141.84l-2.59-2.59Zm2.59,244.86h147.53v2.59h-150.13l2.59-2.59Zm7.76-234.5h134.08v2.58h-131.49l-2.59-2.58Zm3.1,224.15h136.67v2.58h-139.77l3.1-2.58Zm6.73-122.18h114.4v2.59h-114.4v-2.59Zm0,10.36h114.4v2.59h-114.4v-2.59Zm0,10.36h114.4v2.58h-114.4v-2.58Z"/><path class="cls-1" d="M1534.25,0c59.02,0,99.91,22.26,133.04,56.94l-52.28,49.7c-21.74-21.22-49.7-34.68-80.76-34.68-55.39,0-91.11,41.42-91.11,93.7s35.72,93.7,91.11,93.7c31.06,0,59.02-13.46,80.76-34.69l50.73,49.7c-31.06,32.61-74.03,56.95-131.49,56.95-98.35,0-168.24-73-168.24-165.66S1435.9,0,1534.25,0Zm0,316.81c45.56,0,79.72-14.49,108.72-41.42l-29.51-30.02c-18.64,16.56-48.15,28.47-79.21,28.47-66.77,0-110.78-47.62-110.78-108.19s44.01-108.2,110.78-108.2c29.51,0,57.98,10.88,80.24,27.96l29.51-28.48c-27.44-27.95-63.16-42.45-109.75-42.45-86.45,0-149.09,66.78-149.09,151.16s62.64,151.16,149.09,151.16Zm-143.39-162.55h27.96l-.52,2.58h-27.96l.52-2.58Zm-.52,10.35h27.96v2.59h-27.96v-2.59Zm0,10.36h27.96l.52,2.59h-27.96l-.52-2.59Zm1.55-31.06h28.48l-1.04,2.59h-27.95l.51-2.59Zm-.51,41.42h27.95l1.04,2.58h-28.48l-.51-2.58Zm2.07-51.77h28.99l-1.04,2.59h-28.47l.52-2.59Zm-.52,62.12h28.47l1.04,2.59h-28.48l-1.03-2.59Zm3.1-72.48h29.51l-1.03,2.59h-28.99l.51-2.59Zm-.51,82.83h28.99l1.03,2.59h-29.51l-.51-2.59Zm3.62-93.18h31.06l-1.55,2.58h-30.03l.52-2.58Zm-.52,103.54h30.03l1.55,2.58h-31.06l-.52-2.58Zm4.66-113.89h32.61l-2.07,2.59h-31.58l1.04-2.59Zm-1.04,124.24h32.1l2.07,2.59h-32.62l-1.55-2.59Zm6.21-134.6h35.2l-2.07,2.59h-34.68l1.55-2.59Zm-1.04,144.95h34.17l2.59,2.59h-35.2l-1.56-2.59Zm7.76-155.3h38.31l-3.11,2.58h-37.27l2.07-2.58Zm-1.55,165.66h37.27l2.59,2.58h-38.31l-1.55-2.58Zm8.8-176.01h43.48l-3.62,2.59h-41.93l2.07-2.59Zm-1.04,186.36h41.42l3.1,2.59h-42.97l-1.55-2.59Zm10.88-196.72h54.35l-6.73,2.59h-50.21l2.59-2.59Zm48.66,207.07l5.17,2.59h-53.32l-2.58-2.59h50.73Zm-36.75-217.42h90.07v1.03l-20.18,1.55h-74.03l4.14-2.58Zm72.99,227.78c5.17,0,12.43,.52,17.08,1.03v1.55h-89.04l-3.1-2.58h75.06Zm-57.98-238.13h75.06v2.59h-79.2l4.14-2.59Zm75.06,248.48v2.59h-74.03l-3.62-2.59h77.65Zm-53.84-258.84h53.84v2.59h-60.57l6.73-2.59Zm53.84,269.19v2.59h-52.8l-6.73-2.59h59.53Zm0-279.03v2.07h-26.4c8.8-1.55,11.39-2.07,26.4-2.07Zm0,289.38v1.55h-1.03l-23.29-1.55h24.33Z"/><path class="cls-1" d="M1743.89,77.65h-69.88V10.35h216.39V77.65h-70.4v243.31h-76.1V77.65Zm56.95,228.81V63.15h70.4V24.85h-178.08V63.15h69.88v243.31h37.79Zm-102.5-273.85h167.73v2.59h-167.73v-2.59Zm0,10.36h167.73v2.58h-167.73v-2.58Zm0,10.35h167.73v2.59h-167.73v-2.59Z"/><path class="cls-1" d="M1977.34,229.85c0,18.11,14.5,32.61,32.1,32.61,19.15,0,31.06-10.87,31.06-26.92,0-23.29-30.55-30.03-55.91-38.82-52.28-18.64-81.27-42.97-81.27-96.29S1950.42,0,2008.92,0c68.85,0,101.46,44,105.61,101.46h-71.44c0-17.6-10.87-32.1-32.09-32.1-16.57,0-32.61,9.84-32.61,30.03,0,23.29,28.47,27.44,54.87,35.2,55.39,16.56,81.28,47.62,81.28,96.28,0,54.87-46.59,100.43-105.09,100.43-67.82,0-106.13-45.56-106.13-101.46h74.03Zm32.1,86.97c48.14,0,87.49-38.82,87.49-85.93,0-52.28-31.06-71.44-78.69-84.9-30.54-8.8-56.95-16.05-56.95-46.59,0-26.92,20.19-44.52,48.15-44.52,32.09,0,42.97,19.15,47.62,32.09h38.82c-3.1-30.54-25.88-72.48-86.45-72.48-48.15,0-88.53,38.82-88.53,85.93,0,38.31,14.5,62.64,71.44,82.83,29.51,10.87,65.23,18.63,65.23,52.28,0,27.44-23.81,41.42-48.14,41.42-26.41-.52-42.97-15.53-47.63-32.62h-40.38c1.03,38.82,38.82,72.48,88.01,72.48Zm-83.35-222.08h30.03v2.59h-30.03v-2.59Zm0,10.36h30.03l.52,2.58h-30.55v-2.58Zm2.07-21.22h30.03l-1.04,3.1h-30.02l1.03-3.1Zm-1.03,32.09h31.06l1.03,2.59h-31.57l-.52-2.59Zm2.59,10.36h34.68l-.52-.52,3.1,3.11h-36.75l-.51-2.59Zm1.03-52.8h31.58l-1.55,2.59h-30.55l.52-2.59Zm5.17-10.87h35.72l-3.62,3.1h-33.65l1.55-3.1Zm-1.03,74.54h41.93l4.14,2.59h-44.52l-1.55-2.59Zm7.76-84.9h45.55l-5.69,2.59h-41.93l2.07-2.59Zm.52,95.25h59.53l9.84,2.59h-66.78l-2.58-2.59Zm9.32-105.61h56.95v2.59h-60.06l3.11-2.59Zm2.58,115.96h81.28l7.76,3.1h-83.34l-5.7-3.1Zm12.95-126.83h41.42v2.58h-45.56l4.14-2.58Zm90.59,137.7l3.11,2.59h-82.31l-4.14-2.59h83.34Zm-60.05-148.05h10.88v2.59h-23.29l12.42-2.59Zm74.03,158.41l2.59,3.1h-70.92l-7.76-3.1h76.1Zm-63.15,106.12h59.01l-2.58,2.59h-56.43v-2.59Zm0,10.36h46.59l-3.62,2.59h-42.97v-2.59Zm0,10.87h26.4l-9.84,2.59h-16.56v-2.59Zm71.96-116.47l1.03,2.59h-50.21l-5.69-2.59h54.87Zm-40.38,84.38h36.76l-1.56,2.07-.51,1.03h-40.9l6.21-3.1Zm45.04-74.03l1.04,2.59h-37.79l-3.1-2.59h39.86Zm-33.13,63.67h30.55l-1.56,2.59h-31.57l2.58-2.59Zm2.59-52.8h34.16l1.04,2.59h-33.65l-1.55-2.59Zm4.14,41.94h28.47l-1.03,3.1h-28.99l1.55-3.1Zm1.03-31.58h30.55v2.59h-30.03l-.52-2.59Zm1.56,21.22h28.47l-.52,2.59h-28.47l.52-2.59Zm.51-10.36h28.99l-.51,2.59h-28.48v-2.59Z"/></svg>