<?xml version="1.0" encoding="UTF-8"?><svg id="Layer_1" xmlns="http://www.w3.org/2000/svg" viewBox="0 0 1231.29 593.34"><defs><style>.cls-1{fill:#2bc757;}</style></defs><g><path class="cls-1" d="M8.14,11.18H84.69l85.5,181.06L256.25,11.18h75.44V346.47h-81.59V197.27l-73.2,160.38h-13.41L90.28,196.15v150.32H8.14V11.18Zm61.47,319.64V126.85h9.5l91.09,196.7,92.76-196.7h7.83v203.97h40.24V26.83h-40.8l-92.2,196.14h-15.65L70.72,26.83H28.81V330.82h40.79ZM37.19,32.97h29.62l1.12,2.79h-29.06l-1.67-2.79Zm5.59,11.17h29.06l1.12,2.8h-28.5l-1.67-2.8Zm5.59,11.18h29.06l1.12,2.79h-28.5l-1.68-2.79Zm5.59,11.17h28.5l1.12,2.8h-27.94l-1.67-2.8Zm5.59,11.18h28.5l1.11,2.79h-27.94l-1.67-2.79Zm6.15,11.17h27.38l1.12,2.79h-26.83l-1.67-2.79Zm5.59,11.17h26.83l1.12,2.8h-26.26l-1.68-2.8Zm5.59,11.18h26.26l1.12,2.79h-25.7l-1.68-2.79Zm5.59,11.17h25.7l1.68,2.79h-25.71l-1.67-2.79Zm5.59,11.17h25.7l1.12,2.8h-25.15l-1.67-2.8Zm5.59,11.18h25.15l1.68,2.79h-25.15l-1.68-2.79Zm5.03,11.17h25.71l1.12,2.79h-25.15l-1.68-2.79Zm5.03,11.18h25.7l1.12,2.79h-25.15l-1.67-2.79Zm5.03,11.17h25.7l1.12,2.79h-25.15l-1.67-2.79Zm5.59,11.17h25.7l1.12,2.8h-25.15l-1.67-2.8Zm5.03,11.18h25.7l1.12,2.79h-25.15l-1.67-2.79Zm5.03,11.17h26.26l1.12,2.79h-25.71l-1.67-2.79Zm5.59,11.17h25.15l1.67,2.8h-25.15l-1.67-2.8Zm5.03,11.18h25.7l1.68,2.79h-25.71l-1.67-2.79Zm5.03,11.17h26.26l1.68,2.8h-26.26l-1.68-2.8Zm31.85,11.18l1.67,2.79h-26.82l-1.68-2.79h26.83Zm5.59,11.17l1.67,2.79h-27.38l-1.67-2.79h27.38Zm5.03,11.17l1.67,1.68-1.12,1.67h-25.7l-1.68-3.35h26.83Zm-2.8,11.18l-1.67,2.79h-15.65l-1.68-2.79h19Zm-5.03,11.17l-1.67,2.79h-5.59l-1.67-2.79h8.94Zm-2.24,10.06l-2.24,2.8-2.23-2.8h4.47ZM276.37,32.97h29.06v2.79h-29.06v-2.79Zm0,11.17h29.06v2.8h-29.06v-2.8Zm0,11.18h29.06v2.79h-29.06v-2.79Zm0,11.17h29.06v2.8h-29.06v-2.8Zm0,11.18h29.06v2.79h-29.06v-2.79Zm0,11.17h29.06v2.79h-29.06v-2.79Zm0,11.17h29.06v2.8h-29.06v-2.8Zm0,11.18h29.06v2.79h-29.06v-2.79Zm0,11.17h29.06v2.79h-29.06v-2.79Zm0,11.17h29.06v2.8h-29.06v-2.8Zm0,11.18h29.06v2.79h-29.06v-2.79Zm0,11.17h29.06v2.79h-29.06v-2.79Zm0,11.18h29.06v2.79h-29.06v-2.79Zm0,11.17h29.06v2.79h-29.06v-2.79Zm0,11.17h29.06v2.8h-29.06v-2.8Zm0,11.18h29.06v2.79h-29.06v-2.79Zm0,11.17h29.06v2.79h-29.06v-2.79Zm0,11.17h29.06v2.8h-29.06v-2.8Zm0,11.18h29.06v2.79h-29.06v-2.79Zm0,11.17h29.06v2.8h-29.06v-2.8Zm0,11.18h29.06v2.79h-29.06v-2.79Zm0,11.17h29.06v2.79h-29.06v-2.79Zm0,11.17h29.06v2.8h-29.06v-2.8Zm0,11.18h29.06v2.79h-29.06v-2.79Zm0,11.17h29.06v2.79h-29.06v-2.79Zm0,11.17h29.06v2.8h-29.06v-2.8Zm0,11.18h29.06v2.24h-29.06v-2.24Z"/><path class="cls-1" d="M513.83,0h14.53l164.29,346.47h-88.29l-16.76-34.65h-132.44l-16.2,34.65h-88.29L513.83,0Zm-89.97,330.82l93.88-202.29h7.82l92.76,202.29h45.26L521.09,30.18l-141.38,300.64h44.15Zm-7.26-66.5h30.74l-1.68,2.79h-30.74l1.68-2.79Zm5.03-11.17h30.74l-1.68,2.79h-30.18l1.12-2.79Zm5.59-11.18h30.18l-1.67,2.8h-30.18l1.68-2.8Zm5.03-11.17h30.18l-1.67,2.79h-29.62l1.12-2.79Zm5.59-11.17h30.18l-1.67,2.79h-30.18l1.68-2.79Zm5.03-11.18h30.18l-1.67,2.8h-29.62l1.12-2.8Zm5.03-11.17h30.18l-1.67,2.79h-29.62l1.12-2.79Zm5.59-11.18h30.18l-1.67,2.8h-30.18l1.68-2.8Zm5.03-11.17h30.18l-1.67,2.79h-29.62l1.12-2.79Zm122.38,121.82l-12.85-27.94h-94.44l-12.3,27.94h119.59Zm-116.79-133h30.18l-1.67,2.79h-30.18l1.68-2.79Zm5.03-11.18h30.18l-1.67,2.8h-29.62l1.12-2.8Zm5.59-11.17h30.18l-1.68,2.79h-30.18l1.68-2.79Zm0,145.29h90.53l1.11,2.79h-92.76l1.12-2.79Zm5.03-156.47h30.18l-1.67,2.79h-29.62l1.12-2.79Zm0,145.29h81.03l1.67,2.8h-83.82l1.12-2.8Zm79.35-22.91l-38-84.38h-1.11l-38.56,84.38h77.68Zm-73.76-133.56h70.97l1.67,2.8h-74.32l1.67-2.8Zm5.03-11.17h60.91l1.12,2.79h-63.15l1.12-2.79Zm5.03-11.18h50.29l1.67,2.8h-53.09l1.12-2.8Zm5.59-11.17h39.68l1.12,2.79h-42.47l1.68-2.79Zm5.03-11.17h29.06l1.68,2.79h-31.85l1.12-2.79Zm5.59-11.18h18.44l1.12,2.8h-21.24l1.67-2.8Zm5.03-11.17h7.82l1.68,2.79h-10.62l1.12-2.79Zm4.47-9.5l1.12,2.24h-2.23l1.11-2.24Zm11.74,87.74h29.06l1.12,2.79h-28.5l-1.68-2.79Zm5.03,11.17h29.06l1.67,2.79h-29.06l-1.67-2.79Zm5.03,11.17h29.62l1.12,2.8h-29.06l-1.67-2.8Zm5.03,11.18h29.62l1.67,2.79h-29.62l-1.67-2.79Zm5.03,11.17h30.18l1.12,2.79h-29.61l-1.68-2.79Zm5.03,11.17h30.18l1.67,2.8h-30.18l-1.68-2.8Zm5.03,11.18h30.73l1.12,2.79h-30.18l-1.67-2.79Zm5.03,11.17h30.74l1.67,2.8h-30.74l-1.67-2.8Zm36.32,11.18l1.12,2.79h-30.74l-1.67-2.79h31.29Zm5.03,11.17l1.67,2.79h-31.85l-1.67-2.79h31.85Zm5.59,11.17l1.12,2.8h-31.85l-1.67-2.8h32.41Zm5.03,11.18l1.68,2.79h-32.41l-1.68-2.79h32.41Zm5.59,11.17l1.12,2.79h-32.97l-1.67-2.79h33.53Z"/><path class="cls-1" d="M711.62,11.18h82.15V160.94h1.12L891.56,11.18h90.53l-115.11,159.26,121.26,176.03h-90.53l-102.83-162.61h-1.12v162.61h-82.15V11.18Zm61.47,319.64V26.83h-40.79V330.82h40.79Zm137.47,0h45.83l-109.53-160.94L949.12,26.83h-44.15l-97.24,144.73,102.82,159.26Zm-93.32-164.29h24.03l-2.24,2.79h-24.03l2.24-2.79Zm1.67,11.17h25.71l2.24,2.8h-26.26l-1.68-2.8Zm6.15-22.35h25.7l-2.24,2.79h-25.7l2.24-2.79Zm1.12,33.53h26.26l1.67,2.24h-26.82l-1.12-2.24Zm6.15-44.71h26.82l-2.24,2.8h-26.82l2.24-2.8Zm.56,55.33h26.26l2.24,2.79h-26.82l-1.68-2.79Zm7.26-66.5h26.83l-2.24,2.79h-26.83l2.24-2.79Zm0,77.68h26.83l2.24,2.79h-27.38l-1.68-2.79Zm7.26-88.85h27.38l-2.23,2.79h-27.38l2.23-2.79Zm0,100.03h26.83l2.24,2.8h-27.38l-1.68-2.8Zm7.83-111.2h27.38l-2.24,2.8h-27.38l2.24-2.8Zm-.56,122.38h27.38l2.24,2.79h-27.94l-1.68-2.79Zm7.83-133.56h27.94l-2.23,2.79h-27.94l2.24-2.79Zm26.83,144.73l2.23,2.8h-27.94l-1.67-2.8h27.38Zm-19-155.91h27.94l-2.24,2.8h-27.94l2.24-2.8Zm26.82,167.09l2.24,2.79h-28.5l-1.67-2.79h27.94Zm-19.56-178.26h28.5l-2.24,2.79h-28.5l2.24-2.79Zm26.82,189.44l2.24,2.79h-29.06l-1.68-2.79h28.5Zm-19.56-200.06h29.06l-2.24,2.8h-29.06l2.24-2.8Zm27.38,211.23l2.24,2.8h-29.62l-1.68-2.8h29.06Zm-20.12-222.41h29.62l-2.24,2.79h-29.62l2.24-2.79Zm27.38,233.59l2.79,2.79h-30.18l-1.68-2.79h29.06Zm-19.56-244.77h29.62l-2.24,2.8h-29.61l2.23-2.8Zm27.38,255.94l2.8,2.79h-30.74l-1.67-2.79h29.61Zm7.83,10.62l2.24,2.79h-31.29l-1.68-2.79h30.74Zm-27.94-277.73h30.18l-2.24,2.79h-30.18l2.24-2.79Zm35.2,288.91l2.79,2.8h-31.85l-1.68-2.8h30.74Z"/><path class="cls-1" d="M1003.29,11.18h221.85V83.83h-139.71v60.35h129.09v71.53h-129.09v60.35h145.85v70.41h-228V11.18Zm207.32,319.64v-39.12h-145.85v-91.65h129.09v-40.24h-129.09V68.18h139.7V26.83h-180.5V330.82h186.64Zm-176.59-9.5h171v2.79h-173.79l2.79-2.79Zm-2.24-286.68h167.09v2.8h-164.29l-2.8-2.8Zm11.18,11.18h155.91v2.79h-153.12l-2.79-2.79Zm2.79,264.32h159.26v2.79h-162.06l2.79-2.79Zm8.38-253.15h144.74v2.8h-141.94l-2.8-2.8Zm3.35,241.97h147.53v2.79h-150.88l3.35-2.79Zm7.26-131.88h123.5v2.79h-123.5v-2.79Zm0,11.17h123.5v2.79h-123.5v-2.79Zm0,11.17h123.5v2.8h-123.5v-2.8Z"/></g><g><path class="cls-1" d="M50.43,524.7c0,12.34,9.87,22.22,21.86,22.22,13.05,0,21.16-7.41,21.16-18.34,0-15.87-20.81-20.45-38.08-26.45C19.75,489.44,0,472.87,0,436.54s32.09-68.41,71.94-68.41c46.9,0,69.12,29.97,71.94,69.12h-48.66c0-11.99-7.41-21.86-21.86-21.86-11.28,0-22.22,6.7-22.22,20.45,0,15.87,19.4,18.69,37.38,23.98,37.73,11.28,55.36,32.44,55.36,65.59,0,37.38-31.74,68.41-71.59,68.41-46.2,0-72.29-31.03-72.29-69.12H50.43Zm21.86,59.24c32.8,0,59.6-26.45,59.6-58.54,0-35.62-21.16-48.66-53.6-57.83-20.81-5.99-38.79-10.93-38.79-31.74,0-18.34,13.75-30.33,32.8-30.33,21.86,0,29.27,13.05,32.44,21.86h26.45c-2.12-20.81-17.63-49.37-58.89-49.37-32.8,0-60.3,26.45-60.3,58.54,0,26.09,9.87,42.67,48.66,56.42,20.1,7.41,44.43,12.7,44.43,35.62,0,18.69-16.22,28.21-32.8,28.21-17.98-.35-29.27-10.58-32.44-22.22H12.34c.71,26.45,26.45,49.37,59.95,49.37ZM15.52,432.66h20.45v1.76H15.52v-1.76Zm0,7.05h20.45l.35,1.76H15.52v-1.76Zm1.41-14.46h20.45l-.71,2.12H16.22l.7-2.12Zm-.7,21.86h21.16l.7,1.76H16.57l-.35-1.76Zm1.76,7.05h23.63l-.35-.35,2.12,2.12H18.34l-.35-1.76Zm.7-35.97h21.51l-1.06,1.76H18.34l.35-1.76Zm3.53-7.41h24.33l-2.47,2.12H21.16l1.06-2.12Zm-.71,50.78h28.56l2.82,1.76H22.57l-1.06-1.76Zm5.29-57.83h31.03l-3.88,1.76H25.39l1.41-1.76Zm.35,64.89h40.55l6.7,1.76H28.92l-1.76-1.76Zm6.35-71.94h38.79v1.76H31.39l2.12-1.76Zm1.76,78.99h55.36l5.29,2.12H39.14l-3.88-2.12Zm8.82-86.4h28.21v1.76h-31.03l2.82-1.76Zm61.71,93.8l2.12,1.76H51.84l-2.82-1.76h56.77Zm-40.91-100.86h7.41v1.76h-15.87l8.46-1.76Zm50.43,107.91l1.76,2.12h-48.31l-5.29-2.12h51.84Zm-43.02,72.29h40.2l-1.76,1.76h-38.44v-1.76Zm0,7.05h31.74l-2.47,1.76h-29.27v-1.76Zm0,7.41h17.98l-6.7,1.76h-11.28v-1.76Zm49.02-79.34l.7,1.76h-34.21l-3.88-1.76h37.38Zm-27.51,57.48h25.04l-1.06,1.41-.35,.71h-27.86l4.23-2.12Zm30.68-50.43l.7,1.76h-25.74l-2.12-1.76h27.15Zm-22.57,43.37h20.81l-1.06,1.76h-21.51l1.76-1.76Zm1.76-35.97h23.27l.71,1.76h-22.92l-1.06-1.76Zm2.82,28.56h19.4l-.71,2.12h-19.75l1.06-2.12Zm.7-21.51h20.81v1.76h-20.45l-.35-1.76Zm1.06,14.46h19.4l-.35,1.76h-19.4l.35-1.76Zm.35-7.05h19.75l-.35,1.76h-19.4v-1.76Z"/><path class="cls-1" d="M202.42,421.03h-47.61v-45.84h147.4v45.84h-47.96v165.74h-51.84v-165.74Zm38.79,155.87v-165.74h47.96v-26.1h-121.31v26.1h47.61v165.74h25.74Zm-69.82-186.55h114.26v1.76h-114.26v-1.76Zm0,7.05h114.26v1.76h-114.26v-1.76Zm0,7.05h114.26v1.76h-114.26v-1.76Z"/><path class="cls-1" d="M315.62,375.18h51.49v132.59c0,28.21,13.4,38.09,31.38,38.09,19.75,0,32.09-9.87,32.09-38.09v-132.59h51.84v140.35c0,50.08-37.38,78.29-83.93,78.29s-82.87-29.62-82.87-78.29v-140.35Zm82.87,208.76c39.14,0,70.88-24.69,70.88-68.41v-130.48h-25.74v122.72c0,35.62-17.28,47.96-45.14,47.96-25.39,0-44.43-12.34-44.43-47.96v-122.72h-25.39v130.48c0,42.67,29.27,68.41,69.82,68.41Zm-66.3-120.6h18.34v1.76h-18.34v-1.76Zm0,7.05h18.34v1.76h-18.34v-1.76Zm0,7.05h18.34v1.76h-18.34v-1.76Zm0,7.05h18.34v1.76h-18.34v-1.76Zm0,7.05h18.34v1.76h-18.34v-1.76Zm0,7.05h18.34v1.76h-18.34v-1.76Zm0,7.05h18.34v1.76h-18.34v-1.76Zm0,7.05h18.34l.35,1.76h-18.69v-1.76Zm0,7.05h18.69l.71,1.76h-19.4v-1.76Zm.7,7.05h19.4l.71,1.76h-19.75l-.35-1.76Zm1.41,7.05h20.45l.7,1.76h-20.81l-.35-1.76Zm2.12,7.05h21.51l1.76,1.76h-22.92l-.35-1.76Zm3.17,7.05h24.33l2.12,1.76h-25.39l-1.06-1.76Zm34.91,7.05l4.23,1.76h-33.5l-1.41-1.76h30.68Zm73,7.05l-2.12,1.76h-93.45l-1.76-1.76h97.33Zm-9.52,7.05l-2.82,1.76h-73.35l-2.47-1.76h78.64Zm-14.11,7.05l-6.7,1.76h-37.73l-6.35-1.76h50.78Zm0-21.16h29.62l-1.41,1.76h-32.8l4.58-1.76Zm10.23-7.05h23.63l-.7,1.76h-24.69l1.76-1.76Zm5.64-7.05h21.51l-.71,1.76h-22.22l1.41-1.76Zm3.17-7.05h20.81l-.7,1.76h-20.81l.7-1.76Zm2.47-7.05h19.75l-.7,1.76h-19.75l.71-1.76Zm1.06-7.05h19.4l-.35,1.76h-19.4l.35-1.76Zm.35-7.05h19.04v1.76h-19.04v-1.76Zm.35-49.37h18.69v1.76h-18.69v-1.76Zm0,7.05h18.69v1.76h-18.69v-1.76Zm0,7.05h18.69v1.76h-18.69v-1.76Zm0,7.05h18.69v1.76h-18.69v-1.76Zm0,7.05h18.69v1.76h-18.69v-1.76Zm0,7.05h18.69v1.76h-18.69v-1.76Zm0,7.05h18.69v1.76h-18.69v-1.76Z"/><path class="cls-1" d="M505.69,375.18h136.47v45.84h-84.63v45.14h77.93v45.14h-77.93v75.47h-51.84v-211.58Zm38.79,201.71v-75.47h77.93v-25.39h-77.93v-64.89h84.63v-26.1h-110.38v191.84h25.74Zm-20.81-186.9h101.91v1.76h-100.15l-1.76-1.76Zm7.05,7.05h94.86v1.76h-93.1l-1.76-1.76Zm7.05,7.05h87.81v1.76h-86.04l-1.76-1.76Zm6.7,76.52h74.41v1.76h-74.41v-1.76Zm0,7.05h74.41v1.76h-74.41v-1.76Zm0,7.05h74.41v1.76h-74.41v-1.76Z"/><path class="cls-1" d="M653.1,375.18h136.47v45.84h-84.63v45.14h77.93v45.14h-77.93v75.47h-51.84v-211.58Zm38.79,201.71v-75.47h77.93v-25.39h-77.93v-64.89h84.63v-26.1h-110.38v191.84h25.74Zm-20.81-186.9h101.91v1.76h-100.15l-1.76-1.76Zm7.05,7.05h94.86v1.76h-93.1l-1.76-1.76Zm7.05,7.05h87.81v1.76h-86.04l-1.76-1.76Zm6.7,76.52h74.41v1.76h-74.41v-1.76Zm0,7.05h74.41v1.76h-74.41v-1.76Zm0,7.05h74.41v1.76h-74.41v-1.76Z"/></g></svg>