<?xml version="1.0" encoding="UTF-8"?><svg id="Layer_1" xmlns="http://www.w3.org/2000/svg" viewBox="0 0 1231.29 593.34"><defs><style>.cls-1{fill:#c3073f;}</style></defs><g><path class="cls-1" d="M8.14,11.18H84.69l85.5,181.06L256.25,11.18h75.44V346.47h-81.59V197.27l-73.2,160.38h-13.41L90.28,196.15v150.32H8.14V11.18Zm61.47,319.64V126.85h9.5l91.09,196.7,92.76-196.7h7.83v203.97h40.24V26.83h-40.8l-92.2,196.14h-15.65L70.72,26.83H28.81V330.82h40.79ZM37.19,32.97h29.62l1.12,2.79h-29.06l-1.67-2.79Zm5.59,11.17h29.06l1.12,2.8h-28.5l-1.67-2.8Zm5.59,11.18h29.06l1.12,2.79h-28.5l-1.68-2.79Zm5.59,11.17h28.5l1.12,2.8h-27.94l-1.67-2.8Zm5.59,11.18h28.5l1.11,2.79h-27.94l-1.67-2.79Zm6.15,11.17h27.38l1.12,2.79h-26.83l-1.67-2.79Zm5.59,11.17h26.83l1.12,2.8h-26.26l-1.68-2.8Zm5.59,11.18h26.26l1.12,2.79h-25.7l-1.68-2.79Zm5.59,11.17h25.7l1.68,2.79h-25.71l-1.67-2.79Zm5.59,11.17h25.7l1.12,2.8h-25.15l-1.67-2.8Zm5.59,11.18h25.15l1.68,2.79h-25.15l-1.68-2.79Zm5.03,11.17h25.71l1.12,2.79h-25.15l-1.68-2.79Zm5.03,11.18h25.7l1.12,2.79h-25.15l-1.67-2.79Zm5.03,11.17h25.7l1.12,2.79h-25.15l-1.67-2.79Zm5.59,11.17h25.7l1.12,2.8h-25.15l-1.67-2.8Zm5.03,11.18h25.7l1.12,2.79h-25.15l-1.67-2.79Zm5.03,11.17h26.26l1.12,2.79h-25.71l-1.67-2.79Zm5.59,11.17h25.15l1.67,2.8h-25.15l-1.67-2.8Zm5.03,11.18h25.7l1.68,2.79h-25.71l-1.67-2.79Zm5.03,11.17h26.26l1.68,2.8h-26.26l-1.68-2.8Zm31.85,11.18l1.67,2.79h-26.82l-1.68-2.79h26.83Zm5.59,11.17l1.67,2.79h-27.38l-1.67-2.79h27.38Zm5.03,11.17l1.67,1.68-1.12,1.67h-25.7l-1.68-3.35h26.83Zm-2.8,11.18l-1.67,2.79h-15.65l-1.68-2.79h19Zm-5.03,11.17l-1.67,2.79h-5.59l-1.67-2.79h8.94Zm-2.24,10.06l-2.24,2.8-2.23-2.8h4.47ZM276.37,32.97h29.06v2.79h-29.06v-2.79Zm0,11.17h29.06v2.8h-29.06v-2.8Zm0,11.18h29.06v2.79h-29.06v-2.79Zm0,11.17h29.06v2.8h-29.06v-2.8Zm0,11.18h29.06v2.79h-29.06v-2.79Zm0,11.17h29.06v2.79h-29.06v-2.79Zm0,11.17h29.06v2.8h-29.06v-2.8Zm0,11.18h29.06v2.79h-29.06v-2.79Zm0,11.17h29.06v2.79h-29.06v-2.79Zm0,11.17h29.06v2.8h-29.06v-2.8Zm0,11.18h29.06v2.79h-29.06v-2.79Zm0,11.17h29.06v2.79h-29.06v-2.79Zm0,11.18h29.06v2.79h-29.06v-2.79Zm0,11.17h29.06v2.79h-29.06v-2.79Zm0,11.17h29.06v2.8h-29.06v-2.8Zm0,11.18h29.06v2.79h-29.06v-2.79Zm0,11.17h29.06v2.79h-29.06v-2.79Zm0,11.17h29.06v2.8h-29.06v-2.8Zm0,11.18h29.06v2.79h-29.06v-2.79Zm0,11.17h29.06v2.8h-29.06v-2.8Zm0,11.18h29.06v2.79h-29.06v-2.79Zm0,11.17h29.06v2.79h-29.06v-2.79Zm0,11.17h29.06v2.8h-29.06v-2.8Zm0,11.18h29.06v2.79h-29.06v-2.79Zm0,11.17h29.06v2.79h-29.06v-2.79Zm0,11.17h29.06v2.8h-29.06v-2.8Zm0,11.18h29.06v2.24h-29.06v-2.24Z"/><path class="cls-1" d="M513.83,0h14.53l164.29,346.47h-88.29l-16.76-34.65h-132.44l-16.2,34.65h-88.29L513.83,0Zm-89.97,330.82l93.88-202.29h7.82l92.76,202.29h45.26L521.09,30.18l-141.38,300.64h44.15Zm-7.26-66.5h30.74l-1.68,2.79h-30.74l1.68-2.79Zm5.03-11.17h30.74l-1.68,2.79h-30.18l1.12-2.79Zm5.59-11.18h30.18l-1.67,2.8h-30.18l1.68-2.8Zm5.03-11.17h30.18l-1.67,2.79h-29.62l1.12-2.79Zm5.59-11.17h30.18l-1.67,2.79h-30.18l1.68-2.79Zm5.03-11.18h30.18l-1.67,2.8h-29.62l1.12-2.8Zm5.03-11.17h30.18l-1.67,2.79h-29.62l1.12-2.79Zm5.59-11.18h30.18l-1.67,2.8h-30.18l1.68-2.8Zm5.03-11.17h30.18l-1.67,2.79h-29.62l1.12-2.79Zm122.38,121.82l-12.85-27.94h-94.44l-12.3,27.94h119.59Zm-116.79-133h30.18l-1.67,2.79h-30.18l1.68-2.79Zm5.03-11.18h30.18l-1.67,2.8h-29.62l1.12-2.8Zm5.59-11.17h30.18l-1.68,2.79h-30.18l1.68-2.79Zm0,145.29h90.53l1.11,2.79h-92.76l1.12-2.79Zm5.03-156.47h30.18l-1.67,2.79h-29.62l1.12-2.79Zm0,145.29h81.03l1.67,2.8h-83.82l1.12-2.8Zm79.35-22.91l-38-84.38h-1.11l-38.56,84.38h77.68Zm-73.76-133.56h70.97l1.67,2.8h-74.32l1.67-2.8Zm5.03-11.17h60.91l1.12,2.79h-63.15l1.12-2.79Zm5.03-11.18h50.29l1.67,2.8h-53.09l1.12-2.8Zm5.59-11.17h39.68l1.12,2.79h-42.47l1.68-2.79Zm5.03-11.17h29.06l1.68,2.79h-31.85l1.12-2.79Zm5.59-11.18h18.44l1.12,2.8h-21.24l1.67-2.8Zm5.03-11.17h7.82l1.68,2.79h-10.62l1.12-2.79Zm4.47-9.5l1.12,2.24h-2.23l1.11-2.24Zm11.74,87.74h29.06l1.12,2.79h-28.5l-1.68-2.79Zm5.03,11.17h29.06l1.67,2.79h-29.06l-1.67-2.79Zm5.03,11.17h29.62l1.12,2.8h-29.06l-1.67-2.8Zm5.03,11.18h29.62l1.67,2.79h-29.62l-1.67-2.79Zm5.03,11.17h30.18l1.12,2.79h-29.61l-1.68-2.79Zm5.03,11.17h30.18l1.67,2.8h-30.18l-1.68-2.8Zm5.03,11.18h30.73l1.12,2.79h-30.18l-1.67-2.79Zm5.03,11.17h30.74l1.67,2.8h-30.74l-1.67-2.8Zm36.32,11.18l1.12,2.79h-30.74l-1.67-2.79h31.29Zm5.03,11.17l1.67,2.79h-31.85l-1.67-2.79h31.85Zm5.59,11.17l1.12,2.8h-31.85l-1.67-2.8h32.41Zm5.03,11.18l1.68,2.79h-32.41l-1.68-2.79h32.41Zm5.59,11.17l1.12,2.79h-32.97l-1.67-2.79h33.53Z"/><path class="cls-1" d="M711.62,11.18h82.15V160.94h1.12L891.56,11.18h90.53l-115.11,159.26,121.26,176.03h-90.53l-102.83-162.61h-1.12v162.61h-82.15V11.18Zm61.47,319.64V26.83h-40.79V330.82h40.79Zm137.47,0h45.83l-109.53-160.94L949.12,26.83h-44.15l-97.24,144.73,102.82,159.26Zm-93.32-164.29h24.03l-2.24,2.79h-24.03l2.24-2.79Zm1.67,11.17h25.71l2.24,2.8h-26.26l-1.68-2.8Zm6.15-22.35h25.7l-2.24,2.79h-25.7l2.24-2.79Zm1.12,33.53h26.26l1.67,2.24h-26.82l-1.12-2.24Zm6.15-44.71h26.82l-2.24,2.8h-26.82l2.24-2.8Zm.56,55.33h26.26l2.24,2.79h-26.82l-1.68-2.79Zm7.26-66.5h26.83l-2.24,2.79h-26.83l2.24-2.79Zm0,77.68h26.83l2.24,2.79h-27.38l-1.68-2.79Zm7.26-88.85h27.38l-2.23,2.79h-27.38l2.23-2.79Zm0,100.03h26.83l2.24,2.8h-27.38l-1.68-2.8Zm7.83-111.2h27.38l-2.24,2.8h-27.38l2.24-2.8Zm-.56,122.38h27.38l2.24,2.79h-27.94l-1.68-2.79Zm7.83-133.56h27.94l-2.23,2.79h-27.94l2.24-2.79Zm26.83,144.73l2.23,2.8h-27.94l-1.67-2.8h27.38Zm-19-155.91h27.94l-2.24,2.8h-27.94l2.24-2.8Zm26.82,167.09l2.24,2.79h-28.5l-1.67-2.79h27.94Zm-19.56-178.26h28.5l-2.24,2.79h-28.5l2.24-2.79Zm26.82,189.44l2.24,2.79h-29.06l-1.68-2.79h28.5Zm-19.56-200.06h29.06l-2.24,2.8h-29.06l2.24-2.8Zm27.38,211.23l2.24,2.8h-29.62l-1.68-2.8h29.06Zm-20.12-222.41h29.62l-2.24,2.79h-29.62l2.24-2.79Zm27.38,233.59l2.79,2.79h-30.18l-1.68-2.79h29.06Zm-19.56-244.77h29.62l-2.24,2.8h-29.61l2.23-2.8Zm27.38,255.94l2.8,2.79h-30.74l-1.67-2.79h29.61Zm7.83,10.62l2.24,2.79h-31.29l-1.68-2.79h30.74Zm-27.94-277.73h30.18l-2.24,2.79h-30.18l2.24-2.79Zm35.2,288.91l2.79,2.8h-31.85l-1.68-2.8h30.74Z"/><path class="cls-1" d="M1003.29,11.18h221.85V83.83h-139.71v60.35h129.09v71.53h-129.09v60.35h145.85v70.41h-228V11.18Zm207.32,319.64v-39.12h-145.85v-91.65h129.09v-40.24h-129.09V68.18h139.7V26.83h-180.5V330.82h186.64Zm-176.59-9.5h171v2.79h-173.79l2.79-2.79Zm-2.24-286.68h167.09v2.8h-164.29l-2.8-2.8Zm11.18,11.18h155.91v2.79h-153.12l-2.79-2.79Zm2.79,264.32h159.26v2.79h-162.06l2.79-2.79Zm8.38-253.15h144.74v2.8h-141.94l-2.8-2.8Zm3.35,241.97h147.53v2.79h-150.88l3.35-2.79Zm7.26-131.88h123.5v2.79h-123.5v-2.79Zm0,11.17h123.5v2.79h-123.5v-2.79Zm0,11.17h123.5v2.8h-123.5v-2.8Z"/></g><g><path class="cls-1" d="M50.69,524.34c0,12.41,9.93,22.33,21.98,22.33,13.12,0,21.27-7.44,21.27-18.43,0-15.95-20.91-20.56-38.28-26.59C19.85,488.89,0,472.23,0,435.72s32.26-68.77,72.32-68.77c47.15,0,69.48,30.13,72.32,69.48h-48.92c0-12.05-7.44-21.98-21.98-21.98-11.34,0-22.33,6.74-22.33,20.56,0,15.95,19.5,18.79,37.58,24.11,37.93,11.34,55.66,32.61,55.66,65.94,0,37.58-31.9,68.77-71.96,68.77-46.44,0-72.67-31.2-72.67-69.48H50.69Zm21.98,59.56c32.97,0,59.91-26.59,59.91-58.85,0-35.8-21.27-48.92-53.88-58.14-20.91-6.03-38.99-10.99-38.99-31.9,0-18.43,13.83-30.49,32.97-30.49,21.98,0,29.42,13.12,32.61,21.98h26.59c-2.13-20.91-17.72-49.63-59.2-49.63-32.97,0-60.62,26.59-60.62,58.85,0,26.23,9.93,42.89,48.92,56.72,20.21,7.44,44.67,12.76,44.67,35.8,0,18.79-16.31,28.36-32.97,28.36-18.08-.35-29.42-10.63-32.61-22.33H12.41c.71,26.59,26.59,49.63,60.26,49.63ZM15.6,431.82h20.56v1.77H15.6v-1.77Zm0,7.09h20.56l.35,1.77H15.6v-1.77Zm1.42-14.53h20.56l-.71,2.13H16.31l.71-2.13Zm-.71,21.98h21.27l.71,1.77H16.66l-.35-1.77Zm1.77,7.09h23.75l-.35-.35,2.13,2.13H18.43l-.35-1.77Zm.71-36.16h21.62l-1.06,1.77H18.43l.35-1.77Zm3.55-7.44h24.46l-2.48,2.13H21.27l1.06-2.13Zm-.71,51.05h28.71l2.84,1.77H22.69l-1.06-1.77Zm5.32-58.14h31.2l-3.9,1.77H25.52l1.42-1.77Zm.35,65.23h40.77l6.74,1.77H29.07l-1.77-1.77Zm6.38-72.32h38.99v1.77H31.55l2.13-1.77Zm1.77,79.41h55.66l5.32,2.13H39.35l-3.9-2.13Zm8.86-86.85h28.36v1.77h-31.2l2.84-1.77Zm62.04,94.3l2.13,1.77H52.11l-2.84-1.77h57.07Zm-41.12-101.38h7.44v1.77h-15.95l8.51-1.77Zm50.69,108.47l1.77,2.13h-48.57l-5.32-2.13h52.11Zm-43.25,72.67h40.41l-1.77,1.77h-38.64v-1.77Zm0,7.09h31.9l-2.48,1.77h-29.42v-1.77Zm0,7.45h18.08l-6.73,1.77h-11.34v-1.77Zm49.28-79.76l.71,1.77h-34.39l-3.9-1.77h37.58Zm-27.65,57.78h25.17l-1.06,1.42-.35,.71h-28l4.25-2.13Zm30.84-50.69l.71,1.77h-25.88l-2.13-1.77h27.3Zm-22.69,43.6h20.91l-1.06,1.77h-21.62l1.77-1.77Zm1.77-36.16h23.4l.71,1.77h-23.04l-1.06-1.77Zm2.84,28.71h19.5l-.71,2.13h-19.85l1.06-2.13Zm.71-21.62h20.91v1.77h-20.56l-.35-1.77Zm1.06,14.53h19.5l-.35,1.77h-19.5l.35-1.77Zm.35-7.09h19.85l-.35,1.77h-19.5v-1.77Z"/><path class="cls-1" d="M203.48,420.12h-47.86v-46.08h148.18v46.08h-48.21v166.61h-52.11v-166.61Zm38.99,156.69v-166.61h48.21v-26.23h-121.95v26.23h47.86v166.61h25.88Zm-70.19-187.53h114.86v1.77h-114.86v-1.77Zm0,7.09h114.86v1.77h-114.86v-1.77Zm0,7.09h114.86v1.77h-114.86v-1.77Z"/><path class="cls-1" d="M317.28,374.04h51.76v133.29c0,28.36,13.47,38.29,31.55,38.29,19.85,0,32.26-9.93,32.26-38.29v-133.29h52.11v141.09c0,50.34-37.58,78.7-84.37,78.7s-83.31-29.78-83.31-78.7v-141.09Zm83.31,209.86c39.35,0,71.25-24.81,71.25-68.77v-131.16h-25.88v123.36c0,35.8-17.37,48.21-45.38,48.21-25.52,0-44.67-12.41-44.67-48.21v-123.36h-25.52v131.16c0,42.89,29.42,68.77,70.19,68.77Zm-66.64-121.24h18.43v1.77h-18.43v-1.77Zm0,7.09h18.43v1.77h-18.43v-1.77Zm0,7.09h18.43v1.77h-18.43v-1.77Zm0,7.09h18.43v1.77h-18.43v-1.77Zm0,7.09h18.43v1.77h-18.43v-1.77Zm0,7.09h18.43v1.77h-18.43v-1.77Zm0,7.09h18.43v1.77h-18.43v-1.77Zm0,7.09h18.43l.35,1.77h-18.79v-1.77Zm0,7.09h18.79l.71,1.77h-19.5v-1.77Zm.71,7.09h19.5l.71,1.77h-19.85l-.35-1.77Zm1.42,7.09h20.56l.71,1.77h-20.91l-.35-1.77Zm2.13,7.09h21.62l1.77,1.77h-23.04l-.35-1.77Zm3.19,7.09h24.46l2.13,1.77h-25.52l-1.06-1.77Zm35.09,7.09l4.25,1.77h-33.68l-1.42-1.77h30.84Zm73.38,7.09l-2.13,1.77h-93.94l-1.77-1.77h97.84Zm-9.57,7.09l-2.84,1.77h-73.73l-2.48-1.77h79.05Zm-14.18,7.09l-6.74,1.77h-37.93l-6.38-1.77h51.05Zm0-21.27h29.78l-1.42,1.77h-32.97l4.61-1.77Zm10.28-7.09h23.75l-.71,1.77h-24.81l1.77-1.77Zm5.67-7.09h21.62l-.71,1.77h-22.33l1.42-1.77Zm3.19-7.09h20.91l-.71,1.77h-20.91l.71-1.77Zm2.48-7.09h19.85l-.71,1.77h-19.85l.71-1.77Zm1.06-7.09h19.5l-.35,1.77h-19.5l.35-1.77Zm.35-7.09h19.14v1.77h-19.14v-1.77Zm.35-49.63h18.79v1.77h-18.79v-1.77Zm0,7.09h18.79v1.77h-18.79v-1.77Zm0,7.09h18.79v1.77h-18.79v-1.77Zm0,7.09h18.79v1.77h-18.79v-1.77Zm0,7.09h18.79v1.77h-18.79v-1.77Zm0,7.09h18.79v1.77h-18.79v-1.77Zm0,7.09h18.79v1.77h-18.79v-1.77Z"/><path class="cls-1" d="M508.34,374.04h137.19v46.08h-85.08v45.38h78.34v45.38h-78.34v75.86h-52.11v-212.7Zm38.99,202.77v-75.86h78.34v-25.52h-78.34v-65.23h85.08v-26.23h-110.96v192.84h25.88Zm-20.91-187.88h102.45v1.77h-100.68l-1.77-1.77Zm7.09,7.09h95.36v1.77h-93.59l-1.77-1.77Zm7.09,7.09h88.27v1.77h-86.5l-1.77-1.77Zm6.74,76.93h74.8v1.77h-74.8v-1.77Zm0,7.09h74.8v1.77h-74.8v-1.77Zm0,7.09h74.8v1.77h-74.8v-1.77Z"/><path class="cls-1" d="M656.52,374.04h137.19v46.08h-85.08v45.38h78.34v45.38h-78.34v75.86h-52.11v-212.7Zm38.99,202.77v-75.86h78.34v-25.52h-78.34v-65.23h85.08v-26.23h-110.96v192.84h25.88Zm-20.91-187.88h102.45v1.77h-100.68l-1.77-1.77Zm7.09,7.09h95.36v1.77h-93.59l-1.77-1.77Zm7.09,7.09h88.27v1.77h-86.5l-1.77-1.77Zm6.74,76.93h74.8v1.77h-74.8v-1.77Zm0,7.09h74.8v1.77h-74.8v-1.77Zm0,7.09h74.8v1.77h-74.8v-1.77Z"/></g></svg>