<svg id="Layer_1" data-name="Layer 1" xmlns="http://www.w3.org/2000/svg" viewBox="0 0 1311.84 333.59"><defs><style>.cls-1{fill:#2bc7be;}</style></defs><path class="cls-1" d="M0,10.42H71.41L151.16,179.3,231.43,10.42h70.36V323.16H225.7V184l-68.29,149.6H144.9L76.62,183V323.16H0ZM57.34,308.57V118.32H66.2l85,183.47,86.52-183.47H245V308.57h37.53V25h-38l-86,183H143.86L58.38,25H19.28V308.57ZM27.1,30.75H54.73l1.05,2.61H28.67Zm5.22,10.43h27.1l1,2.6H33.88ZM37.53,51.6h27.1l1.05,2.61H39.09ZM42.74,62H69.33l1,2.61H44.31ZM48,72.45H74.54l1,2.6H49.52Zm5.73,10.42H79.23l1,2.61h-25ZM58.9,93.3h25l1,2.61H60.46Zm5.22,10.42H88.61l1,2.61h-24Zm5.21,10.43h24l1.57,2.6h-24Zm5.21,10.42h24l1,2.61H76.1ZM79.75,135h23.46l1.56,2.61H81.32Zm4.69,10.43h24l1,2.6H86Zm4.69,10.42h24l1,2.6H90.7Zm4.69,10.42h24l1,2.61H95.39ZM99,176.7h24l1,2.6H100.6Zm4.68,10.42h24l1,2.61H105.29Zm4.7,10.43h24.5l1,2.6H110ZM113.63,208h23.45l1.57,2.6H115.2Zm4.69,10.42h24l1.56,2.61h-24Zm4.7,10.43h24.49l1.56,2.61H124.58Zm29.7,10.43,1.57,2.6h-25l-1.57-2.6Zm5.22,10.42,1.56,2.6H134l-1.56-2.6Zm4.68,10.42,1.57,1.57-1,1.56h-24l-1.56-3.13ZM160,270.52l-1.57,2.6H143.86l-1.56-2.6ZM155.33,281l-1.56,2.6h-5.21L147,281Zm-2.09,9.38-2.08,2.6-2.09-2.6Zm97-259.58h27.1v2.61H250.2Zm0,10.43h27.1v2.6H250.2Zm0,10.42h27.1v2.61H250.2Zm0,10.42h27.1v2.61H250.2Zm0,10.43h27.1v2.6H250.2Zm0,10.42h27.1v2.61H250.2Zm0,10.43h27.1v2.61H250.2Zm0,10.42h27.1v2.61H250.2Zm0,10.43h27.1v2.6H250.2Zm0,10.42h27.1v2.61H250.2Zm0,10.43h27.1v2.61H250.2Zm0,10.43h27.1V148H250.2Zm0,10.42h27.1v2.6H250.2Zm0,10.42h27.1v2.61H250.2Zm0,10.43h27.1v2.6H250.2Zm0,10.42h27.1v2.61H250.2Zm0,10.43h27.1v2.6H250.2Zm0,10.42h27.1v2.6H250.2Zm0,10.42h27.1V221H250.2Zm0,10.43h27.1v2.61H250.2Zm0,10.43h27.1v2.6H250.2Zm0,10.42h27.1v2.6H250.2Zm0,10.42h27.1v2.61H250.2Zm0,10.43h27.1v2.6H250.2Zm0,10.43h27.1v2.6H250.2Zm0,10.42h27.1V294H250.2Zm0,10.42h27.1v2.09H250.2Z"/><path class="cls-1" d="M336.16,10.42H543.1V78.18H412.79v56.3h120.4v66.71H412.79v56.29h136v65.68H336.16ZM529.55,308.57V272.08h-136V186.6H513.91V149.07H393.5V63.59H523.81V25H355.45V308.57Zm-164.71-8.86H524.33v2.61H362.23Zm-2.09-267.4H518.6v2.61H365.35Zm10.42,10.43H518.6v2.61H375.78Zm2.61,246.54H524.33v2.61H373.17ZM383.6,53.17h135v2.6H386.21Zm3.12,225.69H524.33v2.6H383.6Zm6.78-123H508.69v2.6H393.5Zm0,10.42H508.69v2.61H393.5Zm0,10.43H508.69v2.6H393.5Z"/><path class="cls-1" d="M570.17,10.42H651L772.41,196V10.42h76.1V323.16H768.76l-122-185.55V323.16H570.17Zm57.34,298.15V88.09h7.82L780.75,308.57h48.48V25H791.7V242.89h-9.38L639,25H589.46V308.57ZM603,30.75h32.83l2.09,2.61H604.58Zm7.29,10.43h32.31l2.09,2.6H611.87Zm6.77,10.42H649.4l2.09,2.61H618.65ZM624.38,62h31.79l2.09,2.61H626Zm6.78,10.43H663l2.09,2.6H632.72Zm7.29,10.42h31.28l2.08,2.61H640Zm6.78,10.43H677l2.08,2.61H646.79ZM652,103.72H683.8l2.09,2.61H653.57Zm7.3,10.43h31.27l2.09,2.6h-31.8Zm6.77,10.42h31.27l2.09,2.61H667.65ZM672.86,135h31.27l2.09,2.61h-31.8Zm6.77,10.43h31.8l2.08,2.6H681.2Zm6.78,10.42h31.8l2.08,2.6H688Zm6.78,10.42H725l2.08,2.61H694.75Zm7.29,10.43h31.28l2.08,2.6H702.05Zm6.78,10.42h31.27l2.08,2.61H708.83ZM714,197.55h31.27l2.08,2.6H715.6ZM720.81,208H752.6l2.09,2.6H722.38Zm38.57,10.42,2.09,2.61H729.15l-1.56-2.61Zm6.78,10.43,2.08,2.61H736.45l-1.57-2.61Zm6.77,10.43,2.09,2.6h-31.8l-1.56-2.6Zm7.82,10.42,2.09,2.6H750l-1.57-2.6Zm7.3,10.42,2.61,2.61H756.77l-1.56-2.61Zm7.82,10.43,2.61,2.6H763.55l-1.57-2.6ZM803.69,281l2.08,2.6H770.33l-1.57-2.6Zm7.81,10.42,2.61,2.61H777.63l-1.57-2.61Zm7.31,9.38,2.6,2.61h-38l-1.57-2.61Z"/><path class="cls-1" d="M938.66,78.18H868.29V10.42h217.88V78.18h-70.89v245H938.66ZM996,308.57v-245h70.88V25H887.57V63.59h70.37v245ZM892.78,32.84h168.89v2.6H892.78Zm0,10.42h168.89v2.6H892.78Zm0,10.42h168.89v2.61H892.78Z"/><path class="cls-1" d="M1173.71,231.43A32.59,32.59,0,0,0,1206,264.26c19.28,0,31.27-10.94,31.27-27.1,0-23.45-30.75-30.23-56.29-39.09-52.65-18.77-81.84-43.26-81.84-96.95C1099.17,45.86,1146.61,0,1205.51,0c69.32,0,102.16,44.3,106.33,102.16h-71.93c0-17.72-11-32.32-32.32-32.32-16.68,0-32.83,9.91-32.83,30.24,0,23.45,28.66,27.62,55.24,35.44,55.78,16.68,81.84,47.95,81.84,96.95,0,55.25-46.91,101.12-105.81,101.12-68.29,0-106.86-45.87-106.86-102.16ZM1206,319c48.47,0,88.09-39.09,88.09-86.52,0-52.65-31.28-71.93-79.23-85.48-30.75-8.87-57.34-16.16-57.34-46.91,0-27.11,20.33-44.83,48.48-44.83,32.31,0,43.26,19.29,48,32.31h39.09c-3.12-30.75-26-73-87-73-48.48,0-89.13,39.09-89.13,86.53,0,38.57,14.59,63.07,71.92,83.4,29.72,10.94,65.68,18.76,65.68,52.64,0,27.63-24,41.7-48.47,41.7-26.59-.52-43.26-15.64-48-32.84h-40.65C1118.46,285.11,1156.51,319,1206,319ZM1122.11,95.38h30.23V98h-30.23Zm0,10.43h30.23l.52,2.6h-30.75Zm2.08-21.37h30.24l-1,3.12h-30.23Zm-1,32.31h31.28l1,2.61h-31.78Zm2.61,10.43h34.92l-.52-.52,3.12,3.13h-37Zm1-53.17h31.8L1157,76.62h-30.75ZM1132,63.07h36l-3.65,3.13h-33.88Zm-1,75.05h42.22l4.17,2.61h-44.83Zm7.82-85.48h45.86l-5.73,2.61H1136.7Zm.52,95.91h59.94l9.9,2.61h-67.24Zm9.38-106.33H1206v2.61h-60.47Zm2.6,116.76h81.84l7.82,3.12H1157Zm13-127.71H1206v2.61h-45.87Zm91.21,138.65,3.13,2.61H1175.8l-4.18-2.61ZM1195.08,20.85h11v2.61h-23.46Zm74.54,159.5,2.61,3.12h-71.42l-7.82-3.12ZM1206,287.2h59.42l-2.61,2.6H1206Zm0,10.42h46.91l-3.65,2.61H1206Zm0,10.95h26.58l-9.9,2.6H1206Zm72.45-117.28,1,2.61H1229l-5.73-2.61Zm-40.66,85h37l-1.57,2.09-.51,1h-41.18Zm45.35-74.53,1,2.61h-38l-3.12-2.61Zm-33.36,64.11h30.76l-1.57,2.6h-31.79Zm2.61-53.17h34.4l1,2.61H1254Zm4.17,42.22h28.66l-1,3.13H1255Zm1-31.79h30.76v2.61h-30.24Zm1.57,21.37h28.66l-.52,2.6h-28.67Zm.51-10.43h29.19l-.51,2.61h-28.68Z"/></svg>