<svg id="Layer_1" data-name="Layer 1" xmlns="http://www.w3.org/2000/svg" viewBox="0 0 2114.52 331.31"><defs><style>.cls-1{fill:#C3073F;}</style></defs><path class="cls-1" d="M0,10.35H129.94c63.67,0,100.95,47.11,100.95,99.39,0,58-43.49,99.4-100.95,99.4H75.58V321H0ZM56.43,306.46V194.64H131c47.11,0,80.76-36.75,80.76-86.45,0-44.52-29-83.34-80.76-83.34H19.15V306.46Zm0-246.93h68.33c29.51,0,46.08,22.77,46.08,49.18,0,28.47-16.57,49.69-46.08,49.69H56.43Zm.52-29H134.6c5.69.52,12.94,1.55,18.12,2.59H57ZM57,40.9H170.32l3.62,2.58H57Zm0,10.34H183.78l2.59,2.6H57Zm0,113.9H186.37l-2.59,2.59H57Zm0,10.35H174.46l-4.66,2.59H57Zm0,10.35h97.32a122.74,122.74,0,0,1-13.46,2.59H57Zm65.74-41.93c19.67,0,30.55-18.12,30.55-36.24,0-17.08-10.36-32.61-30.55-32.61H75.58v68.85Zm31.58,10.87h39.34l-2.07,2.59H150.13Zm-1-93.18h39.33l2.07,2.59H156.86Zm11.9,82.83h34.17L197.75,147H163.07ZM164.1,72h34.17l1,2.58H165.66Zm7.25,62.12h31.58l-1,2.59H169.8Zm-1-51.78h32.09l1,2.6H171.87Zm3.62,10.36H205v2.59H175Zm.52,31.06h31.06l-1,2.59H173.94ZM176,113.37h30.54l-.51,1.55v1H175.49ZM176,103h30v2.59H176Z"/><path class="cls-1" d="M264,10.35H393.93c66.77,0,110.26,40.38,110.26,98.88,0,54.35-27.44,84.89-73.51,96.28L514.55,321H419.3L340.09,205V321H264Zm56.94,296.11V195.16H355.1l76.1,111.3h51.25L404.8,199.3v-4.66C457.6,188.43,485,162,485,112.33c0-53.32-39.35-87.48-91.11-87.48H283.14V306.46Zm0-245.89H399.1c31.58,0,49.7,24.84,49.7,48.66,0,27.44-19.16,50.21-47.62,50.21H320.93Zm.52-30h72.48l24.33,2.59H321.45Zm0,10.36H437.93l4.14,2.58H321.45Zm0,10.34h132l2.59,2.6H321.45Zm0,113.9H461.22l-2.59,2.59H321.45Zm0,10.35H447.76l-4.66,2.59H321.45Zm0,10.35H422.4l-13.46,2.59H321.45Zm79.73-40.9c17.08,0,28.46-17.6,28.46-35.71S416.19,75.06,399.1,75.06h-59v69.88ZM361.83,196.2h36.75v2.59h-35.2Zm6.73,10.35h34.17l2.59,2.59h-35.2Zm7.25,10.35h34.68l2.07,2.59h-35.2Zm6.72,10.36h35.21l2.59,2.59H384.09Zm43,10.35,2.07,2.59H391.34l-1.55-2.59ZM432.75,248l2.59,2.59H398.06L396.51,248Zm7.77,10.36,2.07,2.59H405.32l-1.55-2.59Zm7.24,10.35,2.6,2.59h-37.8L411,268.67ZM455.53,279l2.07,2.58H419.81L418.26,279ZM463.29,61.6l2.08,2.59H429.13l-5.7-2.59Zm-.51,227.78,2.59,2.59H427.06l-1.56-2.59Zm-31.06-134.6h37.79l-2.07,2.59H427.57Zm38.82,145,1.55,2.59H434.31l-1.56-2.59ZM470,72l1,2.58h-29L438.45,72Zm-27.44,72.47h32.09L473.13,147H440Zm3.62-62.13h28.47l1,2.6h-28Zm2.59,51.78h29l-1,2.59h-29.5Zm2.59-41.42h26.4v2.59H452.94Zm.52,31.06h26.91v2.59H451.39Zm1.55-20.7h25.88v2.59H453.46Zm.52,10.35h25.88V116H454Z"/><path class="cls-1" d="M696.22,0c97.85,0,167.21,73,167.21,165.66S794.07,331.31,696.22,331.31c-98.36,0-167.2-73-167.2-165.65S597.86,0,696.22,0Zm0,315.78c85.94,0,148.06-65.75,148.06-150.12S782.16,14.49,696.22,14.49c-86.45,0-148.05,66.78-148.05,151.17S609.77,315.78,696.22,315.78ZM553.86,154.27h28l-.52,2.58h-28Zm-.52,10.35h28v2.59h-28Zm0,10.35h28l.52,2.59h-28Zm1.56-31.06h28.47l-1,2.59h-28Zm-.52,41.42h28l1,2.58H554.9Zm2.07-51.77h29l-1,2.59H555.93Zm-.52,62.12H584.4l1,2.59H557ZM559,123.2h29.51l-1,2.59h-29Zm3.11-10.35h31.06l-1.55,2.59h-30Zm4.14-10.35H598.9l-2.07,2.59H565.25Zm5.17-10.36h35.21l-2.07,2.59H569.91Zm6.73-10.35H616.5l-3.11,2.59H576.12Zm7.25-10.35h43.48L625.3,74H583.37Zm110.78-14c66.27,0,109.75,47.63,109.75,108.2S762.49,275.4,696.22,275.4c-66.78,0-109.75-49.18-109.75-109.74S629.44,57.46,696.22,57.46ZM595.28,61.08h54.35l-6.73,2.59H592.69Zm11.91-10.35H785.78l2.59,2.59H716.93l-20.71-1.56-19.15,1.56H603Zm89,208.63c54.88,0,90.08-41.42,90.08-93.7S751.1,72,696.22,72c-55.39,0-90.07,41.41-90.07,93.7S640.83,259.36,696.22,259.36Zm-74-219h148l3.1,2.59H618.05ZM643.42,30H749l6.72,2.59H636.69Zm52.8-9.84,27.44,2.08h-52.8Zm100.95,40.9-.52-.51,3.11,3.1H749.55l-5.7-2.59ZM806,71.44,808.56,74H767.14l-3.62-2.59Zm7.77,10.35,2.07,2.59H779.05l-3.11-2.59Zm6.2,10.35,1.56,2.59H787.85l-2.59-2.59ZM793,102.5h32.1l1,2.59H794.58Zm5.69,10.35h30.55l1,2.59h-30Zm4.66,10.35h29.51l1,2.59h-29Zm3.11,10.36h29l1,2.59h-29Zm1,62.12H836l-.52,2.59h-29Zm1.56-51.77h28.47l.51,2.59H809.6Zm.52,41.42h28.46l-1,2.58H809.08Zm1-10.36h28v2.59H810.11Zm0-20.7h28v2.58h-28Zm.52,10.35h28v2.59h-28Z"/><path class="cls-1" d="M944.16,224.67c3.62,22.26,12.42,36.24,36.75,36.24,23.81,0,40.38-10.36,40.38-48.14V10.35h75.06V226.22c0,65.23-51.25,105.09-111.82,105.09-64.71,0-113.88-38.82-113.88-104Zm40.37,92.14c50.22,0,92.67-34.16,92.67-90.59V24.85h-36.75V212.77c0,35.71-16,62.63-59.54,62.63-24.85,0-40.9-8.8-50.73-35.72l-39.86,1.55C896,288.86,934.84,316.81,984.53,316.81ZM896,247.45h31.06l1,2.58H897.05Zm3.11,10.35h33.13l2.07,2.59H899.64Zm4.14,10.35h37.79l-.52-.52,4.15,3.11H904.81ZM910,278.51h49.7l21.22,1.55,21.74-1.55h52.29l-2.07,2.58H911.54Zm135.63,10.35-3.11,2.59H922.41l-3.1-2.59Zm-14.5,10.35-4.65,2.59h-87l-5.17-2.59Zm-28.47,10.36-18.12,2.59-21.74-2.59Zm21.23-41.42h37.79l-1.56,2.59h-39.34Zm9.83-10.35h32.61l-1,2.59h-34.17Zm5.18-10.35h30.54l-1,2.58h-30.54Zm3.62-10.36h29l-1,2.59H1042Zm2.07-10.35H1072v2.59h-28Zm1-10.35H1072V219H1045.1Zm0-82.83H1072v2.59h-26.4Zm0,10.35H1072v2.59h-26.4Zm0,10.36H1072v2.58h-26.4Zm0,10.35H1072v2.59h-26.4Zm0,10.35H1072v2.59h-26.4Zm0,10.36H1072v2.58h-26.4Zm0,10.35H1072v2.59h-26.4Zm0,10.35H1072v2.59h-26.4Z"/><path class="cls-1" d="M1130.49,10.35H1336v67.3H1206.59v55.91h119.59v66.26H1206.59v55.91h135.12V321H1130.49Zm192.07,296.11V270.22H1187.44V185.33H1307V148.05H1187.44V63.15h129.42V24.85H1149.65V306.46ZM1159,297.66h158.4v2.59h-161ZM1156.9,32.09h154.78v2.59h-152.2Zm10.35,10.36h144.43V45H1169.84Zm2.59,244.85h147.53v2.6H1167.25Zm7.76-234.5h134.08v2.59H1180.19ZM1180.71,277h136.66v2.58H1177.6Zm6.73-122.18h114.4v2.59h-114.4Zm0,10.36h114.4v2.59h-114.4Zm0,10.35h114.4v2.59h-114.4Z"/><path class="cls-1" d="M1534.25,0c59,0,99.92,22.26,133,56.94L1615,106.64C1593.27,85.41,1565.31,72,1534.25,72c-55.38,0-91.11,41.41-91.11,93.7s35.73,93.7,91.11,93.7c31.06,0,59-13.46,80.76-34.69l50.74,49.7c-31.06,32.61-74,56.94-131.5,56.94-98.35,0-168.24-73-168.24-165.65S1435.9,0,1534.25,0Zm0,316.81c45.56,0,79.72-14.49,108.72-41.41l-29.51-30c-18.64,16.56-48.15,28.47-79.21,28.47-66.77,0-110.78-47.63-110.78-108.19s44-108.2,110.78-108.2c29.51,0,58,10.87,80.24,27.95L1644,56.94c-27.43-27.95-63.16-42.45-109.75-42.45-86.44,0-149.08,66.78-149.08,151.17S1447.81,316.81,1534.25,316.81ZM1390.86,154.27h28l-.52,2.58h-28Zm-.52,10.35h28v2.59h-28Zm0,10.35h28l.52,2.59h-28Zm1.55-31.06h28.48l-1,2.59h-27.95Zm-.51,41.42h27.95l1,2.58h-28.48Zm2.07-51.77h29l-1,2.59h-28.47Zm-.52,62.12h28.47l1,2.59H1394ZM1396,123.2h29.5l-1,2.59h-29Zm-.52,82.83h29l1,2.59H1396Zm3.63-93.18h31.06l-1.56,2.59h-30Zm-.52,103.54h30l1.56,2.58h-31.06Zm4.66-113.89h32.61l-2.07,2.59h-31.58Zm-1,124.24h32.1l2.07,2.59H1403.8Zm6.21-134.6h35.2l-2.07,2.59h-34.68Zm-1,145h34.17l2.59,2.59H1409Zm7.77-155.3h38.31l-3.11,2.59h-37.27Zm-1.55,165.66h37.27l2.59,2.58h-38.31Zm8.8-176h43.48L1462.3,74h-41.93Zm-1,186.36h41.42l3.1,2.59h-43Zm10.88-196.72h54.35l-6.73,2.59h-50.21Zm48.66,207.07,5.17,2.59h-53.32l-2.58-2.59ZM1444.18,50.73h90.07v1l-20.18,1.56h-74Zm73,227.78c5.18,0,12.43.52,17.08,1v1.55h-89l-3.11-2.58Zm-58-238.13h75.06V43h-79.2Zm75.06,248.48v2.59h-74l-3.63-2.59ZM1480.42,30h53.83v2.59h-60.56Zm53.83,269.19v2.59h-52.8l-6.73-2.59Zm0-279v2.08h-26.39C1516.65,20.7,1519.24,20.18,1534.25,20.18Zm0,289.39v1.55h-1l-23.29-1.55Z"/><path class="cls-1" d="M1743.89,77.65H1674V10.35h216.39v67.3H1820V321h-76.1Zm56.94,228.81V63.15h70.4V24.85H1693.16v38.3H1763V306.46ZM1698.33,32.61h167.73V35.2H1698.33Zm0,10.36h167.73v2.58H1698.33Zm0,10.35h167.73v2.59H1698.33Z"/><path class="cls-1" d="M1977.34,229.85c0,18.11,14.49,32.61,32.09,32.61,19.16,0,31.06-10.87,31.06-26.92,0-23.29-30.54-30-55.91-38.82-52.28-18.64-81.27-43-81.27-96.29C1903.31,45.55,1950.42,0,2008.92,0c68.85,0,101.46,44,105.6,101.46h-71.44c0-17.6-10.87-32.09-32.09-32.09-16.57,0-32.62,9.83-32.62,30,0,23.3,28.47,27.44,54.87,35.21,55.4,16.56,81.28,47.62,81.28,96.28,0,54.87-46.59,100.43-105.09,100.43-67.82,0-106.12-45.56-106.12-101.46Zm32.09,87c48.15,0,87.49-38.82,87.49-85.93,0-52.29-31.06-71.44-78.69-84.9-30.54-8.8-56.94-16-56.94-46.59,0-26.92,20.19-44.52,48.14-44.52,32.1,0,43,19.16,47.63,32.1h38.82c-3.1-30.54-25.88-72.48-86.45-72.48-48.14,0-88.52,38.83-88.52,85.94,0,38.3,14.5,62.63,71.44,82.83,29.5,10.86,65.23,18.63,65.23,52.28,0,27.44-23.82,41.42-48.15,41.42-26.4-.52-43-15.53-47.62-32.62h-40.38C1922.46,283.16,1960.25,316.81,2009.43,316.81ZM1926.08,94.73h30v2.59h-30Zm0,10.36h30l.52,2.58h-30.55Zm2.07-21.23h30l-1,3.11h-30Zm-1,32.1h31.06l1,2.59h-31.57Zm2.59,10.35h34.69l-.52-.52,3.1,3.11h-36.75Zm1-52.8h31.58l-1.56,2.59h-30.54Zm5.17-10.87h35.72l-3.62,3.1h-33.65Zm-1,74.54h41.93l4.14,2.59h-44.52Zm7.76-84.9h45.55l-5.69,2.59h-41.93Zm.52,95.25h59.53l9.84,2.6h-66.78Zm9.32-105.6h56.94v2.59h-60Zm2.58,116h81.28l7.77,3.1h-83.35Zm13-126.83h41.41v2.58h-45.55Zm90.59,137.7,3.11,2.59h-82.31l-4.15-2.59ZM1998.56,20.7h10.87v2.59h-23.29Zm74,158.41,2.59,3.11h-70.93l-7.76-3.11Zm-63.16,106.12h59l-2.58,2.59h-56.43Zm0,10.36H2056l-3.62,2.59h-43Zm0,10.87h26.4l-9.83,2.59h-16.57Zm72-116.48,1,2.59h-50.21l-5.69-2.59ZM2041,274.37h36.76l-1.56,2.07-.51,1h-40.9Zm45-74,1,2.59h-37.79l-3.1-2.59ZM2052.91,264h30.55l-1.56,2.59h-31.57Zm2.6-52.8h34.16l1,2.59h-33.65Zm4.14,41.93h28.47l-1,3.1h-29Zm1-31.58h30.55v2.59h-30Zm1.56,21.23h28.47l-.52,2.59h-28.47Zm.51-10.36h29l-.51,2.59h-28.48Z"/></svg>