<svg id="Layer_1" data-name="Layer 1" xmlns="http://www.w3.org/2000/svg" viewBox="0 0 1179.71 337.21"><defs><style>.cls-1{fill:#2bc757;}</style></defs><path class="cls-1" d="M75.35,233.94c0,18.44,14.75,33.19,32.66,33.19,19.5,0,31.62-11.06,31.62-27.39,0-23.72-31.09-30.57-56.91-39.52C29.51,181.25,0,156.49,0,102.22,0,46.37,48,0,107.49,0,177.56,0,210.76,44.79,215,103.27H142.26c0-17.91-11.06-32.67-32.67-32.67-16.86,0-33.19,10-33.19,30.56,0,23.71,29,27.93,55.85,35.83C188.63,153.85,215,185.47,215,235c0,55.85-47.42,102.22-107,102.22-69,0-108-46.37-108-103.27ZM108,322.46c49,0,89.05-39.52,89.05-87.47,0-53.21-31.62-72.71-80.09-86.41-31.09-9-58-16.33-58-47.42,0-27.4,20.55-45.31,49-45.31,32.67,0,43.74,19.5,48.48,32.67H196c-3.16-31.09-26.34-73.77-88-73.77-49,0-90.1,39.52-90.1,87.47,0,39,14.76,63.75,72.72,84.3,30,11.06,66.38,19,66.38,53.22,0,27.92-24.23,42.15-49,42.15-26.87-.53-43.73-15.81-48.47-33.2H18.44C19.5,288.21,58,322.46,108,322.46Zm-84.83-226H53.74v2.63H23.18Zm0,10.54H53.74l.53,2.63H23.18Zm2.11-21.6H55.85L54.8,88.52H24.24ZM24.24,118H55.85l1,2.64H24.76Zm2.63,10.54h35.3l-.52-.53,3.16,3.17H27.4Zm1.06-53.74H60.07l-1.59,2.63H27.4ZM33.2,63.75H69.55l-3.69,3.16H31.61Zm-1.06,75.88H74.82L79,142.26H33.72ZM40,53.22H86.41l-5.79,2.63H37.94Zm.53,96.94h60.59l10,2.64h-68ZM50.05,42.68h58v2.63H46.89Zm2.64,118h82.72l7.91,3.16H58.48ZM65.86,31.61H108v2.64H61.65Zm92.21,140.16,3.16,2.63H77.45l-4.21-2.63ZM97,21.08H108v2.63H84.3ZM172.29,182.3l2.64,3.17H102.74l-7.9-3.17ZM108,290.32h60.07L165.44,293H108Zm0,10.53h47.42l-3.68,2.64H108Zm0,11.07h26.87l-10,2.63H108Zm73.24-118.55L182.3,196H131.2l-5.8-2.63Zm-41.1,85.88h37.41L176,281.36l-.53,1.05H133.83ZM186,203.91l1.06,2.63H148.58l-3.16-2.63Zm-33.72,64.8h31.09l-1.58,2.64H149.64ZM154.91,215h34.77l1.06,2.64H156.49Zm4.21,42.68h29l-1,3.16H157.54Zm1.06-32.14h31.08v2.63H160.7Zm1.58,21.6h29l-.53,2.64h-29Zm.52-10.54h29.51l-.53,2.64h-29Z"/><path class="cls-1" d="M302.44,79H231.31V10.54H451.55V79H379.89V326.67H302.44Zm58,232.89V64.28h71.66v-39H250.81v39h71.13V311.92ZM256.08,33.19H426.79v2.64H256.08Zm0,10.54H426.79v2.64H256.08Zm0,10.54H426.79V56.9H256.08Z"/><path class="cls-1" d="M471.57,10.54H548.5V208.65c0,42.15,20,56.9,46.89,56.9,29.51,0,48-14.75,48-56.9V10.54h77.45v209.7c0,74.82-55.85,117-125.4,117-72.18,0-123.82-44.26-123.82-117ZM595.39,322.46c58.49,0,105.91-36.89,105.91-102.22v-195H662.83V208.65c0,53.21-25.81,71.66-67.44,71.66-37.93,0-66.39-18.45-66.39-71.66V25.29H491.07v195C491.07,284,534.8,322.46,595.39,322.46Zm-99.05-180.2h27.4v2.63h-27.4Zm0,10.54h27.4v2.63h-27.4Zm0,10.54h27.4V166h-27.4Zm0,10.53h27.4v2.64h-27.4Zm0,10.54h27.4v2.64h-27.4Zm0,10.54h27.4v2.63h-27.4Zm0,10.54h27.4v2.63h-27.4Zm0,10.53h27.4l.52,2.64H496.34Zm0,10.54h27.92l1.06,2.64h-29Zm1.05,10.54h29l1,2.64h-29.5Zm2.11,10.54h30.56l1.05,2.63H500Zm3.16,10.54H534.8l2.63,2.63H503.19Zm4.74,10.53h36.36l3.16,2.64H509Zm52.16,10.54,6.33,2.64H515.83l-2.11-2.64Zm109.07,10.54-3.16,2.63H525.84l-2.63-2.63ZM654.4,300.33,650.19,303H540.6l-3.69-2.63Zm-21.07,10.54-10,2.63H566.94l-9.48-2.63Zm0-31.62h44.26l-2.11,2.64h-49Zm15.28-10.54h35.3l-1,2.64H646ZM657,258.18h32.14l-1.06,2.63H654.93Zm4.74-10.54h31.09l-1.06,2.63H660.73Zm3.69-10.54H695l-1.05,2.64h-29.5Zm1.58-10.54h29l-.53,2.64h-29Zm.53-10.54H696v2.64H667.58Zm.52-73.76H696v2.63H668.1Zm0,10.54H696v2.63H668.1Zm0,10.54H696V166H668.1Zm0,10.53H696v2.64H668.1Zm0,10.54H696v2.64H668.1Zm0,10.54H696v2.63H668.1Zm0,10.54H696v2.63H668.1Z"/><path class="cls-1" d="M755.56,10.54H959.47V79H833v67.45H949.46v67.44H833V326.67H755.56Zm58,301.38V199.16H930V161.23H813.52V64.28H940v-39H775.06V311.92ZM782.44,32.67H934.71V35.3H785.07ZM793,43.2H934.71v2.64H795.61Zm10.54,10.54h131.2v2.64H806.14Zm10,114.34H924.7v2.63H813.52Zm0,10.54H924.7v2.63H813.52Zm0,10.53H924.7v2.64H813.52Z"/><path class="cls-1" d="M975.81,10.54h203.9V79H1053.26v67.45H1169.7v67.44H1053.26V326.67H975.81Zm58,301.38V199.16h116.45V161.23H1033.76V64.28h126.46v-39H995.3V311.92ZM1002.68,32.67H1155V35.3H1005.31Zm10.54,10.53H1155v2.64h-139.1Zm10.53,10.54H1155v2.64H1026.39Zm10,114.34h111.18v2.63H1033.76Zm0,10.54h111.18v2.63H1033.76Zm0,10.53h111.18v2.64H1033.76Z"/></svg>