<svg id="Layer_1" data-name="Layer 1" xmlns="http://www.w3.org/2000/svg" viewBox="0 0 1223.15 357.64"><defs><style>.cls-1{fill:#2bc757;}</style></defs><path class="cls-1" d="M0,11.18H76.56l85.49,181.06L248.12,11.18h75.43V346.47H242V197.27l-73.2,160.37H155.35L82.14,196.15V346.47H0ZM61.47,330.82v-204H71l91.08,196.71,92.77-196.71h7.82v204h40.24v-304h-40.8L169.88,223H154.23L62.59,26.83H20.67v304ZM29.06,33H58.68l1.11,2.79H30.73Zm5.59,11.18H63.7l1.12,2.79H36.32Zm5.58,11.18H69.29l1.12,2.79H41.91ZM45.82,66.5h28.5l1.12,2.8H47.5Zm5.59,11.18h28.5L81,80.47H53.09Zm6.15,11.17H84.94l1.12,2.8H59.23ZM63.14,100H90l1.12,2.8H64.82Zm5.59,11.18H95L96.11,114H70.41Zm5.59,11.17H100l1.67,2.8H76Zm5.59,11.18h25.7l1.12,2.79H81.59Zm5.59,11.18h25.14l1.68,2.79H87.18Zm5,11.17h25.7l1.12,2.79H92.2Zm5,11.18h25.7l1.12,2.79H97.23Zm5,11.17h25.7l1.12,2.8H102.26Zm5.59,11.18h25.7l1.12,2.8H107.85Zm5,11.18h25.71l1.12,2.79H112.88Zm5,11.17H142.5l1.11,2.8h-25.7ZM121.82,223H147l1.67,2.8H123.5Zm5,11.18h25.7l1.68,2.79h-25.7Zm5,11.17h26.26l1.68,2.8H133.56Zm31.85,11.18,1.68,2.79H138.59l-1.68-2.79Zm5.59,11.18,1.68,2.79H143.61l-1.67-2.79Zm5,11.17,1.68,1.68-1.12,1.67H149.2l-1.67-3.35ZM171.55,290l-1.67,2.79H154.23L152.55,290Zm-5,11.17-1.68,2.8h-5.59l-1.67-2.8Zm-2.24,10.06-2.24,2.8-2.23-2.8ZM268.23,33h29.06v2.79H268.23Zm0,11.18h29.06v2.79H268.23Zm0,11.18h29.06v2.79H268.23Zm0,11.17h29.06v2.8H268.23Zm0,11.18h29.06v2.79H268.23Zm0,11.17h29.06v2.8H268.23Zm0,11.18h29.06v2.8H268.23Zm0,11.18h29.06V114H268.23Zm0,11.17h29.06v2.8H268.23Zm0,11.18h29.06v2.79H268.23Zm0,11.18h29.06v2.79H268.23Zm0,11.17h29.06v2.79H268.23Zm0,11.18h29.06v2.79H268.23Zm0,11.17h29.06v2.8H268.23Zm0,11.18h29.06v2.8H268.23Zm0,11.18h29.06v2.79H268.23Zm0,11.17h29.06v2.8H268.23Zm0,11.18h29.06v2.8H268.23Zm0,11.18h29.06v2.79H268.23Zm0,11.17h29.06v2.8H268.23Zm0,11.18h29.06v2.79H268.23Zm0,11.18h29.06v2.79H268.23Zm0,11.17h29.06v2.8H268.23Zm0,11.18h29.06v2.79H268.23Zm0,11.17h29.06V304H268.23Zm0,11.18h29.06v2.8H268.23Zm0,11.18h29.06v2.23H268.23Z"/><path class="cls-1" d="M505.69,0h14.53L684.51,346.47H596.22l-16.77-34.65H447l-16.2,34.65H342.52Zm-90,330.82L509.6,128.53h7.82l92.77,202.29h45.26L513,30.18,371.57,330.82Zm-7.26-66.5h30.73l-1.68,2.8H406.78Zm5-11.17h30.74l-1.68,2.79H412.37ZM419.07,242h30.18l-1.68,2.8H417.4Zm5-11.18h30.18l-1.68,2.8H423Zm5.59-11.17h30.18l-1.68,2.79H428Zm5-11.18H464.9l-1.68,2.8H433.6Zm5-11.17h30.17l-1.67,2.79H438.63Zm5.59-11.18h30.17l-1.67,2.79H443.66Zm5-11.18h30.17l-1.67,2.79H449.25ZM572.75,296.73,559.9,268.79H465.46l-12.3,27.94ZM456,163.74h30.17l-1.67,2.79H454.28Zm5-11.18h30.18l-1.67,2.79H459.87Zm5.59-11.18h30.18l-1.68,2.8H464.9Zm0,145.3H557.1l1.12,2.79H465.46Zm5-156.47h30.18L500.1,133H470.48Zm0,145.29h81l1.68,2.79H470.48ZM551,252.59,513,168.2h-1.11l-38.56,84.39ZM477.19,119h71l1.68,2.8H475.51Zm5-11.18h60.91l1.12,2.8H481.1Zm5-11.17h50.29l1.68,2.79H486.13Zm5.59-11.18h39.67l1.12,2.79H491.16Zm5-11.17h29l1.68,2.79H496.75Zm5.58-11.18H521.9L523,65.94H501.78Zm5-11.18h7.82L518,54.76H507.37Zm4.46-9.5,1.12,2.24h-2.23Zm11.74,87.74h29.06l1.12,2.79h-28.5Zm5,11.17h29.06l1.67,2.8H531.4Zm5,11.18h29.62l1.12,2.79H536.42Zm5,11.18H569.4l1.67,2.79H541.45Zm5,11.17H575l1.12,2.79H546.49Zm5,11.18H580l1.68,2.79H551.51Zm5,11.18H585.6l1.12,2.79H556.54Zm5,11.17h30.73l1.68,2.8H561.57Zm36.32,11.18,1.12,2.79H566.6l-1.68-2.79Zm5,11.17,1.67,2.8H571.07l-1.67-2.8ZM606.84,242l1.11,2.8H576.1l-1.68-2.8Zm5,11.18,1.68,2.79H581.13l-1.68-2.79Zm5.59,11.17,1.12,2.8h-33l-1.68-2.8Z"/><path class="cls-1" d="M703.48,11.18h82.15V160.94h1.11L883.42,11.18H974L858.83,170.44l121.27,176H889.57L786.74,183.85h-1.11V346.47H703.48ZM765,330.82v-304H724.16v304Zm137.47,0h45.83L838.72,169.88,941,26.83H896.83L799.6,171.56ZM809.1,166.53h24l-2.24,2.79h-24Zm1.67,11.17h25.71l2.24,2.8H812.45Zm6.15-22.35h25.71l-2.24,2.8h-25.7ZM818,188.88h26.27l1.67,2.24H819.16Zm6.15-44.7H851L848.77,147H822Zm.56,55.32H851l2.24,2.79H826.42ZM832,133h26.82l-2.23,2.79H829.77Zm0,77.68h26.82l2.24,2.79H833.69Zm7.26-88.85h27.39l-2.24,2.79H837Zm0,100H866.1l2.23,2.8H841Zm7.83-111.2h27.38l-2.23,2.79H844.86ZM846.54,233h27.38l2.24,2.79H848.22Zm7.82-133.56H882.3l-2.23,2.79H852.13ZM881.19,244.2l2.23,2.8H855.48l-1.67-2.8Zm-19-155.91h27.94l-2.24,2.8H860ZM889,255.38l2.24,2.8h-28.5l-1.68-2.8ZM869.45,77.12H898l-2.23,2.79h-28.5Zm26.82,189.44,2.24,2.79H869.45l-1.68-2.79ZM876.72,66.5h29l-2.23,2.8H874.48ZM904.1,277.73l2.23,2.8H876.72l-1.68-2.8ZM884,55.33H913.6l-2.24,2.79H881.75Zm27.38,233.58,2.8,2.79H884l-1.68-2.79ZM891.8,44.15h29.62l-2.24,2.79H889.57Zm27.38,255.94,2.8,2.79H891.25l-1.68-2.79ZM927,310.7l2.24,2.8H898l-1.68-2.8ZM899.07,33h30.18L927,35.76H896.83Zm35.2,288.91,2.8,2.8H905.22l-1.68-2.8Z"/><path class="cls-1" d="M995.15,11.18H1217V83.83H1077.3v60.35h129.09V215.7H1077.3v60.36h145.85v70.41h-228Zm207.32,319.64V291.7H1056.62V200.06h129.09V159.82H1056.62V68.18h139.71V26.83h-180.5v304Zm-176.58-9.5h171v2.8h-173.8Zm-2.24-286.67h167.09v2.79H1026.45Zm11.18,11.18h155.91v2.79H1037.62Zm2.79,264.32h159.27v2.79H1034.83ZM1046,57h144.74v2.8H1048.8Zm3.36,242h147.53v2.79H1046Zm7.26-131.88h123.5v2.79h-123.5Zm0,11.17h123.5v2.8h-123.5Zm0,11.18h123.5v2.8h-123.5Z"/></svg>