<?xml version="1.0" encoding="utf-8"?>
<!-- Generator: Adobe Illustrator 26.3.1, SVG Export Plug-In . SVG Version: 6.00 Build 0)  -->
<svg version="1.1"
	 id="Layer_1" xmlns:sodipodi="http://sodipodi.sourceforge.net/DTD/sodipodi-0.dtd" xmlns:dc="http://purl.org/dc/elements/1.1/" xmlns:rdf="http://www.w3.org/1999/02/22-rdf-syntax-ns#" xmlns:svg="http://www.w3.org/2000/svg" xmlns:inkscape="http://www.inkscape.org/namespaces/inkscape" xmlns:cc="http://creativecommons.org/ns#"
	 xmlns="http://www.w3.org/2000/svg" xmlns:xlink="http://www.w3.org/1999/xlink" x="0px" y="0px" viewBox="0 0 40 40"
	 style="enable-background:new 0 0 40 40;" xml:space="preserve">
<style type="text/css">
	.st0{fill:#313131;}
</style>
<g transform="translate(0,-1004.3622)">
	<path class="st0" d="M15.1,1004.4c-0.1,0-0.2,0-0.2,0C6.1,1006.9,0,1014.9,0,1024c0,11.3,9.3,20.4,20.7,20.4l0,0
		c8.5,0,16.1-5.1,19.2-12.8c0.2-0.5,0-1.1-0.6-1.3c-0.2-0.1-0.4-0.1-0.7,0c-1.7,0.5-3.5,0.7-5.3,0.8c-10.4,0-18.7-8.2-18.7-18.4l0,0
		c0-2.3,0.5-4.6,1.3-6.8c0.2-0.5,0-1.1-0.5-1.3C15.4,1004.4,15.3,1004.4,15.1,1004.4L15.1,1004.4z M13.6,1007.2
		c-0.5,1.7-0.8,3.5-0.8,5.3c0,11.3,9.3,20.4,20.7,20.4l0,0c1.2,0,2.4-0.3,3.6-0.5c-3.2,6-9.4,9.9-16.4,9.9
		c-10.4,0-18.7-8.2-18.7-18.4l0,0C2,1016.5,6.7,1010,13.6,1007.2L13.6,1007.2z"/>
</g>
</svg>
