<svg id="Layer_1" data-name="Layer 1" xmlns="http://www.w3.org/2000/svg" viewBox="0 0 43 31.01"><path d="M37.35,6.69h-.13a.87.87,0,0,0-.32.11,9,9,0,0,0-7.41,8.83v.06s0,.05,0,.07a1,1,0,0,0,.57.84,9.49,9.49,0,0,1,5.27,6.94,1,1,0,0,0,.72.79,9.18,9.18,0,0,0,2.45.35h0a9,9,0,0,0,7.85-4.63A1,1,0,0,0,46,18.7a1,1,0,0,0-.64-.12,6.48,6.48,0,0,1-1,.08h0a7,7,0,0,1-7-7,7.27,7.27,0,0,1,.9-3.45,1,1,0,0,0-.38-1.36,1,1,0,0,0-.51-.12ZM35.65,9.3a9.47,9.47,0,0,0-.31,2.32,9,9,0,0,0,7.95,8.83,6.82,6.82,0,0,1-4.78,2.23,7.36,7.36,0,0,1-1.41-.19,11.44,11.44,0,0,0-5.53-7.28A6.93,6.93,0,0,1,35.65,9.3Z" transform="translate(-3.49 -6.69)"/><path d="M26.52,13.69a1.12,1.12,0,0,0-.32,0A12.43,12.43,0,0,0,15.82,19.8c-3.25-1.06-6.93-.75-9.48,1.74A9.37,9.37,0,0,0,4.11,31.61a9.53,9.53,0,0,0,8.4,6.08c22.18-.1-11,.09,13.75,0,7,0,10.78-6.13,11.09-10.14a12.08,12.08,0,0,0-7.73-13.23,10.2,10.2,0,0,0-3.1-.6Zm-.07,2h0a8.32,8.32,0,0,1,2.48.48,10.06,10.06,0,0,1,6.43,11A9.88,9.88,0,0,1,26,35.68c-5.17.11-7.88.07-13.41,0A7.49,7.49,0,0,1,6,30.9,7.37,7.37,0,0,1,7.73,23c2-2.23,4.89-2.09,8.06-1.12a1.36,1.36,0,0,0,1.4-.57c2.08-3.17,5.63-5.72,9.26-5.59Z" transform="translate(-3.49 -6.69)"/></svg>