<?xml version="1.0" encoding="utf-8"?>
<!-- Generator: Adobe Illustrator 26.3.1, SVG Export Plug-In . SVG Version: 6.00 Build 0)  -->
<svg version="1.1"
	 id="Layer_1" xmlns:sodipodi="http://sodipodi.sourceforge.net/DTD/sodipodi-0.dtd" xmlns:dc="http://purl.org/dc/elements/1.1/" xmlns:rdf="http://www.w3.org/1999/02/22-rdf-syntax-ns#" xmlns:svg="http://www.w3.org/2000/svg" xmlns:inkscape="http://www.inkscape.org/namespaces/inkscape" xmlns:cc="http://creativecommons.org/ns#"
	 xmlns="http://www.w3.org/2000/svg" xmlns:xlink="http://www.w3.org/1999/xlink" x="0px" y="0px" viewBox="0 0 48 34"
	 style="enable-background:new 0 0 48 34;" xml:space="preserve">
<style type="text/css">
	.st0{fill:#313131;}
</style>
<g transform="translate(0,-1004.3622)">
	<path class="st0" d="M32.6,1004.4c-0.1,0-0.2,0-0.2,0c-6,0-11.7,3.5-14.9,8.9c-4.6-1.6-9.9-1.2-13.5,2.3l0,0
		c-3.7,3.7-4.9,9.2-3.1,14.2h0c1.9,4.9,6.4,8.3,11.7,8.5c6.8,0,13.6,0,19.4,0c8-0.2,14.6-6.3,15.8-14.4l0,0
		c1.3-8.1-3.3-16-10.9-18.7h0c-1.4-0.5-2.8-0.8-4.3-0.9C32.7,1004.4,32.7,1004.4,32.6,1004.4C32.6,1004.4,32.6,1004.4,32.6,1004.4
		L32.6,1004.4z M32.6,1006.4c1.2,0.1,2.5,0.3,3.7,0.8c6.7,2.4,10.7,9.3,9.5,16.5l0,0c-1.1,7.2-6.9,12.5-13.9,12.7H12.6
		c-4.5-0.2-8.3-3.1-9.9-7.2c-1.6-4.2-0.6-8.9,2.6-12c3.1-3,7.8-3.3,12.1-1.7c0.7,0.2,1.2-0.1,1.5-0.6
		C21.9,1009.7,27.2,1006.2,32.6,1006.4L32.6,1006.4z"/>
</g>
</svg>
