<?xml version="1.0" encoding="utf-8"?>
<!-- Generator: Adobe Illustrator 26.3.1, SVG Export Plug-In . SVG Version: 6.00 Build 0)  -->
<svg version="1.1"
	 id="Layer_1" xmlns:sodipodi="http://sodipodi.sourceforge.net/DTD/sodipodi-0.dtd" xmlns:dc="http://purl.org/dc/elements/1.1/" xmlns:rdf="http://www.w3.org/1999/02/22-rdf-syntax-ns#" xmlns:svg="http://www.w3.org/2000/svg" xmlns:inkscape="http://www.inkscape.org/namespaces/inkscape" xmlns:cc="http://creativecommons.org/ns#"
	 xmlns="http://www.w3.org/2000/svg" xmlns:xlink="http://www.w3.org/1999/xlink" x="0px" y="0px" viewBox="0 0 30 48"
	 style="enable-background:new 0 0 30 48;" xml:space="preserve">
<style type="text/css">
	.st0{fill:#313131;}
</style>
<g transform="translate(0,-1004.3622)">
	<path class="st0" d="M11.4,1004.4c-0.1,0-0.2,0-0.2,0c-6.6,1.9-11.2,7.9-11.2,14.7c0,8.4,7,15.3,15.5,15.3c0,0,0,0,0,0
		c6.3,0,12-3.8,14.4-9.6c0.2-0.5,0-1.1-0.6-1.3c-0.2-0.1-0.4-0.1-0.7,0c-1.2,0.4-2.5,0.5-3.8,0.5c-7.5,0-13.5-5.9-13.5-13.3
		c0-1.7,0.3-3.4,1-4.9c0.2-0.5,0-1.1-0.5-1.3C11.7,1004.4,11.5,1004.4,11.4,1004.4L11.4,1004.4z M9.9,1007.2
		c-0.3,1.1-0.5,2.3-0.5,3.5c0,8.4,7,15.3,15.5,15.3c0,0,0,0,0,0c0.7,0,1.4-0.2,2.2-0.3c-2.4,4.1-6.7,6.7-11.6,6.7
		c-7.5,0-13.5-5.9-13.5-13.3C2,1013.9,5.2,1009.4,9.9,1007.2L9.9,1007.2z"/>
	<path class="st0" d="M6,1036.4c-0.3,0-0.6,0.2-0.8,0.4c0,0-0.5,0.8-1,1.7c-0.3,0.5-0.5,0.9-0.7,1.4c-0.2,0.5-0.4,0.9-0.4,1.5
		c0,1.6,1.4,3,3,3s3-1.4,3-3c0-0.6-0.2-1-0.4-1.5c-0.2-0.5-0.5-1-0.7-1.4c-0.5-0.9-1-1.7-1-1.7C6.6,1036.5,6.3,1036.4,6,1036.4z
		 M6,1039.2c0.1,0.1,0.1,0.1,0.1,0.2c0.2,0.4,0.5,0.9,0.6,1.2c0.2,0.4,0.2,0.7,0.2,0.7c0,0.6-0.4,1-1,1s-1-0.4-1-1
		c0,0,0.1-0.3,0.2-0.7c0.2-0.4,0.4-0.8,0.6-1.2C5.9,1039.3,5.9,1039.3,6,1039.2z"/>
	<path class="st0" d="M24,1036.4c-0.3,0-0.6,0.2-0.8,0.4c0,0-0.5,0.8-1,1.7c-0.3,0.5-0.5,0.9-0.7,1.4c-0.2,0.5-0.4,0.9-0.4,1.5
		c0,1.6,1.4,3,3,3c1.6,0,3-1.4,3-3c0-0.6-0.2-1-0.4-1.5c-0.2-0.5-0.5-1-0.7-1.4c-0.5-0.9-1-1.7-1-1.7
		C24.6,1036.5,24.3,1036.4,24,1036.4z M24,1039.2c0.1,0.1,0.1,0.1,0.1,0.2c0.2,0.4,0.5,0.9,0.6,1.2c0.2,0.4,0.2,0.7,0.2,0.7
		c0,0.6-0.4,1-1,1s-1-0.4-1-1c0,0,0.1-0.3,0.2-0.7c0.2-0.4,0.4-0.8,0.6-1.2C23.9,1039.3,23.9,1039.3,24,1039.2z"/>
	<path class="st0" d="M15,1044.4c-0.3,0-0.6,0.2-0.8,0.4c0,0-0.5,0.8-1,1.7c-0.3,0.5-0.5,0.9-0.7,1.4c-0.2,0.5-0.4,0.9-0.4,1.5
		c0,1.6,1.4,3,3,3s3-1.4,3-3c0-0.6-0.2-1-0.4-1.5c-0.2-0.5-0.5-1-0.7-1.4c-0.5-0.9-1-1.7-1-1.7C15.6,1044.5,15.3,1044.4,15,1044.4z
		 M15,1047.2c0.1,0.1,0.1,0.1,0.1,0.2c0.2,0.4,0.5,0.9,0.6,1.2c0.2,0.4,0.2,0.7,0.2,0.7c0,0.6-0.4,1-1,1s-1-0.4-1-1
		c0,0,0.1-0.3,0.2-0.7c0.2-0.4,0.4-0.8,0.6-1.2C14.9,1047.3,14.9,1047.3,15,1047.2z"/>
</g>
</svg>
