<?xml version="1.0" encoding="utf-8"?>
<!-- Generator: Adobe Illustrator 26.3.1, SVG Export Plug-In . SVG Version: 6.00 Build 0)  -->
<svg version="1.1"
	 id="Layer_1" xmlns:sodipodi="http://sodipodi.sourceforge.net/DTD/sodipodi-0.dtd" xmlns:dc="http://purl.org/dc/elements/1.1/" xmlns:rdf="http://www.w3.org/1999/02/22-rdf-syntax-ns#" xmlns:svg="http://www.w3.org/2000/svg" xmlns:inkscape="http://www.inkscape.org/namespaces/inkscape" xmlns:cc="http://creativecommons.org/ns#"
	 xmlns="http://www.w3.org/2000/svg" xmlns:xlink="http://www.w3.org/1999/xlink" x="0px" y="0px" viewBox="0 0 48 41"
	 style="enable-background:new 0 0 48 41;" xml:space="preserve">
<style type="text/css">
	.st0{fill:#313131;}
	.st1{fill-rule:evenodd;clip-rule:evenodd;fill:#313131;}
</style>
<g transform="translate(0,-1004.3622)">
	<path class="st0" d="M24,1016.4c-2.1,0-4.2,0.5-6,1.6c-3.7,2.1-6,6.1-6,10.4c0,0.6,0.5,1,1,1l11,0l11,0.1c0.6,0,1-0.4,1-1
		c0,0,0,0,0,0c0-4.3-2.3-8.2-6-10.4C28.2,1016.9,26.1,1016.4,24,1016.4L24,1016.4z M24,1018.4c1.7,0,3.5,0.5,5,1.3
		c2.8,1.6,4.5,4.5,4.9,7.6l-9.9-0.1c0,0,0,0,0,0l-9.9,0c0.3-3.2,2.1-6,4.9-7.6C20.5,1018.8,22.3,1018.4,24,1018.4L24,1018.4z"/>
	<path class="st1" d="M24,1004.4c-0.6,0-1,0.5-1,1c0,0,0,0,0,0v5c0,0.6,0.4,1,1,1s1-0.4,1-1c0,0,0,0,0,0v-5
		C25,1004.8,24.6,1004.4,24,1004.4C24,1004.4,24,1004.4,24,1004.4z"/>
	<path class="st1" d="M41,1010.4c-0.3,0-0.5,0.1-0.7,0.3l-4,4c-0.4,0.4-0.4,1,0,1.4s1,0.4,1.4,0c0,0,0,0,0,0l4-4
		c0.4-0.4,0.4-1,0-1.4C41.5,1010.5,41.2,1010.4,41,1010.4z"/>
	<path class="st1" d="M7,1010.4c-0.6,0-1,0.4-1,1c0,0.3,0.1,0.5,0.3,0.7l4,4c0.4,0.4,1,0.4,1.4,0c0.4-0.4,0.4-1,0-1.4c0,0,0,0,0,0
		l-4-4C7.5,1010.5,7.3,1010.4,7,1010.4z"/>
	<path class="st1" d="M42,1027.4c-0.6,0-1,0.4-1,1c0,0.6,0.4,1,1,1c0,0,0,0,0,0h5c0.6,0,1-0.4,1-1c0-0.6-0.4-1-1-1c0,0,0,0,0,0H42z"
		/>
	<path class="st1" d="M1,1027.4c-0.6,0-1,0.4-1,1c0,0.6,0.4,1,1,1c0,0,0,0,0,0h5c0.6,0,1-0.4,1-1c0-0.6-0.4-1-1-1c0,0,0,0,0,0
		C6,1027.4,1,1027.4,1,1027.4z"/>
	<path class="st1" d="M17,1033.4c-0.3,0-0.5,0.1-0.7,0.3l-2,2c-0.4,0.4-0.4,1,0,1.4s1,0.4,1.4,0c0,0,0,0,0,0l2-2
		c0.4-0.4,0.4-1,0-1.4C17.5,1033.5,17.2,1033.4,17,1033.4z"/>
	<path class="st1" d="M25,1033.4c-0.3,0-0.5,0.1-0.7,0.3l-2,2c-0.4,0.4-0.4,1,0,1.4c0.4,0.4,1,0.4,1.4,0c0,0,0,0,0,0l2-2
		c0.4-0.4,0.4-1,0-1.4C25.5,1033.5,25.2,1033.4,25,1033.4z"/>
	<path class="st1" d="M33,1033.4c-0.3,0-0.5,0.1-0.7,0.3l-2,2c-0.4,0.4-0.4,1,0,1.4s1,0.4,1.4,0c0,0,0,0,0,0l2-2
		c0.4-0.4,0.4-1,0-1.4C33.5,1033.5,33.2,1033.4,33,1033.4L33,1033.4z"/>
	<path class="st1" d="M41,1033.4c-0.3,0-0.5,0.1-0.7,0.3l-2,2c-0.4,0.4-0.4,1,0,1.4s1,0.4,1.4,0c0,0,0,0,0,0l2-2
		c0.4-0.4,0.4-1,0-1.4C41.5,1033.5,41.2,1033.4,41,1033.4z"/>
	<path class="st1" d="M9,1033.4c-0.3,0-0.5,0.1-0.7,0.3l-2,2c-0.4,0.4-0.4,1,0,1.4c0.4,0.4,1,0.4,1.4,0c0,0,0,0,0,0l2-2
		c0.4-0.4,0.4-1,0-1.4C9.5,1033.5,9.3,1033.4,9,1033.4z"/>
	<path class="st1" d="M21,1041.4c-0.3,0-0.5,0.1-0.7,0.3l-2,2c-0.4,0.4-0.4,1,0,1.4c0.4,0.4,1,0.4,1.4,0c0,0,0,0,0,0l2-2
		c0.4-0.4,0.4-1,0-1.4C21.5,1041.5,21.2,1041.4,21,1041.4z"/>
	<path class="st1" d="M29,1041.4c-0.3,0-0.5,0.1-0.7,0.3l-2,2c-0.4,0.4-0.4,1,0,1.4s1,0.4,1.4,0c0,0,0,0,0,0l2-2
		c0.4-0.4,0.4-1,0-1.4C29.5,1041.5,29.2,1041.4,29,1041.4z"/>
	<path class="st1" d="M37,1041.4c-0.3,0-0.5,0.1-0.7,0.3l-2,2c-0.4,0.4-0.4,1,0,1.4s1,0.4,1.4,0c0,0,0,0,0,0l2-2
		c0.4-0.4,0.4-1,0-1.4C37.5,1041.5,37.2,1041.4,37,1041.4z"/>
	<path class="st1" d="M13,1041.4c-0.3,0-0.5,0.1-0.7,0.3l-2,2c-0.4,0.4-0.4,1,0,1.4c0.4,0.4,1,0.4,1.4,0c0,0,0,0,0,0l2-2
		c0.4-0.4,0.4-1,0-1.4C13.5,1041.5,13.3,1041.4,13,1041.4z"/>
</g>
</svg>
