<?xml version="1.0" encoding="utf-8"?>
<!-- Generator: Adobe Illustrator 26.3.1, SVG Export Plug-In . SVG Version: 6.00 Build 0)  -->
<svg version="1.1"
	 id="Layer_1" xmlns:sodipodi="http://sodipodi.sourceforge.net/DTD/sodipodi-0.dtd" xmlns:dc="http://purl.org/dc/elements/1.1/" xmlns:rdf="http://www.w3.org/1999/02/22-rdf-syntax-ns#" xmlns:svg="http://www.w3.org/2000/svg" xmlns:inkscape="http://www.inkscape.org/namespaces/inkscape" xmlns:cc="http://creativecommons.org/ns#"
	 xmlns="http://www.w3.org/2000/svg" xmlns:xlink="http://www.w3.org/1999/xlink" x="0px" y="0px" viewBox="0 0 43 46"
	 style="enable-background:new 0 0 43 46;" xml:space="preserve">
<style type="text/css">
	.st0{fill-rule:evenodd;clip-rule:evenodd;fill:#313131;}
	.st1{fill:#313131;}
</style>
<g transform="translate(0,-1004.3622)">
	<path class="st0" d="M12,1039.4c-0.3,0-0.5,0.1-0.7,0.3l-2,2c-0.4,0.4-0.4,1,0,1.4c0.4,0.4,1,0.4,1.4,0c0,0,0,0,0,0l2-2
		c0.4-0.4,0.4-1,0-1.4C12.5,1039.5,12.3,1039.4,12,1039.4z"/>
	<path class="st0" d="M20,1039.4c-0.3,0-0.5,0.1-0.7,0.3l-2,2c-0.4,0.4-0.4,1,0,1.4c0.4,0.4,1,0.4,1.4,0c0,0,0,0,0,0l2-2
		c0.4-0.4,0.4-1,0-1.4C20.5,1039.5,20.3,1039.4,20,1039.4z"/>
	<path class="st0" d="M4,1039.4c-0.3,0-0.5,0.1-0.7,0.3l-2,2c-0.4,0.4-0.4,1,0,1.4s1,0.4,1.4,0c0,0,0,0,0,0l2-2c0.4-0.4,0.4-1,0-1.4
		C4.5,1039.5,4.3,1039.4,4,1039.4L4,1039.4z"/>
	<path class="st1" d="M33.9,1004.4c0,0-0.1,0-0.1,0h0c0,0,0,0,0,0c-0.1,0-0.2,0.1-0.3,0.1c-4.3,0.8-7.4,4.5-7.4,8.8c0,0,0,0,0,0.1
		c0,0,0,0.1,0,0.1c0,0.4,0.2,0.7,0.6,0.8c2.8,1.3,4.7,3.9,5.3,6.9c0.1,0.4,0.3,0.7,0.7,0.8c0.8,0.2,1.6,0.3,2.5,0.3c0,0,0,0,0,0
		c3.3,0,6.3-1.8,7.9-4.6c0.3-0.5,0.1-1.1-0.4-1.4c-0.2-0.1-0.4-0.1-0.6-0.1c-0.3,0-0.7,0.1-1,0.1c0,0,0,0,0,0c-3.9,0-7-3.1-7-7
		c0-1.2,0.3-2.4,0.9-3.4c0.3-0.5,0.1-1.1-0.4-1.4C34.2,1004.4,34,1004.4,33.9,1004.4L33.9,1004.4z M32.2,1007
		c-0.2,0.8-0.3,1.5-0.3,2.3c0,4.6,3.5,8.3,7.9,8.8c-1.3,1.3-2.9,2.2-4.8,2.2c-0.5,0-0.9-0.1-1.4-0.2c-0.8-3.1-2.7-5.7-5.5-7.3
		C28.2,1010.2,29.8,1008,32.2,1007z"/>
	<path class="st1" d="M23,1011.4c-0.1,0-0.2,0-0.3,0c-4.2,0-8.1,2.4-10.4,6.1c-3.3-1.1-6.9-0.7-9.5,1.7c-2.7,2.6-3.6,6.6-2.2,10.1
		c1.3,3.5,4.6,5.9,8.4,6.1c0,0,0,0,0.1,0h13.5c0.1,0,0.3,0,0.4-0.1c5.5-0.4,10-4.5,10.9-10.1c0.9-5.7-2.4-11.3-7.7-13.2
		C25.1,1011.6,24.1,1011.4,23,1011.4L23,1011.4z M23,1013.4C23,1013.4,23,1013.4,23,1013.4c0.8,0,1.7,0.2,2.5,0.5
		c4.5,1.6,7.2,6.2,6.4,11c-0.7,4.8-4.7,8.3-9.4,8.5c0,0-0.1,0-0.1,0H9.1c-3-0.2-5.6-2-6.6-4.8c-1.1-2.8-0.4-5.9,1.8-7.9
		c2.1-2,5.2-2.2,8.1-1.1c0,0,0,0,0,0c0,0,0.1,0,0.1,0c0,0,0,0,0.1,0c0,0,0.1,0,0.1,0c0,0,0.1,0,0.1,0c0,0,0.1,0,0.1,0
		c0.1,0,0.2,0,0.3-0.1c0.1,0,0.1-0.1,0.2-0.1c0,0,0.1,0,0.1-0.1c0,0,0,0,0,0l0,0l0.1-0.1c0.1-0.1,0.1-0.2,0.2-0.2
		C15.6,1015.5,19.3,1013.2,23,1013.4L23,1013.4z"/>
	<path class="st0" d="M28,1039.4c-0.3,0-0.5,0.1-0.7,0.3l-2,2c-0.4,0.4-0.4,1,0,1.4c0.4,0.4,1,0.4,1.4,0c0,0,0,0,0,0l2-2
		c0.4-0.4,0.4-1,0-1.4C28.5,1039.5,28.3,1039.4,28,1039.4L28,1039.4z"/>
	<path class="st0" d="M8,1046.4c-0.3,0-0.5,0.1-0.7,0.3l-2,2c-0.4,0.4-0.4,1,0,1.4s1,0.4,1.4,0c0,0,0,0,0,0l2-2c0.4-0.4,0.4-1,0-1.4
		C8.5,1046.5,8.3,1046.4,8,1046.4L8,1046.4z"/>
	<path class="st0" d="M16,1046.4c-0.3,0-0.5,0.1-0.7,0.3l-2,2c-0.4,0.4-0.4,1,0,1.4s1,0.4,1.4,0c0,0,0,0,0,0l2-2
		c0.4-0.4,0.4-1,0-1.4C16.5,1046.5,16.3,1046.4,16,1046.4L16,1046.4z"/>
	<path class="st0" d="M24,1046.4c-0.3,0-0.5,0.1-0.7,0.3l-2,2c-0.4,0.4-0.4,1,0,1.4c0.4,0.4,1,0.4,1.4,0c0,0,0,0,0,0l2-2
		c0.4-0.4,0.4-1,0-1.4C24.5,1046.5,24.3,1046.4,24,1046.4L24,1046.4z"/>
</g>
</svg>
