<?xml version="1.0" encoding="utf-8"?>
<!-- Generator: Adobe Illustrator 26.3.1, SVG Export Plug-In . SVG Version: 6.00 Build 0)  -->
<svg version="1.1"
	 id="Layer_1" xmlns:sodipodi="http://sodipodi.sourceforge.net/DTD/sodipodi-0.dtd" xmlns:dc="http://purl.org/dc/elements/1.1/" xmlns:rdf="http://www.w3.org/1999/02/22-rdf-syntax-ns#" xmlns:svg="http://www.w3.org/2000/svg" xmlns:inkscape="http://www.inkscape.org/namespaces/inkscape" xmlns:cc="http://creativecommons.org/ns#"
	 xmlns="http://www.w3.org/2000/svg" xmlns:xlink="http://www.w3.org/1999/xlink" x="0px" y="0px" viewBox="0 0 48 48"
	 style="enable-background:new 0 0 48 48;" xml:space="preserve">
<style type="text/css">
	.st0{fill:#313131;}
	.st1{fill-rule:evenodd;clip-rule:evenodd;fill:#313131;}
</style>
<g transform="translate(0,-1004.3622)">
	<path class="st0" d="M27.6,1005c3.8,1.4,6.5,4.6,7.7,8.4c0.4,0,0.7,0,1.1-0.1l0,0c1.1,0,2.2,0.2,3.3,0.6c5.7,2,9.1,7.8,8.2,13.8
		c-0.9,5.8-5.7,10.1-11.5,10.5c-5.1,0.2-10.4,0.1-14.8,0.1c-4-0.2-7.5-2.7-8.9-6.3c-0.2-0.6-0.4-1.1-0.5-1.7H9.6c0,0,0,0-0.1,0
		c-4-0.2-7.4-2.8-8.9-6.6c-1.4-3.8-0.5-8,2.3-10.9c2.7-2.7,6.6-3,10-1.9c2.4-4,6.6-6.7,11-6.6C25.2,1004.4,26.6,1004.6,27.6,1005
		L27.6,1005z M24.3,1006.3L24.3,1006.3c-3.9-0.1-7.8,2.3-9.9,6.1c0,0.1-0.1,0.2-0.2,0.2l-0.2,0.2c-0.3,0.3-0.7,0.4-1.1,0.2
		c-3-1.2-6.4-1-8.6,1.2c-2.3,2.3-3,5.7-1.9,8.8c1.1,3,3.9,5.1,7.1,5.3H12c0,0,0,0,0,0c0-0.3,0-0.6,0.1-0.9c0,0,0,0,0,0
		c0.1-0.9,0.4-1.8,0.7-2.7c0.5-1.3,1.3-2.2,2.2-3.2c2.7-2.6,6.6-2.9,10-1.8c1.5-2.4,3.7-4.3,6.2-5.3c0.7-0.3,1.4-0.5,2.1-0.7
		c-1-3.1-3.2-5.7-6.3-6.8C26.1,1006.5,25.2,1006.4,24.3,1006.3L24.3,1006.3z M36.3,1015.3L36.3,1015.3c-0.5,0-1,0-1.6,0.1
		c0,0,0,0-0.1,0c-0.8,0.1-1.6,0.3-2.4,0.6c-2.5,1-4.6,2.8-5.9,5.2c-0.1,0.1-0.1,0.2-0.2,0.2l-0.1,0.1l0,0c0,0,0,0-0.1,0
		c0,0,0,0-0.1,0c0,0,0,0,0,0l0,0c0,0,0,0-0.1,0c0,0,0,0-0.1,0c0,0,0,0,0,0c0,0,0,0,0,0c0,0,0,0,0,0c0,0,0,0-0.1,0c0,0,0,0,0,0
		c-0.2,0-0.4,0-0.6,0c-2.8-1.1-6-1-8.2,0.8c-0.1,0.1-0.3,0.2-0.4,0.4c0,0,0,0,0,0c-1.6,1.6-2.3,3.6-2.3,5.7c0,0.2,0,0.3,0,0.5
		c0.1,0.7,0.2,1.4,0.5,2.1c1.1,2.9,3.9,4.9,7.1,5h14.2c0,0,0.1,0,0.1,0c5-0.2,9.2-3.9,10-8.9c0.8-5-2.1-9.9-6.9-11.6
		C38.1,1015.5,37.2,1015.3,36.3,1015.3L36.3,1015.3z"/>
	<path class="st1" d="M32,1047.4c-0.3,0-0.5,0.1-0.7,0.3l-2,2c-0.4,0.4-0.4,1,0,1.4s1,0.4,1.4,0c0,0,0,0,0,0l2-2
		c0.4-0.4,0.4-1,0-1.4C32.5,1047.5,32.3,1047.4,32,1047.4L32,1047.4z"/>
	<path class="st1" d="M16,1047.4c-0.3,0-0.5,0.1-0.7,0.3l-2,2c-0.4,0.4-0.4,1,0,1.4c0.4,0.4,1,0.4,1.4,0c0,0,0,0,0,0l2-2
		c0.4-0.4,0.4-1,0-1.4C16.5,1047.5,16.3,1047.4,16,1047.4L16,1047.4z"/>
	<path class="st1" d="M26,1039.4c-0.3,0-0.6,0.1-0.8,0.4l-5,6c-0.4,0.4-0.3,1.1,0.1,1.4c0.2,0.2,0.5,0.3,0.8,0.2l3.3-0.6l-3.3,3.9
		c-0.4,0.4-0.3,1,0.1,1.4c0.4,0.4,1,0.3,1.4-0.1c0,0,0,0,0,0l5-6c0.4-0.4,0.3-1.1-0.1-1.4c-0.2-0.2-0.5-0.3-0.8-0.2l-3.3,0.6
		l3.3-3.9c0.4-0.4,0.3-1.1-0.1-1.4C26.5,1039.4,26.2,1039.4,26,1039.4z"/>
	<path class="st1" d="M8,1047.4c-0.3,0-0.5,0.1-0.7,0.3l-2,2c-0.4,0.4-0.4,1,0,1.4s1,0.4,1.4,0c0,0,0,0,0,0l2-2c0.4-0.4,0.4-1,0-1.4
		C8.5,1047.5,8.3,1047.4,8,1047.4z"/>
	<path class="st1" d="M40,1047.4c-0.3,0-0.5,0.1-0.7,0.3l-2,2c-0.4,0.4-0.4,1,0,1.4c0.4,0.4,1,0.4,1.4,0c0,0,0,0,0,0l2-2
		c0.4-0.4,0.4-1,0-1.4C40.5,1047.5,40.3,1047.4,40,1047.4L40,1047.4z"/>
	<path class="st1" d="M42,1040.4c-0.3,0-0.5,0.1-0.7,0.3l-2,2c-0.4,0.4-0.4,1,0,1.4c0.4,0.4,1,0.4,1.4,0c0,0,0,0,0,0l2-2
		c0.4-0.4,0.4-1,0-1.4C42.5,1040.5,42.3,1040.4,42,1040.4L42,1040.4z"/>
	<path class="st1" d="M34,1040.4c-0.3,0-0.5,0.1-0.7,0.3l-2,2c-0.4,0.4-0.4,1,0,1.4s1,0.4,1.4,0c0,0,0,0,0,0l2-2
		c0.4-0.4,0.4-1,0-1.4C34.5,1040.5,34.3,1040.4,34,1040.4L34,1040.4z"/>
	<path class="st1" d="M18,1040.4c-0.3,0-0.5,0.1-0.7,0.3l-2,2c-0.4,0.4-0.4,1,0,1.4s1,0.4,1.4,0c0,0,0,0,0,0l2-2
		c0.4-0.4,0.4-1,0-1.4C18.5,1040.5,18.3,1040.4,18,1040.4L18,1040.4z"/>
	<path class="st1" d="M10,1040.4c-0.3,0-0.5,0.1-0.7,0.3l-2,2c-0.4,0.4-0.4,1,0,1.4c0.4,0.4,1,0.4,1.4,0c0,0,0,0,0,0l2-2
		c0.4-0.4,0.4-1,0-1.4C10.5,1040.5,10.3,1040.4,10,1040.4L10,1040.4z"/>
</g>
</svg>
