<?xml version="1.0" encoding="utf-8"?>
<!-- Generator: Adobe Illustrator 26.3.1, SVG Export Plug-In . SVG Version: 6.00 Build 0)  -->
<svg version="1.1"
	 id="Layer_1" xmlns:sodipodi="http://sodipodi.sourceforge.net/DTD/sodipodi-0.dtd" xmlns:dc="http://purl.org/dc/elements/1.1/" xmlns:rdf="http://www.w3.org/1999/02/22-rdf-syntax-ns#" xmlns:svg="http://www.w3.org/2000/svg" xmlns:inkscape="http://www.inkscape.org/namespaces/inkscape" xmlns:cc="http://creativecommons.org/ns#"
	 xmlns="http://www.w3.org/2000/svg" xmlns:xlink="http://www.w3.org/1999/xlink" x="0px" y="0px" viewBox="0 0 48 48"
	 style="enable-background:new 0 0 48 48;" xml:space="preserve">
<style type="text/css">
	.st0{fill:#313131;}
	.st1{fill-rule:evenodd;clip-rule:evenodd;fill:#313131;}
</style>
<g transform="translate(0,-1004.3622)">
	<path class="st0" d="M22.7,1014.4c-4.2,0-8.1,2.4-10.4,6.1c-3.3-1.1-6.9-0.7-9.5,1.7c-2.7,2.6-3.6,6.6-2.2,10.1
		c1.3,3.5,4.6,5.9,8.4,6.1c0,0,0,0,0.1,0h13.5c0.1,0,0.3,0,0.4-0.1c5.5-0.4,10-4.5,10.9-10.1c0.9-5.7-2.4-11.3-7.7-13.2
		C25,1014.5,23.7,1014.4,22.7,1014.4L22.7,1014.4z M23,1016.4L23,1016.4c0.8,0,1.7,0.2,2.5,0.5c4.5,1.6,7.2,6.2,6.4,11
		c-0.7,4.8-4.7,8.3-9.4,8.5c0,0-0.1,0-0.1,0H9.1c-3-0.2-5.6-2-6.6-4.8c-1.1-2.8-0.4-5.9,1.8-7.9c2.1-2,5.2-2.2,8.1-1.1h0
		c0,0,0.1,0,0.1,0c0,0,0,0,0.1,0c0,0,0.1,0,0.1,0h0.1c0.1,0,0.1,0,0.2,0c0,0,0.1,0,0.1,0c0,0,0.1,0,0.1,0c0.1,0,0.1-0.1,0.2-0.1
		c0,0,0.1,0,0.1-0.1c0,0,0,0,0,0l0,0l0.1-0.1c0.1-0.1,0.1-0.2,0.2-0.2C15.6,1018.5,19.3,1016.2,23,1016.4L23,1016.4z"/>
	<path class="st0" d="M32.6,1011.4c-2.8,0.2-5.3,1.8-6.5,4.5c-0.6,1.2,1.3,2.1,1.8,0.8c1.2-2.7,4.1-3.9,6.9-3.1
		c2.8,0.8,4.5,3.6,4.1,6.6c-0.4,3-2.9,5.1-5.7,5.1c-1.4,0-1.4,2,0,2c3.9,0,7.2-2.9,7.7-6.9c0.5-3.9-1.8-7.7-5.5-8.8
		C34.5,1011.4,33.5,1011.3,32.6,1011.4L32.6,1011.4z"/>
	<path class="st1" d="M33,1004.4c-0.6,0-1,0.5-1,1c0,0,0,0,0,0v3c0,0.6,0.4,1,1,1c0.6,0,1-0.4,1-1c0,0,0,0,0,0v-3
		C34,1004.8,33.6,1004.4,33,1004.4C33,1004.4,33,1004.4,33,1004.4z"/>
	<path class="st1" d="M43,1008.4c-0.3,0-0.5,0.1-0.7,0.3l-2,2c-0.4,0.4-0.4,1,0,1.4s1,0.4,1.4,0c0,0,0,0,0,0l2-2
		c0.4-0.4,0.4-1,0-1.4C43.5,1008.5,43.2,1008.4,43,1008.4z"/>
	<path class="st1" d="M41,1026.4c-0.6,0-1,0.4-1,1c0,0.3,0.1,0.5,0.3,0.7l2,2c0.4,0.4,1,0.4,1.4,0s0.4-1,0-1.4c0,0,0,0,0,0l-2-2
		C41.5,1026.5,41.3,1026.4,41,1026.4z"/>
	<path class="st1" d="M44,1017.4c-0.6,0-1,0.4-1,1c0,0.6,0.4,1,1,1c0,0,0,0,0,0h3c0.6,0,1-0.4,1-1c0-0.6-0.4-1-1-1c0,0,0,0,0,0H44z"
		/>
	<path class="st1" d="M23,1008.4c-0.6,0-1,0.4-1,1c0,0.3,0.1,0.5,0.3,0.7l2,2c0.4,0.4,1,0.4,1.4,0c0.4-0.4,0.4-1,0-1.4c0,0,0,0,0,0
		l-2-2C23.5,1008.5,23.3,1008.4,23,1008.4z"/>
	<path class="st1" d="M8,1043.4c-0.6,0-1,0.5-1,1c0,0,0,0,0,0v7c0,0.6,0.4,1,1,1s1-0.4,1-1c0,0,0,0,0,0v-7
		C9,1043.8,8.6,1043.4,8,1043.4C8,1043.4,8,1043.4,8,1043.4z"/>
	<path class="st1" d="M11,1045.4c-0.2,0-0.3,0-0.5,0.1l-6,3c-0.5,0.2-0.7,0.8-0.5,1.3c0.2,0.5,0.8,0.7,1.3,0.5c0,0,0,0,0.1,0l6-3
		c0.5-0.2,0.7-0.8,0.5-1.3C11.7,1045.6,11.4,1045.4,11,1045.4L11,1045.4z"/>
	<path class="st1" d="M5,1045.4c-0.6,0-1,0.5-1,1c0,0.4,0.2,0.7,0.6,0.9l6,3c0.5,0.3,1.1,0.1,1.4-0.4s0.1-1.1-0.4-1.4c0,0,0,0-0.1,0
		l-6-3C5.3,1045.4,5.1,1045.4,5,1045.4L5,1045.4z"/>
	<path class="st1" d="M19,1039.4c-0.6,0-1,0.5-1,1c0,0,0,0,0,0v7c0,0.6,0.4,1,1,1s1-0.4,1-1c0,0,0,0,0,0v-7
		C20,1039.8,19.6,1039.4,19,1039.4C19,1039.4,19,1039.4,19,1039.4z"/>
	<path class="st1" d="M22,1041.4c-0.2,0-0.3,0-0.5,0.1l-6,3c-0.5,0.2-0.7,0.8-0.5,1.3s0.8,0.7,1.3,0.5c0,0,0,0,0.1,0l6-3
		c0.5-0.2,0.7-0.8,0.5-1.3C22.7,1041.6,22.4,1041.4,22,1041.4L22,1041.4z"/>
	<path class="st1" d="M16,1041.4c-0.6,0-1,0.5-1,1c0,0.4,0.2,0.7,0.6,0.9l6,3c0.5,0.3,1.1,0.1,1.4-0.4c0.3-0.5,0.1-1.1-0.4-1.4
		c0,0,0,0-0.1,0l-6-3C16.3,1041.4,16.1,1041.4,16,1041.4L16,1041.4z"/>
	<path class="st1" d="M30,1043.4c-0.6,0-1,0.5-1,1c0,0,0,0,0,0v7c0,0.6,0.4,1,1,1s1-0.4,1-1c0,0,0,0,0,0v-7
		C31,1043.8,30.6,1043.4,30,1043.4C30,1043.4,30,1043.4,30,1043.4z"/>
	<path class="st1" d="M33,1045.4c-0.2,0-0.3,0-0.5,0.1l-6,3c-0.5,0.2-0.7,0.8-0.5,1.3c0.2,0.5,0.8,0.7,1.3,0.5c0,0,0,0,0.1,0l6-3
		c0.5-0.2,0.7-0.8,0.5-1.3C33.7,1045.6,33.4,1045.4,33,1045.4L33,1045.4z"/>
	<path class="st1" d="M27,1045.4c-0.6,0-1,0.5-1,1c0,0.4,0.2,0.7,0.6,0.9l6,3c0.5,0.3,1.1,0.1,1.4-0.4c0.3-0.5,0.1-1.1-0.4-1.4
		c0,0,0,0-0.1,0l-6-3C27.3,1045.4,27.1,1045.4,27,1045.4L27,1045.4z"/>
	<path class="st1" d="M41,1039.4c-0.6,0-1,0.5-1,1c0,0,0,0,0,0v7c0,0.6,0.4,1,1,1c0.6,0,1-0.4,1-1c0,0,0,0,0,0v-7
		C42,1039.8,41.6,1039.4,41,1039.4C41,1039.4,41,1039.4,41,1039.4z"/>
	<path class="st1" d="M44,1041.4c-0.2,0-0.3,0-0.5,0.1l-6,3c-0.5,0.2-0.7,0.8-0.5,1.3s0.8,0.7,1.3,0.5c0,0,0,0,0.1,0l6-3
		c0.5-0.2,0.7-0.8,0.5-1.3C44.7,1041.6,44.4,1041.4,44,1041.4L44,1041.4z"/>
	<path class="st1" d="M38,1041.4c-0.6,0-1,0.5-1,1c0,0.4,0.2,0.7,0.6,0.9l6,3c0.5,0.3,1.1,0.1,1.4-0.4c0.3-0.5,0.1-1.1-0.4-1.4
		c0,0,0,0-0.1,0l-6-3C38.3,1041.4,38.1,1041.4,38,1041.4L38,1041.4z"/>
</g>
</svg>
