<?xml version="1.0" encoding="utf-8"?>
<!-- Generator: Adobe Illustrator 26.3.1, SVG Export Plug-In . SVG Version: 6.00 Build 0)  -->
<svg version="1.1"
	 id="Layer_1" xmlns:sodipodi="http://sodipodi.sourceforge.net/DTD/sodipodi-0.dtd" xmlns:dc="http://purl.org/dc/elements/1.1/" xmlns:rdf="http://www.w3.org/1999/02/22-rdf-syntax-ns#" xmlns:svg="http://www.w3.org/2000/svg" xmlns:inkscape="http://www.inkscape.org/namespaces/inkscape" xmlns:cc="http://creativecommons.org/ns#"
	 xmlns="http://www.w3.org/2000/svg" xmlns:xlink="http://www.w3.org/1999/xlink" x="0px" y="0px" viewBox="0 0 48 48"
	 style="enable-background:new 0 0 48 48;" xml:space="preserve">
<style type="text/css">
	.st0{fill:#313131;}
	.st1{fill-rule:evenodd;clip-rule:evenodd;fill:#313131;}
</style>
<g transform="translate(0,-1004.3622)">
	<path class="st0" d="M24,1040.4c-7.2,0-13-5.8-13-13c0-7.2,5.8-13,13-13s13,5.8,13,13S31.2,1040.4,24,1040.4z M24,1038.4
		c6.1,0,11-4.9,11-11c0-6.1-4.9-11-11-11s-11,4.9-11,11C13,1033.4,17.9,1038.4,24,1038.4z"/>
	<path class="st1" d="M24,1004.4c-0.6,0-1,0.5-1,1c0,0,0,0,0,0v5c0,0.6,0.4,1,1,1c0.6,0,1-0.4,1-1c0,0,0,0,0,0v-5
		C25,1004.8,24.6,1004.4,24,1004.4C24,1004.4,24,1004.4,24,1004.4z"/>
	<path class="st1" d="M41,1010.4c-0.3,0-0.5,0.1-0.7,0.3l-4,4c-0.4,0.4-0.4,1,0,1.4c0.4,0.4,1,0.4,1.4,0c0,0,0,0,0,0l4-4
		c0.4-0.4,0.4-1,0-1.4C41.5,1010.5,41.3,1010.4,41,1010.4z"/>
	<path class="st1" d="M7,1010.4c-0.6,0-1,0.4-1,1c0,0.3,0.1,0.5,0.3,0.7l4,4c0.4,0.4,1,0.4,1.4,0c0.4-0.4,0.4-1,0-1.4c0,0,0,0,0,0
		l-4-4C7.5,1010.5,7.3,1010.4,7,1010.4z"/>
	<path class="st1" d="M42,1027.4c-0.6,0-1,0.4-1,1c0,0.6,0.4,1,1,1c0,0,0,0,0,0h5c0.6,0,1-0.4,1-1c0-0.6-0.4-1-1-1c0,0,0,0,0,0H42z"
		/>
	<path class="st1" d="M1,1027.4c-0.6,0-1,0.4-1,1c0,0.6,0.4,1,1,1c0,0,0,0,0,0h5c0.6,0,1-0.4,1-1c0-0.6-0.4-1-1-1c0,0,0,0,0,0
		C6,1027.4,1,1027.4,1,1027.4z"/>
	<path class="st1" d="M8,1042.4c-0.6,0-1,0.5-1,1c0,0.3,0.1,0.6,0.4,0.8c0,0,0.7,0.5,1.5,1.1c0.9,0.5,1.9,1.1,3.1,1.1
		c1.2,0,2-0.7,2.6-1.2c0.6-0.5,1.1-0.8,1.4-0.8c0.3,0,0.8,0.3,1.4,0.8c0.6,0.5,1.4,1.2,2.6,1.2s2-0.7,2.6-1.2
		c0.6-0.5,1.1-0.8,1.4-0.8s0.8,0.3,1.4,0.8c0.6,0.5,1.4,1.2,2.6,1.2s2-0.7,2.6-1.2c0.6-0.5,1.1-0.8,1.4-0.8c0.3,0,0.8,0.3,1.4,0.8
		c0.6,0.5,1.4,1.2,2.6,1.2s2.2-0.6,3.1-1.1c0.9-0.5,1.5-1.1,1.5-1.1c0.4-0.3,0.5-1,0.2-1.4c-0.3-0.4-1-0.5-1.4-0.2l0,0
		c0,0-0.6,0.5-1.3,0.9c-0.8,0.5-1.7,0.8-2,0.8s-0.8-0.3-1.4-0.8c-0.6-0.5-1.4-1.2-2.6-1.2s-2,0.7-2.6,1.2c-0.6,0.5-1.1,0.8-1.4,0.8
		s-0.8-0.3-1.4-0.8s-1.4-1.2-2.6-1.2s-2,0.7-2.6,1.2s-1.1,0.8-1.4,0.8s-0.7-0.3-1.4-0.8s-1.4-1.2-2.6-1.2s-2,0.7-2.6,1.2
		s-1.1,0.8-1.4,0.8c-0.3,0-1.3-0.4-2-0.8c-0.8-0.5-1.3-0.9-1.3-0.9C8.5,1042.4,8.2,1042.4,8,1042.4L8,1042.4z"/>
	<path class="st1" d="M8,1048.4c-0.6,0-1,0.5-1,1c0,0.3,0.1,0.6,0.4,0.8c0,0,0.7,0.5,1.5,1.1c0.9,0.5,1.9,1.1,3.1,1.1s2-0.7,2.6-1.2
		c0.6-0.5,1.1-0.8,1.4-0.8c0.3,0,0.8,0.3,1.4,0.8c0.6,0.5,1.4,1.2,2.6,1.2s2-0.7,2.6-1.2c0.6-0.5,1.1-0.8,1.4-0.8
		c0.3,0,0.8,0.3,1.4,0.8c0.6,0.5,1.4,1.2,2.6,1.2s2-0.7,2.6-1.2c0.6-0.5,1.1-0.8,1.4-0.8c0.3,0,0.8,0.3,1.4,0.8
		c0.6,0.5,1.4,1.2,2.6,1.2c1.2,0,2.2-0.6,3.1-1.1c0.9-0.5,1.5-1.1,1.5-1.1c0.4-0.3,0.5-1,0.2-1.4c-0.3-0.4-1-0.5-1.4-0.2
		c0,0-0.6,0.5-1.3,0.9c-0.8,0.5-1.7,0.8-2,0.8s-0.8-0.3-1.4-0.8s-1.4-1.2-2.6-1.2c-1.2,0-2,0.7-2.6,1.2s-1.1,0.8-1.4,0.8
		c-0.3,0-0.8-0.3-1.4-0.8c-0.6-0.5-1.4-1.2-2.6-1.2s-2,0.7-2.6,1.2s-1.1,0.8-1.4,0.8s-0.7-0.3-1.4-0.8s-1.4-1.2-2.6-1.2
		s-2,0.7-2.6,1.2c-0.6,0.5-1.1,0.8-1.4,0.8c-0.3,0-1.3-0.4-2-0.8c-0.8-0.5-1.3-0.9-1.3-0.9C8.5,1048.4,8.2,1048.4,8,1048.4L8,1048.4
		z"/>
</g>
</svg>
