<?xml version="1.0" encoding="utf-8"?>
<!-- Generator: Adobe Illustrator 26.3.1, SVG Export Plug-In . SVG Version: 6.00 Build 0)  -->
<svg version="1.1"
	 id="Layer_1" xmlns:sodipodi="http://sodipodi.sourceforge.net/DTD/sodipodi-0.dtd" xmlns:dc="http://purl.org/dc/elements/1.1/" xmlns:rdf="http://www.w3.org/1999/02/22-rdf-syntax-ns#" xmlns:svg="http://www.w3.org/2000/svg" xmlns:inkscape="http://www.inkscape.org/namespaces/inkscape" xmlns:cc="http://creativecommons.org/ns#"
	 xmlns="http://www.w3.org/2000/svg" xmlns:xlink="http://www.w3.org/1999/xlink" x="0px" y="0px" viewBox="0 0 48 38"
	 style="enable-background:new 0 0 48 38;" xml:space="preserve">
<style type="text/css">
	.st0{fill:#313131;}
	.st1{fill-rule:evenodd;clip-rule:evenodd;fill:#313131;}
</style>
<g transform="translate(0,-1004.3622)">
	<path class="st0" d="M24.4,1004.4c-0.1,0-0.2,0-0.2,0c-8.4,2.4-14.1,10-14.2,18.6c0,10.7,8.8,19.4,19.7,19.4
		c8,0,15.3-4.8,18.3-12.2c0.2-0.5,0-1.1-0.6-1.3c-0.2-0.1-0.4-0.1-0.7,0c-1.6,0.5-3.3,0.7-5,0.7c-9.8,0-17.7-7.8-17.7-17.4l0,0
		c0-2.2,0.4-4.4,1.3-6.4c0.2-0.5,0-1.1-0.5-1.3C24.7,1004.4,24.5,1004.4,24.4,1004.4L24.4,1004.4z M22.8,1007.2
		c-0.4,1.6-0.8,3.3-0.8,5c0,10.7,8.8,19.4,19.7,19.4c0,0,0,0,0,0c1.1,0,2.2-0.3,3.3-0.5c-3,5.6-8.8,9.3-15.4,9.3
		c-9.8,0-17.7-7.8-17.7-17.4C12,1016,16.4,1009.9,22.8,1007.2L22.8,1007.2z"/>
	<path class="st1" d="M17,1017.4c-0.6,0-1,0.4-1,1c0,0.6,0.4,1,1,1c0,0,0,0,0,0h20c0.6,0,1-0.4,1-1c0-0.6-0.4-1-1-1c0,0,0,0,0,0
		L17,1017.4L17,1017.4z"/>
	<path class="st1" d="M1,1024.4c-0.6,0-1,0.4-1,1s0.4,1,1,1c0,0,0,0,0,0h20c0.6,0,1-0.4,1-1c0-0.6-0.4-1-1-1c0,0,0,0,0,0
		C21,1024.4,1,1024.4,1,1024.4z"/>
	<path class="st1" d="M9,1031.4c-0.6,0-1,0.4-1,1s0.4,1,1,1c0,0,0,0,0,0h20c0.6,0,1-0.4,1-1c0-0.6-0.4-1-1-1c0,0,0,0,0,0
		C29,1031.4,9,1031.4,9,1031.4z"/>
</g>
</svg>
